<svg width="211" height="52" viewBox="0 0 211 52" fill="none" xmlns="http://www.w3.org/2000/svg">
<path fill-rule="evenodd" clip-rule="evenodd" d="M110 1.52887C105.325 2.32787 96.325 3.32687 90 3.74687C80.144 4.40287 77.428 4.98387 71 7.81887C64.302 10.7719 62.617 11.1069 55.25 10.9519C47.445 10.7869 47 10.8919 47 12.9069C47 14.9369 47.314 15.0039 53.75 14.3449C58.416 13.8669 60.191 13.9739 59.5 14.6939C58.95 15.2659 56.925 15.8789 55 16.0559C51.862 16.3439 51.468 16.7129 51.187 19.6269C50.925 22.3449 51.211 22.8769 52.937 22.8769C55.661 22.8769 55.714 26.4569 53 27.1669C51.544 27.5479 51 28.5309 51 30.7829C51 33.7259 51.195 33.8769 55 33.8769C58.366 33.8769 59 34.2019 59 35.9269C59 37.7909 58.478 37.9499 53.25 37.6769L47.5 37.3769L47.216 26.6269C47.056 20.5739 46.51 15.8769 45.966 15.8769C45.435 15.8769 45 14.4969 45 12.8109C45 10.0549 44.721 9.77587 42.25 10.0609C39.798 10.3429 39.535 10.7299 39.825 13.6269C40.117 16.5369 39.881 16.8769 37.575 16.8769C35.381 16.8769 35 16.4339 35 13.8769C35 11.5439 34.556 10.8769 33 10.8769C31.577 10.8769 31 11.5439 31 13.1859C31 14.4559 30.437 16.1929 29.75 17.0459C28.261 18.8939 25 20.1859 25 18.9269C25 18.4399 24.727 17.3289 24.393 16.4589C23.954 15.3149 24.389 14.8769 25.963 14.8769C27.636 14.8769 28.065 14.3679 27.82 12.6719C27.535 10.7109 26.891 10.4619 22 10.4219C17.042 10.3809 16.469 10.5989 16.18 12.6269C15.937 14.3379 16.356 14.8769 17.93 14.8769C19.537 14.8769 20 15.5119 20 17.7149C20 20.2699 19.439 20.7419 14.36 22.4649C6.994 24.9619 0 31.0119 0 34.8849C0 39.0449 4.246 43.4519 10.28 45.5559C19.734 48.8539 56.663 47.5909 77 43.2759C82.837 42.0369 83.602 42.0599 84.5 43.5049C88.23 49.5059 87.908 49.3979 101.128 49.0999C110.116 48.8969 115.181 49.2719 119.961 50.4959C126.304 52.1199 126.769 52.1039 135.5 49.9629C140.45 48.7489 149.45 45.5799 155.5 42.9189C161.55 40.2589 167.4 37.8639 168.5 37.5959C170.31 37.1549 170.286 37.0979 168.25 36.9929C166.262 36.8899 166 36.3449 166 32.3039C166 28.4879 165.71 27.7849 164.25 28.0629C162.931 28.3129 162.425 29.5639 162.195 33.1359C161.981 36.4629 161.459 37.8769 160.445 37.8769C159.259 37.8769 159 35.5509 159 24.9079C159 13.7919 159.214 12.0219 160.5 12.5149C161.415 12.8669 162 14.3809 162 16.4019C162 24.6469 165.54 25.4059 166.543 17.3769C167.018 13.5789 167.675 11.8769 168.668 11.8769C169.846 11.8769 170.075 13.9769 169.934 23.4839L169.762 35.0909L173.631 36.8199C178.291 38.9029 179.586 38.5769 181.521 34.8359C183.363 31.2739 183.38 30.5169 181.601 31.1999C180.469 31.6339 180.3 30.6539 180.716 26.0569C181.147 21.2879 180.894 19.9759 179.135 17.8769C177.366 15.7649 176.889 15.6079 176.062 16.8679C174.8 18.7919 173.596 28.3809 174.365 30.3849C174.69 31.2319 175.943 32.2899 177.149 32.7359C178.842 33.3629 179.032 33.7389 177.98 34.3889C177.17 34.8899 176.473 34.7969 176.261 34.1599C176.065 33.5709 175.046 33.3139 173.997 33.5879C171.261 34.3029 170.417 29.9059 171.773 21.9929C173.009 14.7769 175.538 11.2779 178.775 12.3059C181.347 13.1219 182.805 16.8329 183.518 24.3769C184.58 35.6109 185.107 37.6719 187.048 38.1789C188.622 38.5909 188.944 37.9779 189.2 34.0809L189.5 29.4979L194.463 28.2369C197.193 27.5429 201.918 25.7039 204.963 24.1509C209.834 21.6659 210.539 20.9209 210.824 17.9629C211.398 11.9959 210.39 10.2989 204.763 7.75787C200 5.60587 198.122 5.37987 185 5.37887C177.025 5.37787 166.9 5.75787 162.5 6.22487C154.739 7.04687 154.41 6.99387 151.5 4.46187C149.85 3.02687 146.925 1.40987 145 0.869871C139.955 -0.545129 119.924 -0.169129 110 1.52887ZM97.084 13.5519C100.18 16.7089 100.41 20.1429 97.697 22.6919C95.298 24.9459 95.296 24.9679 97.092 28.6659C99.361 33.3389 100.481 37.8819 99.358 37.8619C97.713 37.8319 96.484 36.3439 94 31.3769L91.5 26.3769L91.198 32.1899C90.947 37.0309 90.612 37.9489 89.198 37.6779C87.719 37.3939 87.464 35.6309 87.22 23.9789L86.94 10.6059L91.117 11.1659C93.414 11.4739 96.099 12.5479 97.084 13.5519ZM107 23.4019C107 35.5269 106.577 37.8769 104.393 37.8769C103.275 37.8769 103 35.3459 103 25.0439C103 17.9849 103.269 11.9409 103.598 11.6129C103.927 11.2839 104.827 11.2569 105.598 11.5529C106.686 11.9709 107 14.6209 107 23.4019ZM82.777 13.4339C86.03 15.7119 85.816 21.0899 82.365 23.8039C80.916 24.9439 78.891 25.8769 77.865 25.8769C76.276 25.8769 76 26.6739 76 31.2699C76 35.3499 75.6 36.8169 74.357 37.2939C73.453 37.6399 72.594 37.8009 72.448 37.6509C72.025 37.2159 71.798 30.1139 71.903 20.6269L72 11.8769H76.277C78.63 11.8769 81.555 12.5779 82.777 13.4339ZM116.009 18.6269L118.5 25.3769L118.796 18.6269C119.055 12.6969 119.329 11.8769 121.046 11.8769C122.88 11.8769 123 12.6399 123 24.2699C123 34.2429 122.713 36.7729 121.532 37.2259C119.899 37.8529 119.476 37.3359 116.342 30.8769L114.158 26.3769L114.079 31.6269C114.01 36.2399 113.749 36.8769 111.935 36.8769C109.955 36.8769 109.879 36.3979 110.074 25.1269C110.186 18.6639 110.467 13.0399 110.698 12.6269C111.907 10.4679 113.778 12.5819 116.009 18.6269ZM136.264 12.4749C137.384 13.5939 135.792 15.8769 133.893 15.8769C132.163 15.8769 132 16.7309 132 25.8179C132 34.8599 131.115 38.3249 129.275 36.4849C128.949 36.1599 128.771 31.3889 128.88 25.8849C129.066 16.4169 128.967 15.8769 127.038 15.8769C125.667 15.8769 125 15.2229 125 13.8769C125 12.1269 125.667 11.8769 130.333 11.8769C133.267 11.8769 135.936 12.1459 136.264 12.4749ZM154.171 13.5319C156.083 15.2619 156.611 18.3809 155.146 19.2869C154.677 19.5769 153.786 18.7029 153.168 17.3459C151.956 14.6859 151.268 14.4209 149.115 15.7849C146.96 17.1499 148.609 21.6239 151.893 23.3219C156.288 25.5939 157.473 31.3289 154.443 35.6539C152.406 38.5629 148.914 38.4779 146.07 35.4509C143.346 32.5509 144.195 29.8379 147.025 32.3999C148.029 33.3089 149.672 33.8959 150.676 33.7039C153.287 33.2059 153.516 29.3449 151.061 27.1879C149.928 26.1919 148.1 24.5889 147 23.6269C144.177 21.1569 144.301 15.4799 147.223 13.4339C150.068 11.4409 151.889 11.4659 154.171 13.5319ZM192.923 13.3369C197.869 15.8949 197.485 21.5399 192.179 24.2849C190.57 25.1159 189.014 26.7149 188.721 27.8369C188.427 28.9589 187.502 29.8769 186.664 29.8769C185.39 29.8769 185.196 28.4449 185.478 21.1269C185.663 16.3149 185.857 12.2639 185.908 12.1269C186.197 11.3429 190.503 12.0859 192.923 13.3369ZM91.658 15.5519C91.296 15.9139 91 17.2599 91 18.5439C91 20.2099 91.571 20.8769 93 20.8769C94.29 20.8769 95 20.2099 95 18.9989C95 16.9129 92.685 14.5249 91.658 15.5519ZM188 18.2449C188 22.2339 189.211 23.5329 190.963 21.4209C192.618 19.4279 191.861 15.4659 189.75 15.0639C188.352 14.7969 188 15.4369 188 18.2449ZM76 18.8769C76 22.3949 78.346 22.9679 80.011 19.8559C81.328 17.3949 80.539 15.8769 77.941 15.8769C76.451 15.8769 76 16.5739 76 18.8769ZM44.186 27.3749C43.898 36.9859 43.707 37.8769 41.936 37.8769C40.256 37.8769 40 37.1489 40 32.3769C40 27.1769 39.864 26.8769 37.5 26.8769C35.178 26.8769 35 27.2209 35 31.7099C35 37.2239 34.644 37.8579 31.942 37.1519C30.247 36.7079 30.002 35.7379 30.014 29.5099C30.031 20.4709 30.723 17.8769 33.117 17.8769C34.543 17.8769 35 18.6059 35 20.8769C35 23.4099 35.389 23.8769 37.5 23.8769C39.69 23.8769 40 23.4439 40 20.3769C40 17.4149 40.346 16.8769 42.25 16.8749C44.461 16.8729 44.494 17.0569 44.186 27.3749ZM24 28.8179C24 36.0779 23.025 39.3439 21.563 36.9779C20.632 35.4729 19.676 24.1639 20.334 22.4499C20.666 21.5849 21.626 20.8769 22.469 20.8769C23.715 20.8769 24 22.3539 24 28.8179Z" fill="black"/>
</svg>
