<svg id="Layer_1" data-name="Layer 1" xmlns="http://www.w3.org/2000/svg" viewBox="0 0 30.08 33.73"><defs><style>.cls-1{fill-rule:evenodd;}</style></defs><path d="M29.88,33.41c0-.1-.17-.19-.39-.19s-.33-.1-.12-.51.22-.51.15-.51a2,2,0,0,0-.51.7l-.37.7v-.77a2.2,2.2,0,0,1,.17-1c.11-.14,0,0-.25.23-.43.46-.44.46-.44,0a1.35,1.35,0,0,1,.19-.73c.1-.14,0,0-.25.23s-.45.38-.45.26-.12-.05-.25.16-.25.34-.25,0a2.49,2.49,0,0,1,.4-1l.4-.63-.53.6a2.24,2.24,0,0,0-.55,1c0,.23-.11.13-.22-.22a1.32,1.32,0,0,1,.09-1c.24-.33.22-.33-.16,0s-.38.44-.3.57a.85.85,0,0,1-.15.67c-.27.42-.28.42-.15,0,.07-.25,0-.45-.11-.45s-.25.2-.26.45,0,.37-.24-.07-.22-.46-.26.13-.06.58-.22-.13l-.17-.76-.17.83c-.19.87-.93,1.17-1,.38,0-.27-.07-.32-.15-.13a.26.26,0,0,1-.37.17c-.15-.09-.11-.31.08-.55s.26-.39-.24-.26c-.76.2-1-.68-.45-1.72a5.2,5.2,0,0,0,.39-2c0-.66.11-1.21.24-1.21a1.29,1.29,0,0,0,.61-.37c.28-.29.36-.91.32-2.55a11.77,11.77,0,0,1,0-1.54A10.52,10.52,0,0,1,24,20.29c-.11.34-1.35.27-1.9-.15s-.4-.34.46-.11a2.38,2.38,0,0,0,1.21.1c.12-.08.22,0,.24.09a9.48,9.48,0,0,1,.26-1.49c0-.23,0-.45-.06-.68s0-.31,0-.46-.08-.28-.11-.42h0L24,16.77c-.05-.19-.08-.37-.13-.56a11.19,11.19,0,0,1-.44-1.14c-.06.37-.15.57-.27.53-.29-.11-.29-.27,0-1,.1-.25.06-.45-.09-.45s-.34.23-.43.52-.25.45-.37.38-.33,0-.49.21-.16.32.36.23.63,0,.63.29c0,.52-.28.62-2,.73-1.43.09-1.82-.24-.57-.49.42-.08.76-.23.76-.33,0-.26-1.7-1-1.88-.84s-.16,1.08.24,1.86c.21.41.31.75.21.75a7.4,7.4,0,0,1-2.11-1,7.31,7.31,0,0,1,1-1.19c.85-.87,1.15-1,1.78-.93.95.15,1-.11,0-.44s-1-1.28-.45-2.65c.31-.73.31-.89,0-.89a.61.61,0,0,0-.49.4c-.11.28-.32.35-.72.22s-.53-.14-.23.23a1,1,0,0,1,.19.83.84.84,0,0,0,.1.74c.34.4-.11,1.68-.56,1.59-.17,0-.35.18-.4.48a1.9,1.9,0,0,1-.54,1c-.44.4-.46.36-.36-.76a5.89,5.89,0,0,1,.34-1.65,5,5,0,0,0,.25-1.76c0-1.21.06-1.33.89-1.82.49-.29.89-.68.89-.87s.13-.29.82,0c1.18.5,1.41,1,.88,1.89s-.57,1.28-.13.84.65-.38.83.19A1.6,1.6,0,0,1,21.36,13c-.44.67-.44.68.11.5s1.11.53.53.9c-.2.13-.23.23-.06.23a.75.75,0,0,0,.62-1.12,2.72,2.72,0,0,1-.43-1.07,2.76,2.76,0,0,0-.42-1.06,2.19,2.19,0,0,1-.23-1.23c.06-.82,0-.91-1.23-1.47-.71-.33-1.14-.65-1-.71.47-.16.36-3-.15-4a3.79,3.79,0,0,1-.4-1.41A2.12,2.12,0,0,0,16.87,1a6.7,6.7,0,0,0-1.49.35c-1.34.48-1.71.86-1.71,1.75a2.14,2.14,0,0,1-.43,1.25c-.4.45-.4.53.06,1.38s.48.91,0,1.26a1.89,1.89,0,0,1-.82.35c-.88,0-2.32,1.08-3.25,2.43-2.06,3-2.39,3.53-2.39,4a.43.43,0,0,1-.39.45c-.22,0-.45.32-.54.76A2.06,2.06,0,0,1,5.41,16a2,2,0,0,0-.35,1.24A4.5,4.5,0,0,1,4,20.06c-.25.38-.39.8-.3,1s0,.54-.26.89a1.46,1.46,0,0,0-.27,1c.09.23-.1.54-.49.8s-.58.55-.47.83a17.88,17.88,0,0,1,.41,2.69c.13,1.26.3,2.83.37,3.49S3,32,2.81,32s-.28-.19-.28-.43,0-.37-.4.06-.39.49-.28,0,0-.52-.55-.5c-.88,0-1.28.75-1.29,2.34v1.31l5.82,0c5,0,5.83-.09,5.85-.41s0-.34.19,0,1.05.59,1.05.19c0-.14.17-.12.38.06s.38.22.38.09.55-.19,1.21-.16c1.27.07,3.81.08,4.56,0a1.36,1.36,0,0,0,.78-.43c.3-.37.32-.37.21,0s.3.42,3.77.44c2.94,0,3.91-.05,3.91-.28s.06-.23.19,0a1.86,1.86,0,0,0,1,.4c.75.11.83.07.7-.41A5.46,5.46,0,0,1,29.88,33.41Zm-10-18c.21,0,.38.05.38.1s-.17.17-.38.25-.38,0-.38-.1S19.67,15.43,19.88,15.43ZM1.3,32.49c-.17.61-.25.7-.26.31,0-.62.23-1.44.4-1.27A2,2,0,0,1,1.3,32.49Zm19.43-4c-1.35.17-1.43.15-1.53-.41-.16-.93,0-1.53.47-1.37a3.28,3.28,0,0,0,1,.15.68.68,0,0,1,.72.53c.17.66.68.4.68-.33s.24-.45.39.39S22.51,28.29,20.73,28.5Zm2.71-9.92c-.44-.17-.52-.35-.16-.35a.55.55,0,0,1,.4.25C23.76,18.62,23.66,18.67,23.44,18.58Zm-.54-1.52c.22-.22.34-.5.26-.63s0-.23.12-.23.27.28.27.63-.13.64-.52.64S22.54,17.43,22.9,17.06Zm-2.14.15a2.56,2.56,0,0,1,1.4-.45c.76,0,.76,0,.06.13-1.17.17-.7.79.65.86.41,0,.36.07-.19.19-.88.19-.92.6-.09.84.43.12.46.17.12.19s-.39.12-.31.25-.38.07-1-.12-1.09-.24-1-.12-.4.31-1.07.4c-1.75.23-1.93.39-.32.28a8.76,8.76,0,0,0,1.79-.26c.31-.13.49.07.74.85.19.57.44,1,.57,1s.16.1.08.23.36,1.55.63,1.55.54-1.25.34-1.58c-.1-.16-.06-.21.09-.12.49.3.6,1.75.18,2.38-.21.33-.49.54-.61.47a1.18,1.18,0,0,0-.81.12c-.5.22-.43.24.47.18s1.08,0,1.19.42c.25,1-.59,1.59-1.62,1.17a.66.66,0,0,0-.32,0,.19.19,0,0,1-.19-.21c0-.13-.34-.06-.76.15-1,.47-1.64.36-1.64-.29,0-.43.16-.48,1.3-.42a3,3,0,0,0,1.44-.14c.07-.12-.33-.22-.88-.23a2.32,2.32,0,0,1-1.3-.36c-.24-.26-.23-.29.07-.14s.16,0-.11-.22a1.8,1.8,0,0,0-.91-.4,2.55,2.55,0,0,1-1.15-.64c-.86-.74-.79-.76.65-.25,1.25.44,1.55.48,1,.12a6.46,6.46,0,0,0-1.44-.53,3.64,3.64,0,0,1-1.48-.74c-.4-.44-.39-.46.17-.32a3.09,3.09,0,0,1,.93.41,1.8,1.8,0,0,0,.76.31c.23,0,.82.11,1.31.2l.89.16-.76-.36a3.66,3.66,0,0,0-1.05-.38,3.64,3.64,0,0,1-1-.39A3.68,3.68,0,0,0,16.14,21c-.45,0-.69-.14-.69-.39s-.27-.38-.83-.39H13.8l.58-.48a2.24,2.24,0,0,1,1.78-.41c.65,0,.87,0,.49,0s-.7-.27-.7-.52.07-.35.31-.11a1,1,0,0,0,.57.29c.3,0-.61-.75-.92-.75-.12,0-.21.17-.21.38s-.13.38-.28.38c-.38,0,.29-1,.9-1.38.33-.19.49-.19.56,0C17.05,18.08,20,17.77,20.76,17.21Zm-4.55-1a.26.26,0,0,1-.26-.26.26.26,0,0,1,.26-.25.25.25,0,0,1,.25.25A.26.26,0,0,1,16.21,16.2Zm.88.79a2.53,2.53,0,0,1,1.14.22c.32.21.29.25-.12.23A5.24,5.24,0,0,1,17,17.21C16.35,17,16.35,17,17.09,17Zm.14-8.93a.54.54,0,0,1-.39-.25c-.09-.14,0-.25.24-.25s.39.11.39.25A.24.24,0,0,1,17.23,8.06Zm-.5-1a.27.27,0,0,1-.27-.26c0-.14.05-.25.11-.25s.18.11.27.25S16.88,7.05,16.73,7.05Zm.49-.76A.26.26,0,0,1,17.47,6a.26.26,0,0,1,.26.26.26.26,0,0,1-.26.25A.25.25,0,0,1,17.22,6.29Zm.63,3.05c-.31.25-.38.24-.38-.1a.39.39,0,0,1,.38-.41c.21,0,.38,0,.38.09S18.06,9.16,17.85,9.34Zm1.26-2c.25-.41.39-.33.22.12-.08.22-.2.34-.27.27S19,7.47,19.11,7.32Zm-.37,1.51c.14,0,.25.05.25.11s-.11.18-.25.27-.25,0-.25-.11A.26.26,0,0,1,18.74,8.83Zm-.48-.77a.55.55,0,0,1-.41-.25c-.08-.14,0-.25.1-.25a.55.55,0,0,1,.41.25C18.45,8,18.4,8.06,18.26,8.06Zm-.11-3c.1.1.05.3-.1.45a.84.84,0,0,1-.74.15c-.39-.1-.37-.12.1-.15.31,0,.57-.16.57-.32S18.06,5,18.15,5.1ZM17.66,4c.45.35.52.51.24.51a1.39,1.39,0,0,1-.79-.4C16.34,3.33,16.72,3.26,17.66,4ZM16.21,2.47c.15-.28.38-.5.52-.5s.16.18,0,.5-.38.51-.52.51S16,2.8,16.21,2.47Zm.13,2.8c.21.18.33.38.27.44S16,5.53,16,5.22,16.1,5.07,16.34,5.27ZM16,6.79c0,.14,0,.26-.11.26s-.18-.12-.27-.26,0-.25.12-.25A.26.26,0,0,1,16,6.79Zm-.52-1A.26.26,0,0,1,15.7,6c0,.14,0,.26-.11.26s-.18-.12-.27-.26S15.28,5.78,15.43,5.78Zm-.54,1.28a.68.68,0,0,0,.88.37c.42-.12.47-.1.2.09s-.24.31.31.57,1,1.25.49,1.25a12.46,12.46,0,0,1-2.84-2.57C13.93,6.34,14.56,6.53,14.89,7.06ZM8.62,11.38a21.43,21.43,0,0,0,1.64-2.3c.48-.95,3.67-2.26,3.67-1.52a.26.26,0,0,1-.27.25c-.15,0-.19.13-.09.3s0,.24-.25.13-2.09.5-1.85.74a2.78,2.78,0,0,0,1.16-.12,6.4,6.4,0,0,1,4.18,1c.8.67.27,4.44-.81,5.68-.48.56-.72.33-.91-.88-.08-.52-.16-1-.18-1.15a.81.81,0,0,1,0-.32,6,6,0,0,0-.06-2.54c-.11,0-.19-.15-.16-.32.13-1.06,0-1.21-1.16-1.21-.63,0-1.14.12-1.14.26s.32.25.71.25c.71,0,1.31.39,1.31.85,0,.14-.24,0-.54-.24l-.55-.48.45.69c.25.39.57.63.71.54s.19,0,.08.14-.28.23-.57,0a1.93,1.93,0,0,0-.8-.37c-.26,0-.16.13.27.45.63.46,1,1.22.47.87-.28-.18-1,.09-1,.37,0,.11.29.17.64.13s.63.05.63.5a1,1,0,0,1-.57.85c-.52.26-.53.28-.06.26.9-.05,1,0,1,.67,0,.43-.14.63-.43.63s-.39.14-.29.38.25.31.39.23.06.14-.18.51-.32.66-.16.66.41-.25.58-.57.34-.46.41-.24a1.1,1.1,0,0,1-.33.83c-.25.27-.32.49-.16.49s.47-.29.7-.63c.42-.64,1.29-.92,1-.32-.08.17-.22.52-.3.76s-.29.44-.45.44-.43.23-.6.51c-.32.51-.33.51-1.31-.14s-1.35-1.16-1.12-1.76c.16-.44-.3-.53-.56-.11s-.64-.17-.37-.88c.33-.9.33-1.25,0-1-.18.11-.25-.15-.19-.81s0-1-.26-.91-.32-.19-.24-.93c.05-.56,0-.95-.13-.87s-.14-.24,0-.71c.17-.78.16-.81-.23-.42a2.72,2.72,0,0,0,0,2.58c.16.39.12.46-.21.33s-.38-.06-.19.44c.12.33.16.67.07.75s0,.15.2.15.26.09.09.26c-.44.44-1.85,0-2.38-.76L7.36,13Zm5,8.66c-.08.51-.11.47-.23-.23-.08-.51-.05-.74.1-.6A1.19,1.19,0,0,1,13.62,20ZM9.91,15.39A1.74,1.74,0,0,1,9,15.12c-.15-.24,1.35-.1,1.6.15C10.66,15.37,10.36,15.42,9.91,15.39ZM4.48,22.8a.31.31,0,0,0,.33-.26c0-.32-.81-.22-1.07.14-.11.14-.19.09-.18-.13,0-.59.54-1.16,1.38-1.48l.76-.29-.83.14c-.64.11-.82.06-.82-.26,0-.56,1.22-1,1.68-.63.19.16.35.19.34.07,0-.31-.4-.9-.59-.88-.63.09-.7,0-.37-.52s1.13-.82,1.41-.38a3.5,3.5,0,0,0,.7.67c.48.36.48.36.12-.11a5.4,5.4,0,0,0-1.78-1.67c-.33,0-.3-.34.06-.71s.61-.39,1.49.47c1.13,1.12,1.27.68.15-.47-.88-.91-1.13-1.54-.76-1.91s.64-.18,1.12.44a4.69,4.69,0,0,0,1.75,1.06c1.33.48,1.56.75.82.95-.35.09-.33.12.1.14a1.32,1.32,0,0,1,.83.39,3.28,3.28,0,0,0,1.05.66c.59.25.74.46.7,1a2,2,0,0,0,.14,1c.12.19,0,.31-.21.31s-.57-.44-.81-1-.52-1-.79-.88-.33.08-.06-.24.26-.37-.09-.24c-.53.21-.52.34.06,1s1,1.83.57,1.56a2.59,2.59,0,0,0-.73-.27c-.24-.06-.81-.21-1.27-.35s-.77-.16-.69,0,0,.27-.19.33.14.19.7.3l1,.19-1.27.48a7.32,7.32,0,0,1-1.71.49c-.24,0-.44.12-.44.28s.23.22.52.15.47-.08.22.23-.36.31-.44.23-.29.1-.48.38a1.15,1.15,0,0,1-.66.51c-.35,0-1.67,1-1.34,1A6.87,6.87,0,0,0,6.26,24c1-.52,1.16-.53,1.43-.16a2.59,2.59,0,0,1,.21,1.42c-.08.88-.2,1-1,1.33s-.94.25-1,0a.49.49,0,0,0-.45-.29c-.51,0-2.14-.82-2.14-1.08s-.09-.16-.2-.1-.22-.12-.24-.42C2.8,24.16,3.94,22.8,4.48,22.8ZM3,28c-.3-.7-.3-1.2,0-1,.14.08.24.46.23.84C3.26,28.45,3.23,28.47,3,28Zm1.43,3.88c-.07-.19-.13-.14-.15.12,0,.45-.52.65-.52.22a2.19,2.19,0,0,0-.16-.64c-.11-.31,0-.37.3-.23s.43.14,0-.44c-.58-.82-.54-.93.27-.81.63.09.7.2.7,1.1S4.72,32.51,4.47,31.89Zm.92-4c-.11.83-.18.9-.83.8s-.7-.22-.63-.59,0-.43-.17-.33-.21,0-.11-.34a.93.93,0,0,0-.24-.93c-.22-.22-.31-.4-.19-.4a.77.77,0,0,1,.46.24,2.54,2.54,0,0,0,1,.37C5.56,26.88,5.52,26.82,5.39,27.9Zm2.39,3.56c-.11-.42-.08-.52.11-.33a.65.65,0,0,1,.16.6C8,31.92,7.87,31.81,7.78,31.46Zm6.12,1.25c-.22-.3-.25-.27-.14.19s0,.63-.07.69-.19-.62,0-1.64c0-.28.12-.24.28.13a3.18,3.18,0,0,1,.23.76C14.17,33,14.05,32.92,13.9,32.71Zm5.2-.84c-.28,0-.36-.17-.27-.53.14-.53.13-.53-.29,0s-2.13.81-1.93.27c.07-.17-.05-.32-.25-.32s-.33.1-.26.21c.22.35-.85,1.31-1.27,1.15-.6-.23-.48-.94.3-1.81l.7-.78-.83.75c-.45.41-.82.66-.82.54,0-.33-.8.43-1,1s-.22.47-.16-.09-.07-.62-.51-.66-.57,0-.57.12a2,2,0,0,1-.4.66c-.37.47-.39.45-.24-.27.1-.51.07-.65-.08-.41a.4.4,0,0,1-.52.17c-.15-.09-.28,0-.28.16s-.05.26-.22,0-.24-.3-.36,0-.14.23-.16-.07c0-.51.58-1.05.88-.79.13.1.07,0-.11-.26-.34-.44-.93-.37-.65.08.08.13,0,.24-.12.24s-.34.3-.43.66l-.16.66-.49-.78c-.54-.86-.41-1.54.2-1,.34.28.44.21.29-.2,0-.11-.31-.2-.62-.22s-.49.08-.41.22,0,.19-.2.12a.41.41,0,0,1-.28-.44c0-.16,0-.22-.2-.13s-.19.27,0,.53.22.36-.05.37-.26.06,0,.15a.5.5,0,0,1,.32.38c0,.13-.11.18-.23.1s-.29,0-.36.18-.14,0-.15-.37a1.29,1.29,0,0,0-.23-.81c-.11-.07-.15.24-.09.68.11.74.08.78-.3.47s-.42-.29-.42.1-.06.39-.15.31A10.27,10.27,0,0,1,6,29.6c.42-2.34.44-2.4,1.28-2.7s.87-.45,1-1.38a5.45,5.45,0,0,0-.07-1.83c-.2-.71-.14-.81,1-1.57s2.07-1,4.51-1c1.37,0,1.42,0,2.73,1.42a10.3,10.3,0,0,1,1.47,1.87c.08.25.25.45.38.45s.24.33.24.74a1.32,1.32,0,0,0,.23.89.61.61,0,0,1,.1.61,6.71,6.71,0,0,0,.28,2C19.61,31.07,19.61,31.87,19.1,31.87Zm2.12-1.25c-.06.81-.17,1-.74,1s-.68,0-.77-1-.09-1,.75-1S21.3,29.69,21.22,30.62Zm.56-.94a.26.26,0,0,1,.25-.27c.14,0,.25.05.25.11s-.11.18-.25.27S21.78,29.83,21.78,29.68Zm6.07,3.16a.54.54,0,0,1-.25-.4c0-.36.18-.28.35.16C28,32.83,28,32.93,27.85,32.84Z" transform="translate(0 -0.96)"/><path class="cls-1" d="M17.9,32.76c-.08.2-.14.14-.15-.15s.05-.42.13-.34A.54.54,0,0,1,17.9,32.76Z" transform="translate(0 -0.96)"/></svg>