<svg width="1000" height="1000" viewBox="0 0 1000 1000" fill="none" xmlns="http://www.w3.org/2000/svg">
<mask id="mask0_210_656" style="mask-type:alpha" maskUnits="userSpaceOnUse" x="0" y="0" width="1000" height="1000">
<path fill-rule="evenodd" clip-rule="evenodd" d="M428.889 2.05102C427.852 3.3816 427.004 4.75415 427.004 5.09975C427.004 5.44623 425.91 6.23922 424.573 6.86254L422.142 7.99577L424.131 9.34779C426.268 10.7998 426.56 11.9679 425.29 13.9959C424.591 15.1095 424.286 15.1095 422.95 13.9959C422.056 13.2502 421.285 13.0877 421.109 13.6065C420.928 14.1406 416.278 14.4915 409.539 14.479C400.143 14.462 397.215 14.1093 391.903 12.3581C385.812 10.3497 382.049 10.3167 383.252 12.2831C383.563 12.7894 383.29 13.094 382.645 12.9591C381.959 12.8153 381.364 13.6744 381.208 15.0362C380.841 18.2261 384.746 20.906 388.034 19.7192C390.465 18.8422 405.608 20.3193 411.701 22.0285C413.553 22.5482 416.064 23.0046 417.279 23.043C418.673 23.0867 420.442 24.2682 422.067 26.2408L424.644 29.3708L421.233 28.7243C419.358 28.3689 416.508 27.2946 414.901 26.3373L411.98 24.5959L408.147 26.8659C396.314 33.8707 390.535 48.2195 392.509 65.6975C393.506 74.5311 394.927 78.0397 399.571 83.1281C408.375 92.7761 420.324 93.3941 424.361 84.4113C425.307 82.3047 426.09 79.5998 426.101 78.3987C426.119 76.3028 426.001 76.3466 423.151 79.4882C420.304 82.6289 416.823 84.6007 414.128 84.6007C413.088 84.6007 412.859 82.4226 412.859 72.5451V60.4895H415.38C418.479 60.4895 423.409 57.2514 425.19 54.0455C426.896 50.9744 426.149 50.2922 422.936 51.9844C421.526 52.7265 418.882 53.3365 417.058 53.34L413.743 53.3454V43.625V33.9046L418.559 33.2974C423.767 32.6401 428.305 29.8334 427.517 27.7589C427.039 26.4998 431.168 24.2119 432.141 25.196C432.401 25.4576 432.758 28.5742 432.936 32.1204C433.113 35.6665 433.841 40.3003 434.551 42.4159C435.263 44.5323 435.845 46.6898 435.845 47.2113C435.845 47.7319 436.668 49.3251 437.673 50.7521C439.283 53.0355 439.995 53.3266 443.64 53.1891L447.78 53.0337L443.801 52.6863C438.991 52.2675 438.508 51.8451 437.988 47.6051C437.5 43.6295 438.868 44.0635 439.84 48.1918C440.431 50.7074 440.629 50.1216 441.268 43.9688C442.101 35.9416 441.733 32.7741 440.723 39.2805C440.361 41.613 439.761 43.5223 439.391 43.5223C438.576 43.5223 437.645 39.126 437.524 34.7038C437.443 31.7132 437.378 31.6364 436.663 33.6992C436.093 35.3477 435.961 34.5994 436.158 30.8389C436.305 28.0375 436.096 25.9515 435.693 26.2033C435.29 26.4551 434.935 26.1345 434.904 25.4916C434.873 24.8486 434.725 23.0671 434.573 21.532C434.334 19.0905 434.701 18.5502 437.503 17.2107L440.707 15.6801L438.323 18.2154L435.938 20.7506H439.207C441.004 20.7506 442.804 21.1525 443.205 21.6436C443.643 22.1794 443.794 22.0097 443.582 21.2221C443.388 20.4988 442.39 19.6951 441.367 19.4361C439.676 19.0083 439.624 18.8012 440.795 17.1946C442.077 15.4363 442.112 15.4381 445.817 17.4259C452.211 20.856 460.441 28.9707 463.273 34.636C464.698 37.4874 466.27 40.0744 466.768 40.3843C468.669 41.572 467.593 44.1224 464.577 45.5753L461.483 47.0658V44.401C461.483 42.9356 461.487 41.5336 461.492 41.2853C461.499 41.038 460.902 39.3814 460.166 37.6043C458.235 32.9348 458.575 31.9668 461.068 35.0387C462.263 36.5122 463.244 37.3739 463.246 36.9533C463.249 36.5336 462.293 35.0405 461.124 33.6358C459.509 31.698 458.877 31.3944 458.505 32.3758C458.199 33.1786 457.414 33.4519 456.433 33.0947C455.2 32.6464 455.323 33.0429 456.995 34.8958C458.174 36.2023 458.791 37.2712 458.365 37.2712C457.94 37.2712 458.07 37.7535 458.654 38.3429C459.926 39.6279 460.083 42.0721 458.844 41.2978C458.066 40.812 458.321 44.4233 459.296 47.6989C459.778 49.3161 457.899 50.3833 453.416 51.0379C449.539 51.604 449.304 51.5174 448.896 49.3652C448.66 48.1159 448.81 47.0943 449.229 47.0943C450.487 47.0943 450.087 43.1678 448.613 41.0424C447.711 39.7395 447.59 39.0573 448.263 39.0573C448.827 39.0573 448.101 37.6919 446.651 36.0219C444.754 33.8403 444.132 32.3561 444.437 30.7434C444.747 29.1029 444.362 28.2295 443.006 27.4955C441.985 26.9436 441.149 26.865 441.149 27.3214C441.149 27.7768 441.682 28.3563 442.334 28.6091C443.104 28.9073 443.379 30.0379 443.118 31.8302C442.862 33.5876 443.097 34.5922 443.761 34.5922C444.354 34.5922 444.592 35.2691 444.311 36.1612C444.018 37.0953 444.674 38.7367 445.93 40.2137C447.803 42.4141 447.927 43.0133 447.027 45.4816C446.235 47.6525 446.255 48.3508 447.117 48.6482C447.725 48.858 448.222 49.7662 448.222 50.6664C448.222 51.5665 448.712 52.4685 449.313 52.6712C449.913 52.873 448.502 53.7714 446.177 54.6688C443.075 55.8655 441.689 56.0342 440.968 55.3055C439.85 54.1759 432.518 54.8599 430.761 56.2575C428.396 58.1382 429.846 62.0495 433.414 63.4141C435.735 64.3017 435.299 65.4903 431.865 67.6344C427.95 70.0786 427.484 72.0459 429.131 79.1765C429.859 82.3297 430.269 85.2142 430.042 85.5856C429.814 85.9571 430.23 90.0069 430.965 94.5845C432.68 105.261 432.698 110.156 431.027 110.803C430.127 111.152 429.909 110.871 430.294 109.859C430.69 108.815 430.515 108.623 429.656 109.158C428.767 109.714 428.619 109.473 429.067 108.189C429.443 107.105 428.985 107.379 427.816 108.935C425.983 111.378 423.468 112.251 423.468 110.445C423.468 109.925 423.838 109.731 424.291 110.013C424.743 110.296 425.369 110.109 425.682 109.598C425.995 109.086 425.725 108.778 425.08 108.913C424.423 109.051 423.965 108.46 424.038 107.564C424.132 106.394 423.875 106.214 423.073 106.887C422.471 107.391 421.717 107.539 421.397 107.216C420.901 106.715 420.695 107.321 420.585 109.605C420.572 109.85 419.825 110.754 418.921 111.614C417.4 113.063 417.279 113.066 417.279 111.667C417.279 110.343 417.108 110.37 415.888 111.89C415.122 112.843 414.764 113.094 415.092 112.447C415.471 111.703 415.012 111.092 413.842 110.783C412.826 110.514 412.224 109.919 412.505 109.46C412.812 108.958 413.473 109.008 414.16 109.584C415.006 110.293 415.447 110.169 415.85 109.108C416.615 107.096 416.648 107.125 414.069 107.622C412.791 107.87 411.551 108.818 411.315 109.732C411.078 110.644 410.622 111.391 410.301 111.391C409.98 111.391 409.87 112.996 410.055 114.958C410.279 117.337 410.728 118.321 411.405 117.912C412.023 117.537 411.981 117.843 411.297 118.697C410.681 119.465 410.415 120.723 410.707 121.491C411.413 123.35 413.761 122.378 413.173 120.47C412.77 119.16 412.855 119.142 413.892 120.321C415.434 122.076 419.029 122.576 419.109 121.047C419.145 120.383 419.435 120.544 419.779 121.421C420.32 122.8 420.644 122.834 422.749 121.73C424.803 120.654 425.179 120.669 425.627 121.846C426.026 122.898 426.417 122.97 427.378 122.164C428.058 121.594 428.825 121.471 429.082 121.891C429.683 122.873 435.845 122.168 435.845 121.117C435.845 120.679 436.266 120.321 436.781 120.321C437.295 120.321 437.489 120.693 437.211 121.148C436.361 122.537 450.137 123.45 451.537 122.097C451.659 121.98 452.122 121.834 452.569 121.772C453.014 121.71 453.656 121.38 453.995 121.037C454.335 120.694 455.525 121.018 456.64 121.755C457.754 122.494 458.876 122.756 459.13 122.34C459.593 121.582 486.144 121.716 486.9 122.48C487.121 122.704 488.32 122.495 489.565 122.017C490.81 121.539 493.61 121.418 495.789 121.748C498.642 122.18 499.576 122.064 499.129 121.335C498.788 120.777 497.912 120.321 497.183 120.321C496.454 120.321 496.107 119.913 496.412 119.414C496.718 118.914 497.4 118.775 497.927 119.105C498.455 119.434 498.636 119.294 498.33 118.793C498.023 118.293 496.795 117.991 495.6 118.123C494.117 118.288 493.569 117.996 493.871 117.201C494.114 116.561 493.889 115.771 493.369 115.447C492.85 115.123 492.413 115.384 492.398 116.026C492.381 116.786 492.071 116.676 491.513 115.711C491.041 114.895 489.065 113.956 487.12 113.623C484.947 113.253 483.584 112.534 483.584 111.759C483.584 111.065 483.229 110.498 482.795 110.498C480.883 110.498 480.922 107.388 482.853 105.916C485.138 104.175 486.42 104.51 485.612 106.637C485.307 107.439 485.647 108.515 486.378 109.065C487.1 109.608 488.147 110.855 488.705 111.837C491.063 115.991 489.501 110.906 486.236 103.8C484.292 99.5675 482.7 95.7883 482.7 95.4025C482.7 95.0167 481.92 93.9871 480.966 93.1146C480.011 92.2421 478.786 90.1712 478.245 88.5111C477.703 86.8519 476.937 85.4937 476.544 85.4937C475.684 85.4937 472.512 79.1212 472.824 78.0228C472.945 77.5968 472.436 76.3118 471.694 75.1669C470.951 74.0221 470.568 72.4924 470.843 71.769C471.118 71.0448 470.886 69.5901 470.329 68.5355C469.77 67.4817 469.313 62.9551 469.313 58.4748C469.313 53.4847 468.861 49.4447 468.147 48.0427C467.175 46.137 467.181 45.5664 468.184 44.6278C469.588 43.3124 468.701 40.2155 465.885 36.5988C464.923 35.3629 464.135 33.7858 464.135 33.0938C464.135 29.4878 446.911 14.9461 442.64 14.9461C440.546 14.9461 440.414 14.7103 440.879 11.8205C441.267 9.40583 441.077 8.695 440.047 8.695C439.314 8.695 438.208 8.07971 437.59 7.32691C436.604 6.12849 436.754 6.06955 438.797 6.85451C440.868 7.65018 441.188 7.50908 441.664 5.59447C442.396 2.64487 441.718 1.85366 437.844 1.14462C436.014 0.809737 433.676 0.331978 432.646 0.0828287C431.33 -0.235082 430.213 0.349838 428.889 2.05102ZM433.139 2.61719C434.706 3.60574 434.721 3.76649 433.348 4.82113C431.975 5.87577 431.984 5.9615 433.466 5.9874C434.345 6.00347 434.83 6.39997 434.542 6.86969C433.709 8.23242 431.424 6.88308 431.424 5.02741C431.424 4.09779 431.003 3.33695 430.488 3.33695C429.974 3.33695 429.798 2.9351 430.098 2.44394C430.795 1.30536 431.085 1.32143 433.139 2.61719ZM53.6991 4.61306C49.0215 6.29906 47.7396 7.61803 47.7396 10.7436C47.7396 12.2411 47.0633 14.2209 46.2367 15.1434C44.8186 16.7258 44.8301 17.0035 46.4259 19.9978C48.0914 23.1206 48.0914 23.1939 46.4347 24.4173C45.5073 25.1022 44.213 25.6621 43.5571 25.6621C40.5017 25.6621 35.4634 29.4458 32.2189 34.1779C25.0173 44.6787 23.8698 46.6014 23.8698 48.1668C23.8698 49.05 23.2633 49.7734 22.5216 49.7734C21.733 49.7734 20.955 50.8771 20.6465 52.4327C20.3574 53.8946 19.5715 55.5511 18.9005 56.1137C18.2303 56.6763 17.6813 58.6481 17.6813 60.4966C17.6813 63.8445 16.8883 65.9038 13.8321 70.4965C12.948 71.8253 12.4742 73.3211 12.7792 73.8203C13.0851 74.3186 12.6775 75.7402 11.8748 76.9779C11.0712 78.2157 10.6442 79.8338 10.9253 80.5732C11.2409 81.4037 10.584 82.4816 9.2102 83.3915C7.70375 84.3881 7.1795 85.3276 7.58794 86.2956C7.92035 87.0823 8.56042 91.3429 9.01129 95.7633C9.46128 100.184 10.0439 105.709 10.3047 108.042C10.615 110.815 10.4435 112.284 9.81048 112.284C9.27651 112.284 8.84066 111.604 8.84066 110.774C8.84066 109.45 8.66916 109.477 7.44914 110.997C6.08238 112.699 6.06469 112.696 6.44661 110.858C6.76664 109.319 6.42451 109 4.52288 109.072C1.45164 109.187 0.0698411 111.723 0.0309422 117.315L0 121.9L20.3318 121.78C37.7311 121.677 40.6724 121.468 40.7272 120.321C40.7846 119.131 40.858 119.131 41.392 120.321C42.0709 121.835 45.0874 122.393 45.0874 121.005C45.0874 120.489 45.6558 120.579 46.4135 121.214C47.1428 121.826 47.7396 121.969 47.7396 121.535C47.7396 121.099 49.6297 120.846 51.9389 120.971C56.3743 121.212 65.2467 121.254 67.8521 121.047C68.7034 120.979 69.9288 120.286 70.5768 119.506C71.6492 118.215 71.7146 118.217 71.3114 119.534C70.918 120.821 72.3714 120.992 84.5008 121.078C94.7339 121.151 98.1349 120.902 98.1446 120.079C98.1544 119.305 98.3497 119.274 98.8077 119.974C99.1648 120.52 100.78 121.159 102.396 121.393C105.03 121.773 105.283 121.624 104.84 119.953C104.567 118.927 104.338 117.787 104.332 117.419C104.325 117.051 103.709 116.749 102.963 116.749C101.88 116.749 101.797 116.388 102.552 114.963C103.072 113.981 103.298 113.177 103.053 113.177C102.808 113.177 102.015 114.282 101.289 115.633L99.9702 118.088L99.9349 115.365C99.9154 113.867 100.197 112.251 100.563 111.774C100.927 111.297 100.53 111.663 99.6785 112.588C98.1641 114.232 98.1314 114.232 98.1314 112.562C98.1314 111.623 98.4302 110.465 98.7944 109.988C99.1586 109.511 98.7617 109.877 97.9103 110.802C97.0599 111.726 96.357 112.136 96.35 111.713C96.342 111.29 95.9504 111.547 95.4792 112.284C94.7215 113.469 94.6207 113.466 94.6084 112.26C94.6013 111.509 95.2237 109.901 95.9919 108.688L97.3887 106.479L95.5499 108.588C94.5385 109.747 93.6712 111.354 93.6226 112.16C93.574 112.978 93.2451 112.638 92.8791 111.391C92.4999 110.1 92.6307 108.593 93.1885 107.819C94.0249 106.658 93.948 106.642 92.6157 107.697C91.7705 108.366 91.294 109.267 91.5583 109.699C91.8227 110.131 91.5893 111.19 91.0403 112.054C90.0952 113.538 90.0678 113.539 90.5222 112.061C90.7865 111.201 90.6177 110.498 90.1474 110.498C89.6762 110.498 89.2624 111.201 89.2288 112.061C89.1758 113.397 89.0564 113.364 88.4066 111.837C87.7038 110.186 87.634 110.219 87.4801 112.284C87.3254 114.359 87.2715 114.328 86.7172 111.837L86.1213 109.158L85.5184 112.061C84.8792 115.134 82.2721 116.171 82.1483 113.4C82.1059 112.457 81.9008 112.282 81.6311 112.959C81.3845 113.576 80.8001 113.842 80.3316 113.549C79.817 113.229 79.9346 112.458 80.6277 111.603C81.6267 110.373 81.5162 110.256 79.7835 110.707C77.1321 111.397 76.3126 108.296 78.1868 104.665C78.9392 103.207 79.5571 100.105 79.5607 97.7725C79.5633 95.44 79.9355 93.5307 80.3873 93.5307C80.8381 93.5307 81.8018 92.9315 82.5267 92.1984C83.5239 91.1911 83.7989 89.0121 83.6539 83.2683C83.531 78.4469 83.7989 75.6706 84.3868 75.6706C84.896 75.6706 86.4104 77.0601 87.7524 78.7595C95.7806 88.9228 108.799 90.9714 116.423 83.2701C120.582 79.0685 120.396 76.7931 116.131 79.7159C114.289 80.9795 111.644 81.9216 109.942 81.9216C107.296 81.9216 106.97 81.6537 106.953 79.4659C106.877 69.7428 105.12 24.2199 104.661 20.0808L104.092 14.9461H106.893C110.01 14.9461 115.845 12.234 118.501 9.55139C120.947 7.08044 120.654 5.69628 118.05 7.41889C115.373 9.19151 108.399 8.77626 102.552 6.49641C95.3934 3.70487 83.7043 6.21958 78.2567 11.7223C75.5956 14.4102 74.9892 17.918 77.5768 15.6578C81.2908 12.4135 88.7594 11.4312 95.9026 13.2484L99.7616 14.2299L96.6647 16.9768C88.5711 24.1547 82.5002 38.2759 82.0732 50.9155C81.9839 53.5633 81.5648 55.0466 80.969 54.8224C79.9541 54.4411 79.9461 53.8669 80.9212 51.3361C81.259 50.4601 81.1193 49.7734 80.6039 49.7734C80.0991 49.7734 79.4307 50.5833 79.1195 51.5728C78.8092 52.5622 78.2301 53.1686 77.8341 52.9221C77.438 52.6747 76.668 53.015 76.1225 53.6794C75.3233 54.6519 75.5611 54.8037 77.3478 54.4581C78.9904 54.1411 79.566 54.4125 79.566 55.502C79.566 57.3193 78.5926 57.6818 72.7145 58.0578C67.7177 58.3775 66.3757 57.2157 70.7253 56.337C72.184 56.0423 73.3775 55.5243 73.3775 55.185C73.3775 54.275 67.4587 51.5844 66.8372 52.2122C65.9036 53.1552 66.2634 56.0316 67.6541 58.7481C68.3958 60.1965 68.7247 61.3825 68.3852 61.3825C67.3871 61.3825 61.0483 58.2989 61.0236 57.8015C61.0112 57.5506 62.6025 55.6788 64.5598 53.641C67.5241 50.5565 68.5593 50.0064 70.7483 50.3547C74.0653 50.8834 74.1634 49.9573 70.9118 48.8125C67.944 47.7668 67.3579 44.3001 69.34 39.5082C70.4009 36.9444 70.4203 36.3782 69.4487 36.3782C68.7963 36.3782 68.0227 37.0087 67.7301 37.7794C67.3526 38.7724 66.6197 38.9948 65.2114 38.5438C63.4503 37.9794 63.361 38.0723 64.4219 39.3636C65.0797 40.1646 65.3688 41.4791 65.0629 42.2846C64.757 43.0901 64.9196 44.2519 65.4244 44.8663C66.6003 46.2969 65.0346 50.7753 63.4724 50.4494C62.8651 50.3235 62.2374 51.0825 62.0774 52.1363C61.9174 53.19 61.0651 54.7108 60.1837 55.5163C58.6551 56.9138 58.5968 56.7906 58.9221 52.8426C59.1104 50.5663 59.655 47.9659 60.1324 47.0649C60.6098 46.1629 61.0006 43.3767 61.0006 40.8719C61.0006 36.614 61.2021 36.1978 64.0948 34.4735C65.7966 33.4599 67.189 32.0864 67.189 31.4212C67.189 30.4076 67.6505 30.4094 70.0561 31.431C74.1908 33.1875 74.9865 34.8976 73.1388 38.0571C71.3689 41.0835 71.1337 42.5739 72.6702 41.0219C74.1705 39.5064 74.9432 39.6859 75.5753 41.6952C75.8918 42.7043 75.4692 44.4492 74.5728 45.8316C73.0424 48.1909 73.0469 48.2133 74.9724 47.5962C77.293 46.8523 78.826 49.4608 76.8218 50.7432C76.1199 51.1914 76.0173 51.5379 76.5849 51.546C78.4777 51.5719 79.8878 49.0089 78.7456 47.6185C78.1753 46.9238 77.5061 45.2288 77.2586 43.8509C77.011 42.473 76.3559 40.7942 75.8025 40.1199C75.2482 39.4457 74.8875 37.5124 74.9998 35.8228C75.1925 32.9357 74.9343 32.6249 70.6944 30.6407C68.2146 29.4806 66.709 28.3528 67.3499 28.1349C68.9864 27.5803 68.6097 17.6912 66.8177 14.1915C66.0495 12.6903 65.4209 10.4676 65.4209 9.25045C65.4209 6.67501 61.6893 3.3173 58.8921 3.37624C57.8639 3.39767 55.5264 3.95402 53.6991 4.61306ZM441.149 4.77201C441.149 4.9649 440.056 5.11671 438.718 5.10957C436.949 5.09975 436.626 4.87917 437.532 4.29872C438.659 3.57895 441.149 3.9049 441.149 4.77201ZM58.3484 8.695C57.8277 9.6773 57.0046 10.481 56.5184 10.481C55.949 10.481 55.972 9.8434 56.5802 8.695C57.101 7.71269 57.924 6.90898 58.4103 6.90898C58.9796 6.90898 58.9566 7.54659 58.3484 8.695ZM197.545 7.87432C197.311 8.25474 197.836 8.79591 198.711 9.07631C202.859 10.406 205.086 19.8487 205.096 36.155C205.103 44.8538 204.91 46.2013 203.661 46.2013C201.442 46.2013 196.507 49.5983 194.414 52.5667C192.082 55.8744 192.853 56.862 196.205 54.8608C197.602 54.0276 200.176 53.3454 201.924 53.3454H205.103L205.074 61.6057C205.058 66.1493 204.696 72.6058 204.269 75.9546L203.492 82.0422L206.729 85.107C210.34 88.5263 213.415 89.7247 215.061 88.3549C216.351 87.2815 231.594 78.3496 232.137 78.3496C233.056 78.3496 232.392 81.8154 231.404 82.1726C230.39 82.5396 231.407 83.6068 236.877 87.9209C238.037 88.8362 237.774 89.013 235.22 89.0371C226.937 89.1148 219.248 96.9554 219.248 105.325C219.248 115.33 225.646 122.218 235.486 122.806C240.316 123.095 241.367 122.832 245.109 120.405C250.848 116.682 252.836 113.135 252.839 106.614C252.844 100.239 251.081 96.2258 246.56 92.3171L243.159 89.3765L246.22 86.3795C249.475 83.1933 249.76 81.9556 246.813 83.8157C245.372 84.7239 244.763 84.715 243.632 83.7675C240.051 80.7661 244.182 78.5014 250.236 80.1481C254.475 81.301 259.52 85.5687 260.286 88.6487C260.875 91.0205 261.619 90.9116 265.662 87.8637C267.419 86.5394 267.416 86.5153 265.364 84.3095L263.299 82.0886L263.961 55.4377L264.622 28.7877L266.253 32.3597C267.722 35.5745 267.862 38.1366 267.657 57.9908C267.513 71.9735 267.089 80.3937 266.497 80.9902C265.842 81.6502 266.783 83.2638 269.645 86.3911C271.889 88.8442 274.083 90.8517 274.519 90.8517C274.955 90.8517 276.82 89.3649 278.661 87.5476L282.011 84.2444L284.929 87.1011C286.535 88.6728 288.248 89.9587 288.737 89.9587C290.144 89.9587 297.046 84.5533 297.046 83.4514C297.046 82.7646 296.719 82.7879 295.985 83.5291C294.732 84.7953 292.626 84.9516 292.626 83.7782C292.626 82.1172 297.691 81.8395 301.308 83.3013C304.432 84.564 306.089 86.5331 306.286 89.2148C306.409 90.8946 307.584 90.5776 309.766 88.2772C312.391 85.5097 312.524 84.5328 312.822 65.7082L312.959 57.0853L317.363 56.4736C322.698 55.7324 325.901 53.3507 328.081 48.5044C330.074 44.0688 330.272 35.5102 328.462 31.9748C325.298 25.7952 318.152 22.8867 310.916 24.8325C306.429 26.039 304.644 27.5643 301.621 32.7741C299.331 36.7229 299.307 36.9533 299.241 55.5475C299.195 68.6971 298.846 74.9339 298.08 76.3403C296.787 78.7113 297.148 78.8042 300.612 76.9949C305.618 74.3802 306.258 71.744 306.793 51.5594C307.187 36.681 307.561 32.7196 308.787 30.4067C311.426 25.4273 311.963 26.1569 311.694 34.3556C311.553 38.6608 311.382 44.9082 311.314 48.2392C311.205 53.6338 310.976 54.3768 309.216 55.0341L307.242 55.7717L309.216 56.4048C311.143 57.0219 311.191 57.3612 311.191 70.2509V83.4648L307.064 81.3537C302.261 78.8979 298.059 78.6684 294.257 80.6536L291.556 82.0645L291.87 60.744C292.15 41.6952 292.362 39.151 293.849 36.8587L295.512 34.2931L292.736 31.9873C291.208 30.7184 289.961 29.4056 289.966 29.069C289.97 28.7323 289.58 27.4124 289.1 26.1363L288.226 23.8145L281.807 28.376L275.387 32.9375L273.339 28.4064C272.213 25.9149 270.926 23.8761 270.479 23.8761C270.033 23.8761 267.632 25.1406 265.145 26.6864C260.598 29.5128 259.91 29.4539 258.763 26.1426C258.598 25.6702 255.906 25.0317 252.78 24.7245C249.654 24.4173 246.4 23.8574 245.549 23.4787C242.583 22.1616 243.981 24.7298 247.518 27.0936C252.12 30.17 252.337 31.5846 251.54 53.1757C250.997 67.8871 250.659 70.876 249.437 71.8155C248.1 72.8433 248.111 72.9371 249.572 72.963C252.723 73.0192 256.217 70.3215 258.11 66.3708C259.774 62.8988 260.091 60.2903 260.547 46.2969C260.931 34.4788 261.37 30.0977 262.198 29.7762C263.103 29.4253 263.229 34.3949 262.833 54.9608C262.561 69.0525 262.254 80.6875 262.149 80.8161C262.043 80.9447 260.051 80.1981 257.72 79.1569C254.427 77.6861 252.23 77.345 247.859 77.6263L242.234 77.9879L242.126 60.9779C242.067 51.6228 241.888 39.4591 241.728 33.9484C241.561 28.2295 241.797 23.702 242.278 23.4028C242.74 23.1144 243.118 22.3196 243.118 21.6383C243.118 20.3612 234.607 8.46638 233.34 7.97077C232.587 7.67697 221.765 15.2863 216.643 19.712L213.595 22.3455L212.352 17.8314C210.734 11.9572 207.283 8.61016 202.009 7.80199C199.787 7.46086 197.777 7.4939 197.545 7.87432ZM434.222 9.79518C434.613 10.4176 434.939 11.2526 434.947 11.65C434.954 12.0473 435.392 12.1036 435.919 11.7741C438.01 10.4685 436.175 15.297 433.944 16.9732C431.203 19.0325 428.915 18.3359 430.689 15.9828C431.305 15.1666 431.47 14.7871 431.058 15.138C429.76 16.2427 427.001 14.078 427.074 12.0125C427.112 10.9248 427.344 10.5373 427.589 11.1508C427.835 11.7652 428.587 12.267 429.26 12.267C429.952 12.267 430.276 11.7178 430.005 11.0052C429.727 10.2729 430.203 9.53799 431.139 9.25134C432.025 8.98076 431.656 8.88967 430.319 9.04952C428.774 9.23437 427.888 8.92003 427.888 8.18687C427.888 6.73931 433.139 8.07257 434.222 9.79518ZM388.513 12.2117C388.795 12.6716 392.274 14.0816 396.245 15.3443C401.464 17.0035 403.638 17.3536 404.093 16.6097C404.479 15.9793 405.786 15.7944 407.465 16.1338C409.139 16.4713 410.207 16.3222 410.207 15.7498C410.207 14.5888 415.489 14.9577 417.228 16.2391C418.213 16.9642 418.336 16.8982 417.768 15.9462C417.276 15.122 417.405 14.8398 418.156 15.0925C418.774 15.3006 419.388 16.8499 419.519 18.5351C419.739 21.3614 419.661 21.4668 418.518 19.888C417.433 18.3895 417.279 18.3645 417.279 19.687C417.279 21.4838 413.748 21.7409 410.82 20.1576C409.763 19.5861 406.706 19.0083 404.027 18.8735C394.801 18.41 392.417 18.0001 391.649 16.7455C391.028 15.7292 390.52 15.9069 389.001 17.6724C387.305 19.6433 387.213 19.6665 388.056 17.9073C389.468 14.9559 389.193 13.5315 387 12.4635C385.49 11.7285 385.371 11.4803 386.506 11.4347C387.328 11.4008 388.232 11.7509 388.513 12.2117ZM61.6433 14.053C63.2125 15.2997 63.4742 15.8391 62.5088 15.8391C61.7485 15.8391 60.502 15.2077 59.7372 14.4361C57.0479 11.7187 58.3705 11.4526 61.6433 14.053ZM229.877 17.3536C232.396 21.3668 232.509 21.9794 232.509 31.6105C232.509 40.6459 232.334 41.7675 230.8 42.598C228.397 43.8965 226.673 43.75 225.048 42.1087C223.869 40.9183 223.703 38.7304 223.993 28.267C224.301 17.1339 225.064 13.16 226.89 13.16C227.085 13.16 228.429 15.047 229.877 17.3536ZM386.779 14.9461C387.794 16.6053 386.338 17.6403 384.564 16.5213C383.338 15.7489 383.167 15.264 383.941 14.7674C385.389 13.8378 386.129 13.8843 386.779 14.9461ZM438.479 15.414C437.864 16.1623 437.179 16.591 436.956 16.3668C436.343 15.7471 437.589 14.053 438.657 14.053C439.244 14.053 439.177 14.5656 438.479 15.414ZM103.74 23.6529C104.799 39.8029 104.634 41.6604 102.052 42.6516C98.836 43.8867 94.3299 43.7304 92.4168 42.3167C91.1419 41.3746 90.8997 40.3959 91.3099 37.8428C91.5981 36.0451 92.4557 33.9466 93.2151 33.1795C93.9736 32.4133 94.5951 30.3879 94.5951 28.6796C94.5951 25.53 96.0936 21.857 99.194 17.4018C102.254 13.0073 103.12 14.1995 103.74 23.6529ZM430.319 19.17C431.9 20.8462 433.193 22.4562 433.193 22.7492C433.193 23.0412 432.931 23.0162 432.611 22.6929C432.291 22.3696 431.5 22.5491 430.854 23.0912C429.288 24.4039 427.008 23.4341 426.991 21.448C426.979 20.096 426.849 20.0585 426.127 21.1971C425.658 21.9338 425.491 23.2358 425.755 24.0913C426.018 24.9468 425.97 26.0774 425.647 26.6052C424.667 28.2081 421.7 24.7495 421.7 22.0044C421.7 20.6363 421.301 19.2673 420.813 18.9628C420.222 18.594 420.229 17.8412 420.831 16.7035C422.158 14.1986 426.761 15.3952 430.319 19.17ZM222.693 42.406C222.463 75.0982 221.957 82.7602 219.943 84.0363C218.733 84.8043 217.912 84.4971 215.854 82.5048L213.278 80.0133L213.524 51.8541C213.659 36.3666 214.108 23.3591 214.52 22.9492C215.402 22.0723 222.221 16.8821 222.608 16.7928C222.754 16.7598 222.792 28.2858 222.693 42.406ZM57.9868 20.0746C57.3733 20.6935 55.6962 19.4352 55.6962 18.3564C55.6962 17.7635 56.2036 17.8314 57.0435 18.5359C57.7843 19.1575 58.2087 19.8496 57.9868 20.0746ZM63.0251 19.5093C62.5008 20.0389 61.3339 20.28 60.4312 20.0451C59.0804 19.6942 59.1423 19.5995 60.7796 19.5147C61.8731 19.4575 62.7687 18.9423 62.7687 18.3689C62.7687 17.7965 63.041 17.6019 63.3725 17.9376C63.7049 18.2734 63.5485 18.9807 63.0251 19.5093ZM54.8121 21.1971C54.8121 21.6883 54.6371 22.0901 54.4222 22.0901C54.2074 22.0901 53.7866 21.6883 53.486 21.1971C53.1854 20.706 53.3614 20.3041 53.8759 20.3041C54.3904 20.3041 54.8121 20.706 54.8121 21.1971ZM61.8846 22.0901C61.8846 22.5813 61.4868 22.9831 61.0006 22.9831C60.5143 22.9831 60.1165 22.5813 60.1165 22.0901C60.1165 21.599 60.5143 21.1971 61.0006 21.1971C61.4868 21.1971 61.8846 21.599 61.8846 22.0901ZM129.074 22.4125C126.615 23.2207 125.468 24.4378 123.487 28.3412L120.995 33.2527L121.157 56.4709C121.365 86.1599 121.373 86.0018 119.728 87.6628C118.465 88.938 118.503 89.0657 120.142 89.0657C121.297 89.0657 123.166 87.3806 125.34 84.3774L128.735 79.6891L128.654 68.7382L128.572 57.7863L131.399 55.0189L134.226 52.2506L134.743 57.0398C135.43 63.3962 135.826 85.4963 135.254 85.4946C135.006 85.4946 134.306 84.69 133.699 83.7077C132.561 81.8663 130.842 81.2885 130.842 82.7459C130.842 83.1995 131.907 84.8489 133.208 86.4117C135.497 89.1586 135.766 89.2416 141.284 88.8862C146.197 88.5701 147.288 88.1727 149.109 86.0339C151.151 83.6371 151.221 83.0772 151.099 70.3125C151.03 63.0327 151.243 56.6361 151.572 56.0976C151.902 55.5592 151.531 54.8706 150.748 54.567C149.966 54.2634 148.304 51.9559 147.056 49.4385C142.787 40.8335 143.03 40.8415 135.38 49.0616L128.632 56.3129L127.891 45.6762C126.738 29.1288 126.81 28.2322 129.489 25.905C132.573 23.226 137.327 23.1742 139.148 25.8006C140.055 27.1079 140.224 28.2126 139.675 29.2485C138.616 31.2461 140.571 34.0037 142.74 33.5733C145.517 33.0223 146.5 30.4478 144.978 27.708C142.372 23.0171 134.852 20.5131 129.074 22.4125ZM170.48 22.8429C167.588 23.9967 161.577 32.891 159.353 39.3109C157.63 44.2814 157.027 48.1025 156.714 56.0244C156.034 73.247 159.274 83.5487 167.031 88.8291C172.691 92.6824 181.951 90.3865 185.18 84.3301C187.096 80.7366 186.557 79.0953 184.232 81.4439C182.21 83.4871 179.104 84.6007 175.43 84.6007H172.393V73.5113C172.393 67.412 172.19 61.8861 171.944 61.2324C171.634 60.4127 172.335 60.0126 174.2 59.9456C178.028 59.8072 180.944 57.9944 182.179 54.9832C183.493 51.7773 182.682 50.7673 180.438 52.8185C179.358 53.8062 177.68 54.2607 175.791 54.0777L172.835 53.7919L172.589 42.6213L172.343 31.4497L176.187 31.7587C179.329 32.0114 180.546 31.631 182.843 29.6789C184.652 28.1411 185.654 26.4757 185.654 25.0058V22.7224L183.486 25.0853C180.53 28.3072 177.015 28.2224 174.161 24.8602C172.671 23.1055 171.471 22.4482 170.48 22.8429ZM51.9849 24.8174C52.7982 26.1328 53.6708 26.4953 55.0703 26.0979C56.5378 25.6827 56.7049 25.7657 55.7422 26.4355C54.699 27.1606 54.9041 27.5285 56.8472 28.4233C58.9743 29.4021 60.3004 32.8062 58.5544 32.8062C57.5191 32.8062 48.6236 24.745 48.6236 23.8065C48.6236 22.2946 50.8365 22.9599 51.9849 24.8174ZM55.6962 23.8761C55.6962 24.3673 55.5211 24.7691 55.3063 24.7691C55.0915 24.7691 54.6707 24.3673 54.3701 23.8761C54.0695 23.385 54.2454 22.9831 54.76 22.9831C55.2745 22.9831 55.6962 23.385 55.6962 23.8761ZM58.7904 23.8761C59.091 24.3673 58.9151 24.7691 58.4005 24.7691C57.886 24.7691 57.4643 24.3673 57.4643 23.8761C57.4643 23.385 57.6394 22.9831 57.8542 22.9831C58.069 22.9831 58.4898 23.385 58.7904 23.8761ZM445.348 23.5984C444.498 23.8234 443.801 24.3932 443.801 24.8665C443.801 25.3594 444.622 25.2808 445.731 24.6816C447.365 23.7984 447.895 23.9306 449.188 25.5434C450.028 26.5909 451.149 27.4482 451.678 27.4482C452.209 27.4482 452.645 27.9509 452.647 28.5644C452.651 29.1788 453.844 30.3656 455.299 31.2015C456.756 32.0382 457.946 32.5919 457.946 32.4311C457.946 30.913 448.4 22.6322 447.175 23.0867C447.021 23.1439 446.199 23.3743 445.348 23.5984ZM343.401 26.7784C340.751 29.9504 337.764 35.9951 337.733 38.2491C337.722 39.0323 336.966 40.3557 336.054 41.1898C335.142 42.0247 333.732 44.8341 332.923 47.4346C331.737 51.2441 330.9 52.4077 328.615 53.424C326.842 54.2116 325.672 55.4386 325.496 56.6942C325.173 58.991 325.559 59.1357 327.96 57.6211C328.904 57.0255 329.907 56.7719 330.189 57.0558C331.093 57.9703 332.494 68.6364 331.94 70.3974C331.124 72.9933 332.722 72.4236 334.426 69.5106C335.671 67.3799 335.848 65.526 335.424 59.0178C335.142 54.6697 335.302 49.5055 335.782 47.5408C336.439 44.8431 336.674 48.8411 336.741 63.8829C336.812 80.1151 336.58 84.2836 335.48 86.4313C333.1 91.0794 327.989 88.7165 327.989 82.9673C327.989 77.0851 320.746 74.1623 317.723 78.8238C315.9 81.6341 316.461 82.3065 319.472 80.9206C321.424 80.0222 322.067 80.1026 323.514 81.426C324.461 82.2913 325.49 84.1667 325.801 85.5937C326.815 90.2579 332.706 91.4098 338.557 88.0888C344.842 84.5203 345.266 82.8772 344.944 63.2801C344.625 43.8134 345.852 31.2568 348.511 26.7784L350.234 23.8761H348.03C346.632 23.8761 344.941 24.9352 343.401 26.7784ZM362.141 26.5721C356.805 29.9906 354.656 34.6396 353.913 44.3778C353.612 48.3276 353.025 51.5594 352.612 51.5594C352.197 51.5594 351.858 52.3631 351.858 53.3454C351.858 54.3277 352.302 55.1314 352.845 55.1314C353.528 55.1314 353.726 57.8238 353.484 63.8731C353.207 70.8367 352.743 73.2898 351.202 75.9287L349.265 79.2426L351.225 79.239C354.377 79.2337 358.934 75.8804 360.31 72.554C361.01 70.8617 361.583 67.4549 361.583 64.9831C361.583 60.568 361.631 60.4895 364.281 60.4895H366.979L366.777 71.9869L366.574 83.4844L363.665 82.2565C358.317 79.9999 350.637 81.3153 346.366 85.2195C344.575 86.8564 344.137 88.9326 345.891 87.469C349.394 84.5453 359.642 85.2249 364.738 88.7192L368.006 90.9589L370.541 88.5058C373.944 85.2124 373.875 83.5907 370.36 84.3006L367.645 84.8498L368.015 73.1041C368.218 66.645 368.558 61.1833 368.771 60.969C368.983 60.7538 370.101 61.061 371.255 61.6504C374.27 63.1899 375.876 68.6596 375.579 76.3743L375.328 82.8834L380.448 86.9859L385.569 91.0893L388.605 88.1164C391.902 84.8882 392.548 82.6093 390.094 82.8611C385.174 83.3665 384.799 83.0388 384.169 77.6799C383.268 69.9982 382.031 65.7823 379.551 61.9343L377.317 58.4686L379.541 56.5763C383.191 53.4731 384.847 49.0447 385.26 41.2898L385.641 34.1457L382.076 30.0647C376.243 23.3877 369.073 22.1321 362.141 26.5721ZM67.494 26.147C67.2058 26.9052 66.7806 27.3339 66.549 27.0999C66.3174 26.8659 66.3898 26.2453 66.7108 25.722C67.5825 24.2967 68.0917 24.5736 67.494 26.147ZM48.6236 26.5552C48.6236 27.0463 48.202 27.4482 47.6874 27.4482C47.1729 27.4482 47.0385 27.9179 47.3904 28.493C47.8253 29.2029 47.5407 29.3485 46.5028 28.9457C45.0273 28.3742 39.2004 30.7291 40.0261 31.5631C40.2507 31.79 42.0763 31.6024 44.0831 31.147C47.9783 30.2629 55.7554 32.048 58.6755 34.4958C61.4886 36.8542 59.6223 50.1011 55.8597 54.4831C54.1694 56.4513 53.3375 55.6342 52.6851 51.3638C52.4066 49.5376 52.1272 47.7293 52.0644 47.3453C52.0017 46.9622 52.0353 46.4469 52.1378 46.2013C52.7151 44.827 52.533 37.2712 51.923 37.2712C51.5243 37.2712 51.2626 36.7694 51.3422 36.155C51.8178 32.4526 51.3041 31.9132 47.2976 31.9132C45.1095 31.9132 43.3193 32.3151 43.3193 32.8062C43.3193 33.2974 44.4332 33.6992 45.7946 33.6992C48.2674 33.6992 50.3918 35.0843 50.3918 36.6953C50.3918 37.1641 49.5342 36.7828 48.4866 35.8469L46.5815 34.1457L48.1418 36.5935C48.9994 37.9401 50.1168 38.7822 50.6252 38.4652C51.1759 38.1214 51.2838 38.3214 50.8913 38.9626C50.3829 39.7949 49.9329 39.7842 48.8977 38.9162C48.163 38.3 46.905 37.7035 46.1032 37.59C45.2005 37.4623 45.5719 38.0714 47.0765 39.1885C49.2566 40.8058 50.6773 43.4651 48.7032 42.2328C47.7095 41.6122 45.0874 42.5596 45.0874 43.5393C45.0874 43.9349 46.082 44.1474 47.2976 44.0126C49.0613 43.817 49.5077 44.1662 49.5077 45.7414C49.5077 46.8907 48.6767 48.14 47.5186 48.733C45.6992 49.6644 45.6806 49.7439 47.2976 49.6599C50.4616 49.4947 50.8338 49.7421 50.8338 52.0059C50.8338 53.5213 50.3458 54.2384 49.3141 54.2384C48.3301 54.2384 47.9739 54.7081 48.3018 55.5726C48.5812 56.3066 49.2062 56.6593 49.6925 56.3557C50.1778 56.053 49.8914 56.8585 49.056 58.1471C48.1966 59.4714 47.9509 60.4895 48.491 60.4895C49.0162 60.4895 49.9241 59.5866 50.5085 58.4829C51.2087 57.1612 51.7037 56.8737 51.9566 57.6416C52.1679 58.2819 51.6418 59.5875 50.7878 60.5412C49.9259 61.503 49.6792 62.2755 50.2344 62.2755C50.7852 62.2755 51.8867 61.2708 52.6833 60.0429C54.1402 57.797 57.177 56.8362 56.2125 58.9267C55.9287 59.5411 55.4522 60.7457 55.1516 61.6057C54.8519 62.4657 54.1508 63.1685 53.5956 63.1685C53.0396 63.1685 52.0865 63.9749 51.4774 64.9598C50.3838 66.7298 50.3281 66.7235 46.9112 64.4392C43.1928 61.9531 42.1947 60.376 42.9992 58.2569C43.5809 56.7263 41.9613 56.4182 41.0613 57.8881C39.8838 59.8134 38.8114 57.2666 39.7503 54.7724C40.9305 51.6371 40.9137 50.4065 39.7025 51.1629C39.051 51.5701 38.8353 50.6423 39.0395 48.3133C39.2623 45.7637 39.0271 44.9288 38.1404 45.1172C37.2457 45.3074 37.0238 44.4707 37.2722 41.8434C37.4552 39.9029 37.2572 38.5322 36.8311 38.7974C36.4005 39.0662 36.3431 37.9678 36.702 36.3175C37.3005 33.5635 37.2431 33.4581 35.8878 34.828C34.4079 36.322 34.3928 40.3164 35.8533 43.9009C36.4094 45.2646 36.2564 45.503 35.1125 45.0592C33.9128 44.5948 33.8032 44.8538 34.46 46.5987C34.8941 47.7525 35.0099 48.9393 34.7164 49.2349C34.4238 49.5314 34.7279 49.7734 35.3918 49.7734C36.2078 49.7734 36.3095 50.0672 35.7048 50.678C34.1922 52.2059 29.252 50.6056 27.4069 47.9891L25.6839 45.5441L30.1025 39.9824C32.5328 36.923 35.1036 33.2831 35.8144 31.8936C37.5083 28.5859 48.6236 23.9529 48.6236 26.5552ZM317.782 26.2167C321.017 27.4705 323.068 35.6335 320.739 37.9856C319.595 39.1412 316.612 39.3886 314.358 38.5152C313.27 38.0937 312.959 36.6068 312.959 31.8176C312.959 26.3453 313.148 25.6621 314.655 25.6621C315.588 25.6621 316.995 25.9122 317.782 26.2167ZM375.221 27.6714C375.937 28.7761 376.79 31.3685 377.115 33.4322C377.671 36.9462 377.562 37.2203 375.392 37.7704C374.118 38.0937 372.071 38.1026 370.842 37.7919C368.766 37.265 368.637 36.9257 369.021 33.0062C369.247 30.6862 369.458 28.084 369.487 27.2249C369.566 24.8906 373.624 25.2067 375.221 27.6714ZM411.975 27.8947C411.35 28.6555 410.657 29.0931 410.434 28.868C409.947 28.376 412.267 25.697 412.764 26.1774C412.954 26.3614 412.6 27.1338 411.975 27.8947ZM61.0006 27.4482C61.0006 27.9393 60.6266 28.3412 60.1687 28.3412C59.7107 28.3412 59.091 27.9393 58.7904 27.4482C58.4898 26.957 58.8647 26.5552 59.6223 26.5552C60.38 26.5552 61.0006 26.957 61.0006 27.4482ZM64.0948 27.4482C64.3954 27.9393 64.2433 28.3412 63.7571 28.3412C63.2709 28.3412 62.6273 27.9393 62.3267 27.4482C62.0261 26.957 62.1782 26.5552 62.6644 26.5552C63.1506 26.5552 63.7942 26.957 64.0948 27.4482ZM367.772 41.7363C367.772 57.8453 367.869 57.5166 363.454 56.3236C361.361 55.7574 361.349 55.6815 361.811 46.2888C362.271 36.9462 364.978 26.5552 366.951 26.5552C367.423 26.5552 367.772 32.9946 367.772 41.7363ZM170.439 39.1376L170.183 47.5408L167.737 47.8248C166.391 47.9811 165.52 48.4847 165.801 48.9446C166.082 49.4036 167.283 49.534 168.469 49.2331C170.608 48.691 170.625 48.7375 170.62 55.2582L170.615 61.829L167.059 61.9647L163.505 62.1004L164.015 56.1601C164.962 45.1226 166.127 38.2446 168.097 32.0543C169.689 27.0526 170.712 30.1486 170.439 39.1376ZM284.233 44.7475C283.494 62.3683 282.959 76.811 282.929 79.8811C282.911 81.7573 282.325 83.0629 281.239 83.6505C279.642 84.514 279.59 84.0649 279.907 72.2959C280.088 65.5573 280.436 55.0198 280.678 48.8803C280.92 42.7409 281.135 35.9094 281.155 33.6992L281.192 29.6807L282.939 31.7989C284.53 33.7287 284.646 34.8842 284.233 44.7475ZM412.855 39.6895C412.343 47.3497 410.941 49.1349 405.786 48.6973C402.922 48.4535 402.701 48.2222 402.816 45.5923C402.884 44.0295 404.217 39.9529 405.778 36.5318L408.615 30.3129L410.958 31.6703C413.236 32.9902 413.289 33.2134 412.855 39.6895ZM438.637 31.9132C438.637 33.1411 438.837 33.6438 439.082 33.0295C439.328 32.416 439.328 31.4113 439.082 30.7969C438.837 30.1834 438.637 30.6853 438.637 31.9132ZM63.6528 31.3577C63.6528 31.5426 63.056 32.1945 62.3267 32.8062C61.2402 33.7171 61.0006 33.6555 61.0006 32.4687C61.0006 31.6721 61.5973 31.0202 62.3267 31.0202C63.056 31.0202 63.6528 31.172 63.6528 31.3577ZM66.305 31.414C66.305 31.631 65.9071 32.0561 65.4209 32.3597C64.9347 32.6633 64.5368 32.4856 64.5368 31.9659C64.5368 31.4462 64.9347 31.0202 65.4209 31.0202C65.9071 31.0202 66.305 31.197 66.305 31.414ZM279.291 52.0059C278.925 63.3024 278.592 75.3071 278.553 78.6818C278.488 84.2336 278.344 84.7051 277.049 83.6192C275.776 82.5512 275.658 79.7043 275.984 57.9569C276.324 35.2807 276.472 33.4063 278.014 32.2677C278.929 31.5917 279.741 31.1354 279.818 31.2524C279.895 31.3702 279.658 40.7093 279.291 52.0059ZM435.222 36.8247C435.551 39.6975 435.46 40.6531 434.967 39.5038C434.235 37.7972 433.734 31.2131 434.394 31.9873C434.569 32.1927 434.941 34.369 435.222 36.8247ZM452.289 32.6598C452.028 33.0866 452.386 34.1984 453.084 35.1307C454.312 36.7694 454.354 36.7604 454.382 34.8682C454.412 32.7794 453.078 31.372 452.289 32.6598ZM448.836 33.5045C446.998 33.901 447.229 35.3861 449.337 36.7292C451.214 37.9258 452.261 36.8489 451.234 34.778C450.776 33.8537 449.748 33.3081 448.836 33.5045ZM322.263 41.6372C321.741 44.0402 321.395 44.2885 319.193 43.8438C317.828 43.5678 315.867 43.7991 314.835 44.3573C313.09 45.3003 312.959 45.1538 312.959 42.2605C312.959 39.1867 312.991 39.1609 315.633 40.0914C317.721 40.8272 318.737 40.7406 320.274 39.6958C322.741 38.0205 322.996 38.2696 322.263 41.6372ZM375.387 39.0189C377.344 38.2669 377.615 38.35 377.155 39.56C376.856 40.3459 376.612 41.4952 376.612 42.114C376.612 42.8436 375.212 43.2606 372.634 43.2999C368.825 43.358 368.656 43.2517 368.656 40.7843C368.656 38.4054 368.825 38.2732 370.866 39.0573C372.284 39.602 373.904 39.5877 375.387 39.0189ZM437.613 42.6293C437.613 43.1204 437.438 43.5223 437.223 43.5223C437.008 43.5223 436.587 43.1204 436.287 42.6293C435.986 42.1381 436.162 41.7363 436.677 41.7363C437.191 41.7363 437.613 42.1381 437.613 42.6293ZM100.193 44.5314C104.094 43.7956 104.158 43.8232 104.677 46.4442C104.967 47.907 105.204 50.469 105.204 52.138C105.204 55.1707 105.203 55.1716 102.99 53.7071C100.51 52.0657 94.7206 51.8442 92.0472 53.2891C91.0818 53.8106 90.066 54.2384 89.7911 54.2384C89.1413 54.2384 89.1678 50.1984 89.8441 46.0665L90.3781 42.8061L93.307 44.042C95.3969 44.9243 97.3693 45.0645 100.193 44.5314ZM232.334 53.7517C232.187 53.8615 230.376 53.7731 228.31 53.5544L224.553 53.1579V48.5196V43.8813L227.543 44.2331C229.411 44.4537 230.82 44.1349 231.3 43.3848C231.789 42.6186 232.164 44.243 232.334 47.8677C232.479 50.9941 232.479 53.6419 232.334 53.7517ZM444.004 43.6893C444.444 45.0243 446.453 45.7593 446.453 44.585C446.453 44.1054 445.823 43.4696 445.053 43.1705C444.193 42.8374 443.788 43.0365 444.004 43.6893ZM319.952 45.2396C320.989 45.9022 321.01 46.496 320.078 48.7678C318.805 51.8728 317.781 52.8658 314.949 53.7428C313.094 54.317 312.959 54.0919 312.959 50.4163C312.959 47.2104 313.331 46.2933 314.949 45.5048C317.446 44.2885 318.387 44.2385 319.952 45.2396ZM376.612 45.7834C376.612 49.626 372.07 56.0244 369.343 56.0244C368.506 56.0244 368.416 45.8477 369.245 45.0109C369.569 44.6832 371.359 44.4153 373.224 44.4153C375.678 44.4153 376.612 44.7922 376.612 45.7834ZM140.9 49C141.205 50.5396 141.688 58.2757 141.974 66.1904C142.529 81.5644 141.912 85.4937 138.941 85.4937C137.449 85.4937 137.212 84.5194 136.716 76.3403C135.564 57.3541 135.76 50.853 137.561 48.4312C139.716 45.5307 140.23 45.6182 140.9 49ZM467.529 49.3688C468.094 50.6199 468.555 52.5694 468.555 53.7008C468.555 56.8683 466.745 61.3825 465.475 61.3825C464.849 61.3825 463.198 61.9826 461.804 62.7166C460.412 63.4498 459.839 64.0526 460.531 64.0561C461.405 64.0597 461.155 64.7455 459.715 66.294C457.503 68.6712 455.208 69.4445 457.062 67.187C458.542 65.3867 457.697 65.5001 453.757 67.6335C451.943 68.6158 449.855 69.4258 449.119 69.4329C448.383 69.441 447.183 69.8571 446.453 70.359C445.502 71.0144 446.126 71.1055 448.664 70.684C450.609 70.3608 452.578 69.7428 453.04 69.3115C454.73 67.7317 455.52 68.5801 453.971 70.3099C453.092 71.2904 450.245 72.7701 447.645 73.5979C445.045 74.4266 442.917 75.4464 442.917 75.8653C442.917 76.2841 443.686 76.2109 444.627 75.7018C445.568 75.1937 446.527 74.7776 446.759 74.7776C447.429 74.7776 446.878 77.3334 446.042 78.1005C445.627 78.4827 445.572 78.2942 445.922 77.6799C446.798 76.1412 446.065 76.2725 441.968 78.3835C440.025 79.3846 438.052 79.9633 437.583 79.6704C437.113 79.3775 436.729 79.5632 436.729 80.0829C436.729 80.6027 437.772 81.0286 439.047 81.0286C441.008 81.0286 441.196 81.2358 440.265 82.3681C439.633 83.137 437.705 83.7077 435.737 83.7077C432.898 83.7077 432.308 83.4005 432.308 81.9216C432.308 80.9393 432.806 80.1035 433.414 80.0651C434.298 80.0088 434.298 79.9043 433.414 79.5444C431.822 78.8952 432.054 77.6549 433.856 77.1789C435.02 76.8717 434.91 76.7449 433.414 76.6672C431.265 76.5555 430.592 74.7776 432.698 74.7776C433.399 74.7776 434.165 74.4623 434.4 74.0775C434.636 73.6926 433.803 73.3916 432.55 73.4077C431.26 73.4247 430.108 72.8567 429.896 72.0986C429.574 70.9448 429.646 70.9385 430.412 72.0521C431.131 73.0951 431.416 72.8915 431.885 71.0011C432.604 68.1104 435.42 65.3242 436.251 66.6825C436.571 67.2058 437.835 67.6335 439.059 67.6335C441.684 67.6335 446.884 62.8086 445.933 61.2548C445.551 60.6297 445.68 60.4528 446.255 60.8127C446.783 61.1422 447.465 61.0029 447.771 60.5037C448.076 60.0045 449.144 59.5964 450.143 59.5964C454.479 59.5964 459.341 55.4663 460.941 50.4217C461.362 49.092 464.027 47.3631 465.982 47.1506C466.269 47.1202 466.965 48.1177 467.529 49.3688ZM411.975 56.6718V64.0168L409.707 63.1461C408.46 62.6675 405.874 62.2755 403.961 62.2755C400.529 62.2755 400.482 62.2308 400.492 58.9267C400.497 57.0853 400.733 54.1714 401.016 52.4524L401.531 49.3269H406.754H411.976L411.975 56.6718ZM26.6077 52.806C27.5245 53.983 30.2669 55.6699 32.7025 56.5549C37.3456 58.2409 38.1704 59.191 35.5837 59.8742C34.3548 60.1983 34.4238 60.3037 35.9178 60.3859C36.9522 60.443 38.258 61.0494 38.8202 61.7325C39.3816 62.4166 41.0242 63.4712 42.4705 64.0758C44.5419 64.9429 45.0609 65.6778 44.9203 67.5469C44.8213 68.8507 45.0414 70.4081 45.4083 71.0082C45.8256 71.6896 45.5559 72.0986 44.6904 72.0986C43.8957 72.0986 42.6924 70.5528 41.8703 68.4756C40.8518 65.9047 40.0473 65.0036 39.0996 65.3706C37.9874 65.802 37.9539 65.6582 38.8989 64.508C39.8537 63.3453 39.8042 63.2167 38.5815 63.69C36.7285 64.408 36.7577 64.8732 38.7972 67.1299C40.751 69.29 42.2822 73.5533 40.7652 72.6067C40.2286 72.2709 39.0916 71.8414 38.2394 71.6503C37.3863 71.4592 35.3883 70.9055 33.7987 70.4188C32.2092 69.9321 31.1174 69.8759 31.3729 70.2938C31.6284 70.7117 31.3375 71.2234 30.7266 71.4306C30.1157 71.6387 31.2075 72.1137 33.1525 72.4861L36.6888 73.163L32.2684 74.8624C29.8372 75.7974 27.1514 76.5627 26.301 76.5627C25.4505 76.5636 24.7539 77.0119 24.7539 77.5611C24.7539 78.1272 25.5389 78.3505 26.5724 78.0772C28.0779 77.6799 28.2088 77.8192 27.3309 78.8881C26.7474 79.598 26.064 79.9704 25.8121 79.7168C25.5601 79.4623 24.7989 80.0553 24.12 81.034C23.441 82.0136 22.4111 82.8236 21.8303 82.8343C20.5952 82.8575 15.9777 86.3376 17.142 86.367C17.5752 86.3777 19.7032 85.4919 21.87 84.3988C25.4646 82.5851 25.9031 82.5378 26.8615 83.8613C27.4396 84.6596 27.7623 86.893 27.5802 88.8246C27.2867 91.9323 26.8818 92.4707 24.0528 93.504C21.7153 94.3577 20.7667 94.3979 20.5218 93.654C20.3371 93.095 19.636 92.6377 18.9641 92.6377C17.1703 92.6377 11.4929 89.7569 11.4929 88.8478C11.4929 88.4183 11.1773 88.2638 10.7927 88.5049C10.4072 88.7451 10.0271 88.0691 9.94752 87.0029C9.79104 84.9061 13.7437 80.1356 15.6365 80.1356C16.2748 80.1356 16.7973 79.7159 16.7973 79.2033C16.7973 78.0737 13.9612 78.4416 13.0532 79.6891C12.6731 80.2115 12.4096 80.0267 12.4185 79.2426C12.4406 77.1905 14.3086 75.175 17.2393 74.04L19.8915 73.013L17.0183 73.5193C14.7621 73.9176 14.1451 73.7185 14.1451 72.5942C14.1451 70.6367 18.385 69.0489 19.9993 70.4027C20.6695 70.9644 21.2114 71.0734 21.2043 70.6447C21.1849 69.5321 19.7978 67.4674 19.1294 67.5576C16.9272 67.855 16.6761 67.4897 17.852 65.701C19.2983 63.5016 21.7807 62.8256 22.7647 64.3642C23.1289 64.934 24.2234 66.0038 25.1959 66.7405C26.873 68.0113 26.896 67.9907 25.6379 66.3547C23.3402 63.3658 20.2858 60.4895 19.4097 60.4895C18.2462 60.4895 18.3514 59.2767 19.6263 57.989C21.1663 56.4334 21.7357 56.6165 24.8131 59.6545C28.7719 63.5641 29.2732 62.0281 25.3594 57.9792C22.2626 54.776 21.3891 52.5765 22.6913 51.262C23.7611 50.1815 24.9192 50.6378 26.6077 52.806ZM459.715 51.6121C459.715 52.1318 459.29 52.2925 458.771 51.9693C458.214 51.621 457.943 52.0077 458.108 52.9123C458.262 53.7553 457.394 55.1841 456.178 56.0878C453.484 58.089 448.537 59.4616 449.462 57.9506C449.86 57.2996 449.593 57.1273 448.715 57.4675C447.963 57.7595 447.567 58.357 447.837 58.7972C448.106 59.2366 447.109 59.5964 445.622 59.5964C441.596 59.5964 442.267 57.4577 446.896 55.5297C449.084 54.6179 450.874 53.5767 450.874 53.215C450.874 52.8533 452.565 52.1747 454.631 51.7076C459.768 50.5458 459.715 50.5467 459.715 51.6121ZM36.8673 53.674C37.2042 54.0151 36.1778 54.1937 34.5864 54.0705C32.9942 53.9482 31.5002 53.5347 31.2659 53.1525C30.7496 52.3086 35.9992 52.798 36.8673 53.674ZM102.331 55.1216L105.204 56.8915V68.9596C105.204 76.7913 104.878 81.0286 104.276 81.0286C102.609 81.0286 98.6194 78.5693 96.4074 76.1778C94.3414 73.9444 94.3078 73.7247 95.6604 71.4047C96.4729 70.0125 97.0944 66.912 97.1138 64.1499C97.1439 59.9349 96.8185 59.0151 94.535 56.8603C92.7836 55.2082 92.2895 54.2446 93.0374 53.9401C95.5198 52.9301 99.6184 53.4508 102.331 55.1216ZM456.065 54.9081C454.966 56.3245 454.997 56.3557 456.399 55.2457C457.872 54.0785 458.34 53.3454 457.612 53.3454C457.429 53.3454 456.733 54.0482 456.065 54.9081ZM70.7253 54.5893C70.7253 54.7822 70.1286 55.1716 69.3992 55.4547C68.6699 55.7369 68.0731 55.5788 68.0731 55.1037C68.0731 54.6277 68.6699 54.2384 69.3992 54.2384C70.1286 54.2384 70.7253 54.3965 70.7253 54.5893ZM231.449 55.31C232.152 56.0208 232.507 59.8554 232.502 66.6959L232.494 77.0101L228.082 79.3685L223.669 81.7279L223.677 72.671C223.68 67.6907 223.935 61.5057 224.242 58.9267C224.783 54.3786 224.883 54.2384 227.593 54.2384C229.131 54.2384 230.865 54.7206 231.449 55.31ZM451.645 55.8012C450.546 57.2175 450.577 57.2487 451.979 56.1387C452.829 55.4645 453.526 54.7608 453.526 54.576C453.526 53.841 452.8 54.3134 451.645 55.8012ZM464.122 56.0494C463.594 57.0451 462.784 57.6247 462.323 57.3362C461.86 57.0478 461.483 57.238 461.483 57.7577C461.483 58.2775 461.11 58.7034 460.656 58.7034C459.083 58.7034 455.051 60.5412 455.54 61.036C456.437 61.9424 463.967 58.0096 464.975 56.1084C465.519 55.0796 465.766 54.2384 465.523 54.2384C465.28 54.2384 464.649 55.0537 464.122 56.0494ZM57.4643 56.0244C57.4643 56.5156 57.0665 56.9174 56.5802 56.9174C56.094 56.9174 55.6962 56.5156 55.6962 56.0244C55.6962 55.5333 56.094 55.1314 56.5802 55.1314C57.0665 55.1314 57.4643 55.5333 57.4643 56.0244ZM94.5907 61.7147C94.6004 63.473 90.5974 59.6715 90.3719 57.7077C90.1359 55.6511 90.2039 55.6699 92.3566 58.2569C93.5828 59.7304 94.588 61.286 94.5907 61.7147ZM436.435 56.6183C435.502 57.5622 431.337 57.7818 431.903 56.8585C432.183 56.3995 433.45 56.0244 434.718 56.0244C435.986 56.0244 436.759 56.2914 436.435 56.6183ZM82.2182 59.1499C82.2182 60.8127 81.7505 61.3825 80.3873 61.3825C78.7173 61.3825 78.6793 61.2574 79.9532 59.9706C80.7215 59.1946 81.1246 58.19 80.8479 57.7381C80.572 57.2871 80.7674 56.9174 81.2819 56.9174C81.7965 56.9174 82.2182 57.9221 82.2182 59.1499ZM434.961 58.7838C434.961 60.2787 438.72 63.1051 440.751 63.139C441.749 63.1551 443.091 62.6666 443.735 62.0522C444.678 61.153 444.831 61.186 444.519 62.221C443.889 64.3124 439.88 66.878 438.237 66.2413C437.413 65.9216 436.959 65.301 437.228 64.8607C437.497 64.4214 437.074 64.0615 436.287 64.0615C435.5 64.0615 435.102 63.6596 435.403 63.1685C435.703 62.6773 435.328 62.2755 434.571 62.2755C433.813 62.2755 433.193 61.8495 433.193 61.3298C433.193 60.81 432.822 60.6154 432.369 60.8976C431.917 61.1806 431.312 61.0279 431.025 60.5591C430.737 60.0903 431.208 59.2919 432.069 58.7856C434.111 57.5845 434.961 57.5845 434.961 58.7838ZM442.033 61.4057C442.033 61.8843 441.635 62.2755 441.149 62.2755C440.663 62.2755 440.265 61.8066 440.265 61.2333C440.265 60.6609 440.003 60.4564 439.683 60.7797C439.007 61.4628 436.729 59.7599 436.729 58.5713C436.729 58.1274 437.922 58.3882 439.381 59.1499C440.84 59.9117 442.033 60.927 442.033 61.4057ZM77.5768 59.3428C73.4969 59.967 75.1138 62.1192 79.8595 62.3808C81.2802 62.4594 81.1034 62.6327 79.1743 63.0506C76.1163 63.7141 75.9572 65.1581 78.8508 65.9815C80.3634 66.4119 80.4774 66.5851 79.2928 66.6512C78.4131 66.7003 77.9154 67.1031 78.1859 67.546C78.4574 67.988 76.8749 67.8023 74.67 67.1325C72.4651 66.4619 70.8827 66.2744 71.1523 66.7164C71.4228 67.1575 69.7458 67.7773 67.4269 68.0925C61.2888 68.9284 60.6832 69.4642 66.305 69.0864C68.9793 68.9069 71.7941 68.4899 72.5615 68.1604C73.6162 67.7067 74.2412 68.4381 75.1341 71.1698C75.7822 73.1541 76.6707 74.7776 77.1074 74.7776C77.545 74.7776 77.6749 75.1491 77.3965 75.6036C76.8156 76.5538 78.643 81.0286 79.6119 81.0286C80.5623 81.0286 81.4888 76.6458 80.7824 75.492C80.4438 74.9374 80.5756 74.7508 81.083 75.0678C82.7937 76.1349 83.1933 81.201 81.7443 83.4362C80.9893 84.5989 80.0283 85.3365 79.6084 85.074C79.1885 84.8114 77.9137 85.0016 76.7741 85.4963C75.0104 86.2617 75.2526 86.3581 78.4105 86.1491C81.4482 85.9473 82.1987 86.2143 82.5647 87.6289C83.4532 91.0616 80.519 93.1825 76.9138 91.7135C76.6707 91.6143 76.1729 91.5804 75.8087 91.6394C75.4445 91.6974 75.1456 91.3732 75.1456 90.9205C75.1456 90.4668 73.9521 90.6972 72.4934 91.4322C69.1649 93.1092 66.747 92.6895 66.747 90.4338C66.747 88.9112 67.2996 88.7299 71.2982 88.9443C73.8019 89.0791 76.0536 88.8567 76.3011 88.4513C76.5495 88.0459 75.1766 87.6762 73.2511 87.6297C71.3256 87.5824 69.2728 87.0243 68.6902 86.3885C67.8512 85.4722 67.9069 85.366 68.9572 85.875C69.6865 86.2295 69.5106 85.8866 68.5673 85.1133C67.6231 84.3399 66.1936 83.7077 65.3891 83.7077C64.5855 83.7077 62.7722 82.7039 61.3595 81.476C58.3643 78.8747 58.6012 78.7818 63.6528 80.5821C68.0042 82.1333 69.0588 82.2592 67.189 81.0045C66.4597 80.5152 64.1965 79.6766 62.1605 79.1399C60.1236 78.6041 57.7994 77.4307 56.9958 76.5332C55.614 74.9919 55.6484 74.9303 57.604 75.4152C58.7427 75.6974 60.2049 76.3493 60.8529 76.8636C61.5018 77.378 62.6953 77.8585 63.5051 77.9308C64.3158 78.004 66.3713 78.3237 68.0731 78.6416L71.1673 79.2203L68.5151 77.9326C67.0564 77.2235 65.4112 76.6261 64.8586 76.6038C64.307 76.5815 62.7157 75.9635 61.3224 75.2294C59.93 74.4963 57.6968 73.8935 56.3592 73.8899C54.79 73.8864 53.928 73.4095 53.928 72.5451C53.928 71.6351 53.006 71.1957 51.0548 71.1761L48.1816 71.1457L50.2114 69.4365C51.7241 68.1622 53.2995 67.8005 56.3999 68.0148C58.687 68.1729 59.465 68.1264 58.1274 67.9112C56.6236 67.6692 55.6962 66.9629 55.6962 66.0591C55.6962 64.9223 55.9322 64.8357 56.7571 65.6689C57.3405 66.2583 58.2352 66.728 58.7462 66.7119C59.8036 66.6798 56.6236 64.0615 55.5273 64.0615C55.1339 64.0615 54.8121 64.6643 54.8121 65.401C54.8121 66.1377 54.3657 66.7405 53.8202 66.7405C52.5153 66.7405 54.8599 63.1444 56.9905 61.8781C58.1167 61.2092 58.679 61.2208 58.9336 61.9192C59.5251 63.5435 69.9279 62.446 72.4934 60.4886C73.709 59.5616 75.8971 58.841 77.3558 58.8865C80.0009 58.9704 80.0009 58.9722 77.5768 59.3428ZM63.6528 60.4895C64.7455 61.203 64.6677 61.3423 63.2107 61.2798C62.2383 61.2387 60.448 60.8824 59.2324 60.4895C57.0665 59.7884 57.0753 59.7733 59.6745 59.6991C61.1332 59.6581 62.9234 60.0135 63.6528 60.4895ZM469.888 71.218C470.441 72.12 469.88 72.2593 467.366 71.8476C463.254 71.1734 463.277 71.6779 467.45 73.6577C469.6 74.6785 470.864 75.9367 471.048 77.2387C471.307 79.0765 471.13 79.1685 468.936 78.3264C465.643 77.0619 465.22 77.8468 468.463 79.2042C472.279 80.8009 472.84 82.9066 469.166 81.8422C465.76 80.8554 465.903 80.859 465.903 81.7716C465.903 82.1806 467.793 82.8843 470.102 83.3344C472.411 83.7853 474.176 84.4917 474.021 84.9052C473.867 85.3186 474.464 86.2036 475.347 86.8716C476.662 87.8673 476.071 87.8539 472.091 86.801C466.326 85.2758 466.566 85.3035 467.135 86.234C467.385 86.6412 469.847 87.5217 472.607 88.1906L477.625 89.4068L475.131 91.4152C473.759 92.5207 472.315 93.2235 471.922 92.978C471.529 92.7333 471.207 92.9583 471.207 93.4781C471.207 93.9978 470.611 94.4238 469.881 94.4238C469.152 94.4238 468.555 93.9978 468.555 93.4781C468.555 92.9583 469.015 92.819 469.576 93.1691C470.208 93.5647 470.357 93.4146 469.965 92.7761C469.619 92.2091 468.823 91.7447 468.196 91.7447C466.343 91.7447 460.599 85.5633 460.599 83.5692C460.599 82.202 460.996 81.8725 462.146 82.2842C463.306 82.6994 463.219 82.4449 461.797 81.2635C460.756 80.3973 459.654 78.8488 459.351 77.8209C459.048 76.794 457.796 74.9999 456.568 73.8355L454.337 71.7181L455.498 74.3641C456.137 75.8197 457.291 78.2157 458.063 79.6891C458.835 81.1626 459.749 83.5532 460.094 85.0016C460.747 87.7449 461.931 89.0693 468.865 94.8077C472.802 98.0672 480.745 109.114 480.269 110.668C480.147 111.066 480.446 111.391 480.932 111.391C481.418 111.391 481.784 112.094 481.746 112.954C481.705 113.887 481.497 114.067 481.231 113.4C480.522 111.626 479.211 112.096 478.119 114.516C477.566 115.744 476.499 116.749 475.751 116.749C474.692 116.749 474.626 116.511 475.451 115.677C476.734 114.382 476.865 112.851 475.628 113.623C475.141 113.927 474.711 113.649 474.671 113.006C474.632 112.363 474.034 113.144 473.343 114.74C472.652 116.336 471.865 117.642 471.595 117.642C471.324 117.642 471.349 117.24 471.649 116.749C472.556 115.267 471.122 113.684 470.146 115.091C469.467 116.068 469.382 116.043 469.704 114.963C469.923 114.226 470.55 113.724 471.097 113.847C471.644 113.97 472.091 113.467 472.091 112.73C472.091 111.994 472.569 111.391 473.152 111.391C473.968 111.391 473.964 111.139 473.136 110.302C472.288 109.446 471.601 109.711 469.917 111.545C468.739 112.829 468.039 114.143 468.36 114.467C468.681 114.792 468.226 114.779 467.349 114.44C466.472 114.099 466.127 113.576 466.58 113.276C467.035 112.976 467.857 111.866 468.407 110.81C469.212 109.265 469.142 108.788 468.051 108.364C467.305 108.076 466.902 108.177 467.154 108.589C467.406 109.001 466.631 110.682 465.432 112.324C464.232 113.966 463.251 114.91 463.251 114.422C463.251 113.933 463.728 113.052 464.312 112.463C464.895 111.873 465.08 111.391 464.723 111.391C464.365 111.391 464.498 110.587 465.019 109.605C466.472 106.862 465.126 107.477 461.908 111.025C459.125 114.094 458.975 114.149 458.394 112.301C458.036 111.16 458.272 109.733 458.972 108.812C459.623 107.955 458.832 108.688 457.214 110.439C455.595 112.19 454.401 113.074 454.561 112.403C454.721 111.731 454.119 111.058 453.224 110.907C450.983 110.528 450.483 109.856 451.41 108.468C451.845 107.819 451.361 108.248 450.335 109.42L448.47 111.553L447.964 109.596C447.661 108.431 447.051 107.893 446.453 108.266C445.901 108.611 445.696 109.543 445.998 110.338C446.3 111.133 446.275 111.508 445.942 111.172C445.609 110.835 444.632 110.942 443.772 111.407C442.448 112.123 442.281 111.946 442.687 110.259C442.951 109.163 443.769 107.563 444.505 106.703C445.246 105.837 445.421 105.14 444.897 105.14C444.376 105.14 443.421 106.345 442.776 107.819C442.13 109.292 441.068 110.498 440.416 110.498C439.477 110.498 439.348 109.053 439.794 103.577C440.104 99.7702 440.77 94.7667 441.274 92.4565C441.778 90.1471 441.936 87.8432 441.626 87.3368C441.317 86.8314 441.318 85.0463 441.629 83.3719C442.085 80.9143 442.691 80.2258 444.768 79.8061C446.183 79.5203 449.106 77.503 451.264 75.3232C453.422 73.1434 455.971 71.1091 456.93 70.8019C457.887 70.4947 459.153 69.6562 459.743 68.9382C460.945 67.4754 462.777 67.1343 461.921 68.5328C461.286 69.5704 463.91 70.8367 464.81 69.9277C465.14 69.5946 464.824 68.9489 464.109 68.4917C463.149 67.8782 463.112 67.6576 463.966 67.6469C464.603 67.6398 464.922 67.304 464.675 66.9004C464.428 66.4976 465.085 64.7893 466.135 63.1051L468.042 60.0429L468.611 65.0509C468.924 67.805 469.498 70.5795 469.888 71.218ZM36.2467 61.7334C36.2467 61.9263 36.8638 62.3237 37.6188 62.6166C38.4056 62.9211 38.7601 62.7711 38.4507 62.2656C37.9318 61.4164 36.2467 61.0101 36.2467 61.7334ZM169.552 63.031C170.391 63.5694 170.621 66.311 170.436 73.5104L170.183 83.2612L168.241 80.1088C167.174 78.3746 165.859 74.1659 165.32 70.7564C164.44 65.1929 164.498 64.4383 165.883 63.4158C167.68 62.0888 168.024 62.0522 169.552 63.031ZM93.711 63.9883C93.711 65.4314 92.6599 67.6335 91.9712 67.6335C91.6043 67.6335 91.4938 66.6289 91.7263 65.401C92.1215 63.3131 93.711 62.1817 93.711 63.9883ZM409.723 64.2053C411.925 65.2179 411.975 65.4465 411.975 74.4749C411.975 84.8061 411.538 85.3883 406.96 81.1635C403.22 77.7138 401.509 74.0909 400.819 68.1568L400.239 63.1685H403.855C405.844 63.1685 408.485 63.6346 409.723 64.2053ZM448.506 64.3526C446.961 64.9295 445.37 65.7591 444.97 66.1967C444.062 67.1897 448.375 66.1842 452.103 64.5321C455.626 62.972 452.612 62.8211 448.506 64.3526ZM82.654 64.9447C82.9634 65.4501 82.6089 65.6001 81.8221 65.2956C80.2909 64.7018 80.0107 64.0615 81.2819 64.0615C81.7399 64.0615 82.357 64.4589 82.654 64.9447ZM60.7645 65.9582C61.3648 66.569 62.0783 66.8432 62.3497 66.5682C62.622 66.2931 62.1313 65.7939 61.2596 65.4582C59.9998 64.9741 59.8981 65.0759 60.7645 65.9582ZM47.5601 70.4331C47.2816 72.22 47.1579 72.095 46.7503 69.6151C46.4594 67.8398 46.5885 67.0066 47.0792 67.5022C47.5248 67.9523 47.7413 69.2713 47.5601 70.4331ZM441.868 69.1364C442.505 69.3945 443.268 69.3624 443.562 69.0659C443.855 68.7694 443.334 68.5587 442.402 68.5971C441.372 68.6399 441.162 68.8516 441.868 69.1364ZM83.1137 70.7519C83.5938 70.4518 83.9863 70.6331 83.9863 71.1529C83.9863 72.5522 79.2848 72.3004 77.3036 70.7948C75.7512 69.6151 75.9051 69.5767 78.9144 70.3938C80.7444 70.8903 82.6346 71.0511 83.1137 70.7519ZM434.077 70.3125C434.077 71.3788 436.482 71.3788 438.939 70.3125C440.357 69.6973 440.051 69.5329 437.392 69.482C435.569 69.4481 434.077 69.8214 434.077 70.3125ZM59.2324 72.9916C59.9618 73.4675 60.9564 73.8569 61.4426 73.8569C61.9288 73.8569 61.7299 73.4675 61.0006 72.9916C60.2712 72.5156 59.2766 72.1262 58.7904 72.1262C58.3042 72.1262 58.5031 72.5156 59.2324 72.9916ZM57.2433 79.156C59.7956 81.9047 62.1101 84.857 62.3859 85.7169C62.6617 86.5769 63.2585 87.2797 63.712 87.2797C64.1655 87.2797 64.5368 88.4611 64.5368 89.906C64.5368 91.3509 64.8975 92.7574 65.3378 93.0324C65.7781 93.3075 65.9487 94.2666 65.7162 95.1649C65.4837 96.0624 65.9195 99.2344 66.6834 102.213C68.4736 109.193 68.4736 111.987 66.6825 111.987C65.7153 111.987 65.4324 111.419 65.7524 110.125C66.2122 108.272 66.2086 108.272 64.7119 110.051C63.018 112.067 57.2857 112.9 57.9974 111.027C58.2326 110.409 57.8277 109.902 57.0992 109.902C56.3707 109.902 55.9755 110.233 56.2222 110.635C56.979 111.872 53.2553 115.236 51.7674 114.659C49.6934 113.856 50.1089 111.36 52.823 108.314L55.2541 105.586L52.3809 108.209C50.8011 109.651 49.5077 110.507 49.5077 110.109C49.5077 108.941 46.7282 111.611 45.8804 113.592C45.167 115.262 45.121 115.234 45.3164 113.259C45.4808 111.597 45.0777 111.073 43.5403 110.952C42.4467 110.867 41.5511 111.054 41.5511 111.369C41.5511 111.685 40.927 112.722 40.1649 113.676C38.8459 115.325 38.8043 115.28 39.3074 112.73C39.6583 110.954 39.5629 110.467 39.0245 111.282C38.578 111.959 37.77 112.237 37.2298 111.899C36.6888 111.561 36.2405 111.812 36.2335 112.454C36.2229 113.381 36.062 113.372 35.4564 112.406C34.8119 111.378 34.6183 111.378 34.2134 112.406C33.8597 113.304 33.7156 113.241 33.6644 112.17C33.5786 110.384 35.6827 108.483 36.7409 109.39C37.1661 109.753 36.9849 109.352 36.3387 108.498C35.1646 106.948 33.1101 107.198 34.0746 108.773C34.3539 109.231 34.1692 109.605 33.6635 109.605C33.1578 109.605 32.4841 110.651 32.1668 111.928L31.5895 114.252L29.8708 111.51C27.9842 108.501 28.4528 106.103 30.579 107.885C31.7574 108.873 32.104 108.632 31.6054 107.171C31.4834 106.815 30.5038 106.476 29.4288 106.418C28.3529 106.36 27.7119 106.703 28.0046 107.181C28.2972 107.659 27.9834 107.847 27.3079 107.6C26.6325 107.352 26.1896 106.667 26.3231 106.078C26.4566 105.489 26.1392 105.274 25.6167 105.6C24.951 106.015 24.9775 106.568 25.7033 107.452C26.5078 108.431 26.4689 108.728 25.5248 108.782C24.6292 108.834 24.6009 108.971 25.4169 109.303C26.0251 109.551 26.522 110.146 26.522 110.625C26.522 111.104 26.1578 111.269 25.7131 110.992C25.2684 110.714 24.7035 110.992 24.4568 111.609C24.211 112.226 23.9776 111.649 23.9396 110.327C23.9016 109.006 23.5436 107.721 23.1457 107.472C22.747 107.223 22.6082 108.304 22.8363 109.873C23.2094 112.44 23.1051 112.603 21.7922 111.502C20.5289 110.443 20.3335 110.493 20.3335 111.877C20.3335 112.755 20.0931 113.232 19.7995 112.936C19.506 112.639 19.9392 108.622 20.7614 104.008C22.2254 95.7918 22.3183 95.5963 25.2251 94.5345C27.8021 93.5933 28.2618 92.9548 28.7101 89.6953C28.9938 87.6297 28.8851 84.7346 28.4678 83.2612C27.7553 80.7429 27.9666 80.4107 31.974 77.7343C36.3342 74.8213 39.1924 74.1739 47.7396 74.1632C52.5038 74.1569 52.6957 74.2578 57.2433 79.156ZM449.99 75.2241C449.384 75.9608 448.552 76.5636 448.141 76.5636C447.73 76.5636 447.622 75.9608 447.902 75.2241C448.182 74.4874 449.014 73.8846 449.75 73.8846C450.841 73.8846 450.885 74.1337 449.99 75.2241ZM464.783 75.7813C465.383 76.3921 466.097 76.6663 466.368 76.3912C466.64 76.1162 466.15 75.617 465.278 75.2812C464.018 74.7972 463.916 74.899 464.783 75.7813ZM68.9572 82.2637C68.9572 82.4521 69.9394 82.7959 71.1408 83.0281C72.3414 83.2603 73.1141 83.1058 72.8568 82.6861C72.4042 81.9458 68.9572 81.5734 68.9572 82.2637ZM440.265 89.1184C440.265 91.6027 439.904 93.4111 439.463 93.136C439.023 92.8601 438.859 93.3995 439.102 94.3336C439.446 95.6641 438.929 96.1678 436.722 96.6581C433.18 97.4439 432.28 96.5357 431.737 91.6295C431.352 88.1459 431.441 87.8941 432.567 89.289C433.261 90.1489 434.163 90.8517 434.572 90.8517C434.98 90.8517 434.837 90.3695 434.253 89.7801C433.67 89.1907 433.193 88.0191 433.193 87.1752C433.193 86.3322 432.696 85.4401 432.087 85.1918C431.48 84.9445 433.071 84.7096 435.624 84.6712L440.265 84.6007V89.1184ZM107.444 89.9257C105.534 92.0573 106.238 94.4238 108.783 94.4238C111.67 94.4238 129.412 107.04 128.095 108.156C127.904 108.317 124.963 109.997 121.559 111.888C118.155 113.78 113.622 116.438 111.484 117.796C109.347 119.154 107.262 120.056 106.853 119.8C106.443 119.544 106.344 119.957 106.633 120.716C107.091 121.924 107.448 121.886 109.496 120.417C112.093 118.553 129.747 108.712 130.494 108.712C131.309 108.712 128.689 111.058 126.635 112.169C125.557 112.752 124.418 114.259 124.105 115.52C123.684 117.216 123.34 117.499 122.782 116.611C122.176 115.646 122.026 115.64 122.014 116.578C122.007 117.221 121.603 117.499 121.117 117.195C120.631 116.892 120.227 117.37 120.22 118.259C120.208 119.629 120.076 119.671 119.349 118.535C118.727 117.562 118.488 117.515 118.478 118.364C118.471 119.007 118.067 119.285 117.581 118.981C117.095 118.678 116.697 118.856 116.697 119.375C116.697 119.895 116.398 120.274 116.034 120.216C114.173 119.918 112.276 120.423 112.276 121.214C112.276 121.705 113.967 122.105 116.034 122.103C120.036 122.1 123.44 120.39 129.604 115.288C131.6 113.636 133.621 112.284 134.094 112.284C134.567 112.284 135.907 113.308 137.071 114.56C138.235 115.812 141.189 118.165 143.634 119.79C147.439 122.317 148.942 122.769 154.049 122.919C157.425 123.018 160.016 122.719 160.016 122.23C160.016 120.425 151.356 113.73 145.158 110.743L138.699 107.632L143.832 103.863C146.655 101.79 150.755 98.9361 152.943 97.5198C155.132 96.1035 157.078 94.8372 157.269 94.7059C157.459 94.5747 157.069 93.754 156.4 92.8824C155.43 91.6197 155.595 91.6527 157.212 93.0485C158.922 94.5247 159.363 94.5979 160.025 93.5156C160.543 92.6699 160.327 91.692 159.392 90.649C157.654 88.7085 155.956 88.6138 155.271 90.4177C154.988 91.1616 150.272 94.7434 144.789 98.378L134.82 104.985L128.19 101.408C120.786 97.4126 112.383 90.9964 112.318 89.289C112.253 87.5681 109.198 87.9673 107.444 89.9257ZM436.812 88.6192C436.781 89.1104 437.092 90.048 437.503 90.7035C438.102 91.6563 438.362 91.6027 438.805 90.4338C439.111 89.6301 439.002 89.197 438.562 89.4711C438.123 89.7453 437.562 89.4649 437.316 88.8478C437.07 88.2307 436.843 88.128 436.812 88.6192ZM311.684 91.0509C309.798 93.7692 309.917 94.1219 312.929 94.73C316.029 95.356 325.616 101.097 330.551 105.283L334.04 108.242L327.258 111.862C318.114 116.743 311.191 121.19 311.191 122.184C311.191 122.633 314.473 122.997 318.485 122.994C326.359 122.987 326.857 122.785 334.336 116.526C336.537 114.684 338.642 113.177 339.015 113.177C339.387 113.177 343.143 115.387 347.362 118.088C354.349 122.562 355.481 123 360.076 123C362.856 123 365.119 122.598 365.119 122.105C365.119 120.912 355.137 113.533 349.869 110.834C347.559 109.65 345.677 108.387 345.685 108.027C345.733 105.986 360.62 95.3168 363.42 95.3168C365.622 95.3168 365.594 93.1173 363.363 90.8633C361.611 89.0934 361.598 89.0978 357.725 93.0101C352.879 97.9056 340.729 105.223 338.725 104.453C335.093 103.058 320.203 93.946 317.779 91.6358C314.54 88.5451 313.49 88.4451 311.684 91.0509ZM242.738 91.267L245.838 92.5752L244.018 96.1785C243.017 98.1601 242.454 99.7818 242.766 99.7818C243.079 99.7818 242.788 100.461 242.121 101.293C241.075 102.596 241.09 102.695 242.234 102.014C243.335 101.359 243.374 101.458 242.463 102.595C241.859 103.348 241.66 104.293 242.021 104.695C242.381 105.097 242.207 105.154 241.632 104.822C241.058 104.49 240.339 104.626 240.033 105.126C239.728 105.625 239.949 106.033 240.524 106.033C241.22 106.033 241.39 106.947 241.032 108.757C240.648 110.693 240.788 111.295 241.514 110.843C242.194 110.418 242.346 110.701 241.97 111.691C241.66 112.508 241.791 113.177 242.262 113.177C242.733 113.177 243.118 113.731 243.118 114.407C243.118 115.083 243.715 116.137 244.444 116.749C246.474 118.45 246.084 119.107 242.085 120.724C239.531 121.756 237.292 122.028 234.791 121.61C229.45 120.717 228.254 119.852 228.749 117.237C228.984 115.998 229.47 115.167 229.83 115.392C230.191 115.618 230.501 114.708 230.52 113.372C230.539 112.037 230.626 108.609 230.711 105.755C230.8 102.812 230.411 100.009 229.812 99.2808C229.231 98.5736 229.05 97.9958 229.409 97.9958C229.767 97.9958 229.402 96.9795 228.596 95.7383C226.819 92.9985 227.308 92.0269 231.006 90.9464C235.268 89.7015 239.289 89.8114 242.738 91.267ZM12.8632 92.5842C13.3246 93.0458 14.8461 93.6308 16.243 93.8844C19.4044 94.4577 19.2753 94.2487 18.8041 98.0529C18.4434 100.97 18.202 101.204 15.9035 100.864C13.993 100.581 13.4749 100.084 13.7251 98.7736C13.9232 97.7359 13.6836 97.2858 13.1204 97.6377C12.5237 98.0101 12.392 97.5698 12.7544 96.4161C13.1036 95.3025 12.7774 94.063 11.9022 93.178C11.1216 92.3895 10.8289 91.7447 11.2533 91.7447C11.6767 91.7447 12.4008 92.1225 12.8632 92.5842ZM479.164 94.6256C479.164 95.6606 479.427 96.2419 479.747 95.9177C480.068 95.5936 480.915 96.1696 481.628 97.1983C482.811 98.904 482.729 99.2656 480.694 101.321C478.357 103.682 475.484 103.448 477.449 101.057C478.263 100.066 478.039 99.6452 476.351 98.9968C475.184 98.5486 473.736 97.5814 473.133 96.8474C472.219 95.7356 472.519 95.2221 474.937 93.7593C478.244 91.759 479.164 91.9483 479.164 94.6256ZM361.037 94.0237C361.338 94.8185 361.19 95.1766 360.689 94.864C360.208 94.5639 359.815 93.9406 359.815 93.4781C359.815 92.1939 360.449 92.477 361.037 94.0237ZM72.0205 94.4238C73.3439 94.4238 74.2253 95.0792 74.5409 96.3C75.1359 98.5986 76.9138 97.7118 76.9138 95.1149C76.9138 92.6922 77.7554 93.5352 78.2858 96.4893C78.7871 99.2826 78.5864 99.4085 72.3847 100.167C67.6744 100.744 67.395 100.668 67.0467 98.7155C66.4641 95.4534 67.1776 93.3352 68.6646 93.9121C69.3913 94.1934 70.9012 94.4238 72.0205 94.4238ZM11.431 97.8252C11.3753 99.9711 11.2869 100.037 10.6088 98.4423C9.55322 95.9615 9.55322 94.2112 10.6088 94.8703C11.095 95.1739 11.4646 96.5036 11.431 97.8252ZM226.478 96.8795C227.599 99.6416 228.016 101.203 228.321 103.8C228.437 104.783 228.929 105.882 229.415 106.243C229.954 106.643 229.845 106.904 229.135 106.912C228.375 106.921 228.164 107.546 228.529 108.707C229.433 111.581 226.74 109.958 223.575 105.718C220.88 102.109 220.824 102.083 221.368 104.693C221.816 106.847 221.739 107.062 220.975 105.792C220.453 104.922 220.293 103.315 220.621 102.22C221.288 99.9952 224.481 94.4238 225.089 94.4238C225.304 94.4238 225.929 95.5284 226.478 96.8795ZM250.364 99.8559C252.319 105 252.336 108.65 250.412 110.242C249.561 110.947 249.362 111.269 249.97 110.958C251.248 110.303 251.39 111.291 250.274 113.072C249.666 114.042 249.372 113.9 248.904 112.41C248.576 111.367 248.594 110.046 248.944 109.475C249.359 108.797 249.193 108.678 248.464 109.132C247.631 109.653 247.508 109.293 247.977 107.707C248.596 105.619 248.582 105.614 247.122 107.372C246.307 108.355 245.892 108.657 246.199 108.042C246.507 107.429 246.311 106.926 245.765 106.926C245.12 106.926 244.917 105.595 245.188 103.131C246.149 94.38 247.869 93.2914 250.364 99.8559ZM234.278 98.7414C234.278 99.3442 234.79 100.036 235.417 100.279C236.044 100.523 236.63 101.414 236.719 102.261C236.808 103.107 237.431 105.347 238.104 107.238C239.065 109.941 239.454 110.338 239.925 109.098C240.255 108.23 240.123 107.115 239.632 106.62C239.063 106.044 239.045 105.346 239.583 104.692C240.158 103.991 239.449 102.709 237.352 100.655C235.661 98.9995 234.278 98.1387 234.278 98.7414ZM439.076 102.238C438.843 103.098 438.4 105.308 438.092 107.149C437.596 110.119 435.845 111.992 435.845 109.552C435.845 109.032 435.444 108.857 434.954 109.162C433.837 109.859 432.648 106.956 433.727 106.166C434.886 105.318 435.278 102.157 434.136 102.871C433.617 103.194 433.193 102.832 433.193 102.067C433.193 101.066 434.079 100.675 436.346 100.675C438.922 100.675 439.423 100.961 439.076 102.238ZM136.085 107.057C150.703 115.646 152.058 116.609 151.518 118.028C151.002 119.387 148.523 118.946 148.523 117.494C148.523 117.026 148.125 116.892 147.639 117.195C147.153 117.499 146.755 117.254 146.755 116.652C146.755 116.051 146.523 115.793 146.24 116.079C145.956 116.366 144.93 115.799 143.96 114.819C142.992 113.84 141.612 113.266 140.895 113.544C140.178 113.822 139.804 113.701 140.064 113.276C140.562 112.463 133.533 107.285 132.389 107.623C132.025 107.73 131.726 107.417 131.726 106.926C131.726 106.435 131.346 106.033 130.882 106.033C130.417 106.033 129.044 105.028 127.828 103.8C126.612 102.572 125.871 101.568 126.18 101.568C126.489 101.568 130.946 104.038 136.085 107.057ZM332.895 102.332C333.357 102.752 337.713 105.21 342.576 107.794C347.438 110.377 352.212 113.194 353.185 114.053C354.157 114.911 356.842 116.711 359.152 118.052C361.461 119.393 363.57 120.848 363.837 121.285C364.614 122.555 358.776 121.165 355.548 119.31C353.931 118.381 352.244 117.847 351.801 118.124C351.357 118.401 351.192 118.105 351.433 117.465C351.701 116.756 350.06 115.276 347.224 113.67C342.642 111.075 330.641 102.56 330.641 101.904C330.641 101.29 332.042 101.556 332.895 102.332ZM464.321 102.941C463.379 104.02 463.418 104.247 464.542 104.247C465.29 104.247 465.903 104.673 465.903 105.193C465.903 105.712 466.301 105.89 466.787 105.586C467.273 105.283 467.677 105.56 467.684 106.203C467.694 107.053 467.933 107.006 468.555 106.033C469.678 104.278 469.66 103.354 468.503 103.354C467.988 103.354 467.81 103.751 468.107 104.237C468.43 104.765 468.025 104.878 467.098 104.519C466.147 104.15 465.959 103.782 466.611 103.562C467.194 103.365 467.671 102.837 467.671 102.387C467.671 101.134 465.6 101.477 464.321 102.941ZM141.063 104.187C140.212 105.135 138.945 105.691 138.248 105.42C137.206 105.017 137.261 104.712 138.552 103.724C139.416 103.06 140.683 102.505 141.367 102.489C142.324 102.467 142.254 102.856 141.063 104.187ZM346.313 104.247C345.077 105.229 343.332 106.031 342.436 106.028C341.206 106.025 341.457 105.603 343.46 104.308C346.985 102.027 349.165 101.98 346.313 104.247ZM77.7978 103.748C77.7978 103.965 77.4 104.39 76.9138 104.693C76.4275 104.997 76.0297 104.819 76.0297 104.3C76.0297 103.78 76.4275 103.354 76.9138 103.354C77.4 103.354 77.7978 103.531 77.7978 103.748ZM74.0936 107.596C73.8584 110.465 73.4854 110.984 71.4856 111.218C69.3488 111.468 69.1234 111.186 68.8104 107.869C68.4727 104.29 68.5028 104.247 71.4184 104.247C74.2863 104.247 74.3606 104.34 74.0936 107.596ZM469.947 105.735C469.635 106.554 469.792 107.639 470.294 108.147C470.923 108.782 471.207 108.757 471.207 108.071C471.207 107.521 471.449 106.436 471.744 105.66C472.039 104.883 471.883 104.247 471.397 104.247C470.91 104.247 470.258 104.917 469.947 105.735ZM17.2393 109.674C17.2393 113.129 16.4843 114.238 15.6144 112.061C15.3483 111.394 15.1405 111.574 15.099 112.507C15.0291 114.075 13.261 114.79 13.261 113.25C13.261 112.799 13.0179 111.79 12.7208 111.007C12.3089 109.924 12.5573 109.731 13.764 110.199C15.2625 110.779 15.2678 110.698 13.8622 108.671C11.85 105.769 11.9756 105.39 14.8081 105.81C16.9865 106.133 17.2393 106.534 17.2393 109.674ZM43.6773 108.042L41.9932 110.051L43.9823 108.35C45.8512 106.752 46.3737 106.033 45.6664 106.033C45.4985 106.033 44.6038 106.937 43.6773 108.042ZM57.3512 107.596C56.2523 109.012 56.2832 109.043 57.6853 107.933C59.1582 106.766 59.6259 106.033 58.8983 106.033C58.7153 106.033 58.0186 106.736 57.3512 107.596ZM85.6413 107.596C84.5424 109.012 84.5733 109.043 85.9754 107.933C87.4483 106.766 87.916 106.033 87.1884 106.033C87.0054 106.033 86.3087 106.736 85.6413 107.596ZM440.57 107.411C440.282 108.169 440.244 108.989 440.485 109.232C440.727 109.476 441.137 108.856 441.396 107.855C441.947 105.727 441.335 105.398 440.57 107.411ZM453.944 107.846C453.072 108.819 452.621 109.882 452.942 110.206C453.263 110.53 453.532 110.226 453.539 109.531C453.55 108.598 453.732 108.549 454.233 109.346C454.725 110.128 455.205 109.955 455.97 108.717C457.434 106.35 455.882 105.682 453.944 107.846ZM38.8353 108.342C38.1607 109.164 38.2845 109.407 39.3003 109.257C41.3009 108.96 42.8587 107.223 41.1241 107.223C40.3709 107.223 39.341 107.727 38.8353 108.342ZM61.3586 108.935L59.6745 110.944L61.8846 109.168C63.1002 108.191 64.261 107.287 64.4635 107.159C64.6659 107.03 64.429 106.926 63.9374 106.926C63.445 106.926 62.2851 107.83 61.3586 108.935ZM88.2935 108.489C87.1946 109.905 87.2255 109.936 88.6276 108.826C89.479 108.152 90.1748 107.448 90.1748 107.263C90.1748 106.528 89.449 107.001 88.2935 108.489ZM417.778 108.45C417.299 109.723 417.4 109.825 418.273 108.95C418.878 108.344 419.149 107.623 418.877 107.349C418.605 107.074 418.11 107.57 417.778 108.45ZM225.466 109.66C225.971 110.612 226.953 111.391 227.651 111.391C229.595 111.391 228.287 113.674 226.255 113.83C224.91 113.932 224.592 113.567 224.972 112.358C225.6 110.359 223.283 108.067 222.285 109.7C221.868 110.381 222.001 110.541 222.648 110.136C223.305 109.726 223.679 110.234 223.697 111.561C223.733 114.218 225.943 117.348 226.604 115.68C226.902 114.928 227.09 115.07 227.135 116.079C227.261 118.89 224.922 117.721 222.949 113.985C221.886 111.975 221.017 109.85 221.017 109.264C221.017 107.496 224.483 107.805 225.466 109.66ZM28.1027 111.513C27.8817 112.182 27.4812 111.777 27.1682 110.569C26.7837 109.084 26.8986 108.735 27.5546 109.398C28.0691 109.917 28.3149 110.868 28.1027 111.513ZM477.101 109.308C476.777 109.634 476.512 110.505 476.512 111.242C476.512 112.861 477.664 111.875 477.932 110.025C478.144 108.57 477.976 108.424 477.101 109.308ZM83.1022 111.837C83.1022 113.065 83.2552 114.07 83.4408 114.07C83.6274 114.07 83.9704 113.065 84.2029 111.837C84.4354 110.61 84.2825 109.605 83.8634 109.605C83.4453 109.605 83.1022 110.61 83.1022 111.837ZM335.945 110.84C335.945 111.519 335.11 112.296 334.088 112.566C333.066 112.837 332.493 113.485 332.814 114.01C333.135 114.534 332.948 114.963 332.398 114.963C331.849 114.963 329.513 116.57 327.206 118.535C324.032 121.239 322.275 122.094 319.975 122.054C317.283 122.008 317.125 121.881 318.59 120.938C322.924 118.147 323.472 117.011 319.33 119.404C312.579 123.304 311.732 122.729 318.1 118.572C325.282 113.883 328.873 112.053 328.873 113.08C328.873 113.542 328.376 114.123 327.768 114.372C326.991 114.689 326.971 114.843 327.705 114.892C328.685 114.958 329.489 114.262 332.222 110.976C333.642 109.269 335.945 109.185 335.945 110.84ZM463.556 110.983C463.268 111.741 462.842 112.17 462.611 111.936C462.379 111.702 462.452 111.081 462.772 110.558C463.644 109.132 464.153 109.409 463.556 110.983ZM4.55029 114.195C3.9447 116.321 3.67241 116.631 3.61583 115.259C3.52654 113.088 4.43448 110.214 5.02238 110.808C5.23279 111.021 5.02061 112.546 4.55029 114.195ZM53.044 111.741C53.044 112.588 52.6462 113.034 52.1599 112.73C51.6737 112.427 51.2758 112.604 51.2758 113.124C51.2758 113.644 51.6861 114.07 52.1873 114.07C53.2915 114.07 54.3674 111.537 53.5956 110.757C53.2924 110.451 53.044 110.893 53.044 111.741ZM49.4317 115.409C49.4591 115.901 49.0542 115.7 48.5335 114.963C47.7723 113.887 47.6715 114.018 48.0216 115.632C48.2612 116.736 48.1569 117.828 47.7891 118.058C47.1862 118.434 47.1296 115.849 47.6636 112.284C47.8094 111.311 48.072 111.433 48.6236 112.73C49.0418 113.713 49.4052 114.918 49.4317 115.409ZM436.993 112.877C436.572 113.984 436.748 114.175 437.684 113.627C438.376 113.221 438.63 113.234 438.25 113.655C437.872 114.075 437.076 114.516 436.482 114.633C435.888 114.75 434.11 115.246 432.529 115.735C430.217 116.451 429.656 116.375 429.656 115.347C429.656 114.576 430.543 114.07 431.894 114.07C433.125 114.07 434.361 113.467 434.641 112.73C434.921 111.994 435.692 111.391 436.354 111.391C437.113 111.391 437.349 111.939 436.993 112.877ZM451.478 113.345C451.196 114.057 450.986 113.845 450.944 112.805C450.906 111.863 451.114 111.336 451.408 111.633C451.701 111.929 451.733 112.7 451.478 113.345ZM247.925 114.007C249.407 115.662 249.395 115.712 247.62 115.243C246.602 114.975 245.77 114.199 245.77 113.519C245.77 111.885 246.088 111.957 247.925 114.007ZM62.4885 115.131C62.2064 115.843 61.9969 115.631 61.9545 114.591C61.9165 113.649 62.1251 113.122 62.4186 113.419C62.7121 113.715 62.744 114.486 62.4885 115.131ZM97.585 114.563C97.8865 115.358 97.738 115.716 97.2376 115.403C96.7566 115.103 96.3632 114.48 96.3632 114.017C96.3632 112.733 96.9971 113.016 97.585 114.563ZM235.162 114.963C235.682 115.945 236.307 116.749 236.55 116.749C236.793 116.749 236.566 115.945 236.046 114.963C235.525 113.981 234.901 113.177 234.658 113.177C234.415 113.177 234.641 113.981 235.162 114.963ZM232.487 114.658C232.986 114.908 233.394 115.658 233.394 116.324C233.394 116.991 233.786 117.781 234.266 118.081C234.82 118.427 234.869 117.891 234.402 116.617C233.997 115.512 233.197 114.517 232.623 114.406C232.051 114.295 231.989 114.408 232.487 114.658ZM425.902 115.179C425.754 115.625 425.255 115.99 424.794 115.99C424.332 115.99 423.834 115.625 423.686 115.179C423.539 114.733 424.037 114.367 424.794 114.367C425.551 114.367 426.048 114.733 425.902 115.179ZM479.274 116.094C478.4 116.97 478.299 116.867 478.779 115.594C479.111 114.714 479.605 114.218 479.877 114.493C480.15 114.767 479.878 115.488 479.274 116.094ZM487.653 116.972C487.571 118.447 487.016 118.963 485.563 118.911C484.475 118.872 483.584 119.173 483.584 119.581C483.584 120.55 481.557 120.125 480.724 118.981C480.322 118.429 480.07 118.514 480.061 119.205C480.054 119.819 479.464 120.321 478.749 120.321C477.959 120.321 477.65 119.798 477.96 118.981C478.24 118.245 479.321 117.628 480.364 117.611C481.406 117.593 483.253 117.004 484.468 116.302C487.46 114.575 487.781 114.642 487.653 116.972ZM238.387 117.209C237.39 117.946 237.165 118.576 237.767 118.952C238.286 119.276 238.939 118.939 239.22 118.202C239.499 117.464 240.292 117.08 240.981 117.347C241.67 117.614 242.234 117.632 242.234 117.387C242.234 116.277 239.801 116.164 238.387 117.209ZM490.377 117.81C490.095 118.522 489.885 118.31 489.843 117.27C489.805 116.328 490.013 115.801 490.307 116.098C490.6 116.394 490.632 117.165 490.377 117.81ZM231.013 118.014C231.195 119.841 233.394 121.168 233.394 119.449C233.394 118.889 233.026 118.659 232.577 118.939C232.127 119.22 231.553 118.741 231.301 117.876C230.915 116.549 230.87 116.57 231.013 118.014ZM417.883 119.596C417.601 120.308 417.392 120.096 417.349 119.056C417.311 118.114 417.52 117.587 417.813 117.884C418.107 118.18 418.139 118.951 417.883 119.596ZM433.207 118.973C433.618 118.716 434.242 118.976 434.594 119.551C434.993 120.204 434.851 120.358 434.214 119.959C433.642 119.603 433.186 119.837 433.179 120.492C433.169 121.341 432.931 121.294 432.308 120.321C431.837 119.584 431.477 118.58 431.507 118.088C431.538 117.597 431.766 117.7 432.011 118.317C432.258 118.934 432.796 119.229 433.207 118.973ZM441.992 119.505C441.45 120.529 440.782 121.142 440.509 120.866C440.237 120.59 440.516 119.751 441.131 119.003C442.721 117.069 443.151 117.319 441.992 119.505ZM477.156 118.181C476.863 118.478 476.1 118.51 475.462 118.252C474.757 117.967 474.966 117.755 475.996 117.712C476.928 117.674 477.45 117.885 477.156 118.181ZM156.48 120.325C159.539 122.022 159.547 122.039 157.102 121.876C155.742 121.785 153.99 120.996 153.208 120.123C151.382 118.085 152.571 118.158 156.48 120.325ZM444.99 119.913C444.702 120.671 444.277 121.1 444.045 120.866C443.814 120.632 443.886 120.011 444.207 119.488C445.079 118.063 445.588 118.339 444.99 119.913Z" fill="black"/>
</mask>
<g mask="url(#mask0_210_656)">
<rect x="0" width="91.6471" height="137.471" fill="black"/>
</g>
</svg>
