<svg width="144" height="35" viewBox="0 0 144 35" fill="none" xmlns="http://www.w3.org/2000/svg">
<path fill-rule="evenodd" clip-rule="evenodd" d="M17.2293 0.733375C17.2167 3.22978 16.3475 15.271 16.1671 15.4512C16.0469 15.571 14.6351 14.37 13.0299 12.7817C11.4247 11.1934 10.0111 9.99402 9.88884 10.1164C9.76652 10.2383 10.9976 11.6196 12.6247 13.1857C14.2517 14.7522 15.5249 16.0915 15.4534 16.1623C15.3219 16.2939 2.69004 17.1819 0.952862 17.1819C0.428725 17.1819 0 17.3512 0 17.5583C0 17.7653 3.6118 18.0733 8.02598 18.2422L16.0515 18.5489L13.0698 21.5424C11.4297 23.1885 10.0876 24.7147 10.0876 24.9339C10.0876 25.1535 11.4823 23.9516 13.1862 22.264L16.2852 19.1947L16.5353 21.4363C16.6732 22.6688 16.9107 26.1802 17.0637 29.239C17.2167 32.2978 17.4865 34.8898 17.663 34.9983C17.9169 35.1547 18.692 24.2043 18.7021 20.325C18.7063 18.6986 19.3893 18.5385 27.6654 18.2217C32.0993 18.0519 35.7271 17.7485 35.7271 17.5474C35.7271 17.3466 35.018 17.179 34.1509 17.1756C31.3331 17.1639 20.0139 16.3224 19.7995 16.1087C19.6848 15.9947 20.9045 14.5502 22.5102 12.899C24.1158 11.2479 25.051 10.1625 24.5886 10.4873C24.1263 10.812 22.7355 12.0856 21.4976 13.3181C20.2602 14.5502 19.1518 15.4629 19.035 15.3464C18.8235 15.136 18.1338 5.18559 18.0943 1.78105C18.0829 0.801684 17.8846 0 17.6534 0C17.4222 0 17.2314 0.330228 17.2293 0.733375ZM41.1622 11.0006C41.1462 11.0585 41.0668 11.5769 40.9853 12.1531C40.7806 13.5993 38.8782 20.7725 38.1183 22.9622L37.4941 24.7617L40.2468 24.6385L42.9999 24.5157L43.7648 22.2108C44.9194 18.7325 44.7135 18.4337 43.0545 21.1803C41.6498 23.5061 40.7902 24.4654 40.4317 24.1075C40.0862 23.763 41.7507 18.0565 42.129 18.2895C42.3534 18.4278 42.4278 19.0837 42.295 19.7471C41.8221 22.1044 42.7628 20.91 43.4076 18.3344C43.7682 16.894 44.1936 15.385 44.3533 14.9818C44.513 14.5787 44.4722 14.2484 44.2629 14.2484C44.0536 14.2484 43.6425 14.9085 43.35 15.7152C43.0574 16.5219 42.6211 17.1819 42.3799 17.1819C42.139 17.1819 42.0298 16.946 42.1374 16.6581C42.2445 16.3702 42.5842 15.1444 42.8922 13.9341C43.205 12.7033 43.6909 11.734 43.9947 11.734C44.7038 11.734 45.1401 13.5255 44.8198 15.123C44.6803 15.8174 44.7311 16.2839 44.9329 16.1598C45.1342 16.0354 45.428 15.2249 45.5857 14.3578C45.7433 13.4908 45.9744 12.3572 46.0993 11.8388C46.3157 10.939 46.2081 10.8959 43.7585 10.8959C42.3467 10.8959 41.1782 10.9428 41.1622 11.0006ZM51.7627 11.6292C51.5504 12.0324 50.2928 14.9085 48.9684 18.0201C47.644 21.1317 46.3695 23.9135 46.1363 24.2014C45.824 24.5869 45.9333 24.7252 46.5503 24.7252C47.1993 24.7252 47.4477 24.3573 47.6503 23.0946C47.8739 21.6983 48.5085 20.9536 49.4744 20.9536C49.725 20.9536 49.4017 22.8314 48.9516 23.9918C48.7128 24.607 48.9112 24.7252 50.1831 24.7252C51.6109 24.7252 51.7 24.646 51.7101 23.3632C51.716 22.6144 52.0724 19.644 52.502 16.7629C52.9316 13.8817 53.1989 11.3832 53.0967 11.2102C52.7777 10.6717 52.1657 10.864 51.7627 11.6292ZM58.5579 11.9817C57.521 13.0155 57.4853 13.1999 57.8052 15.8581C57.9901 17.3927 58.1578 19.7802 58.178 21.1631C58.2103 23.4102 58.1246 23.6775 57.3735 23.6775C56.6291 23.6775 56.5341 23.4018 56.5434 21.2679C56.5492 19.9428 56.4421 18.8582 56.305 18.8582C55.9881 18.8582 54.6414 23.0854 54.6414 24.0799C54.6414 24.6791 54.7604 24.7294 55.2391 24.3334C55.6994 23.9525 56.0297 23.9592 56.6791 24.3636C57.8926 25.1192 59.5793 24.242 60.3224 22.4694C60.8058 21.3152 60.8264 20.5597 60.4326 18.3843C59.681 14.2346 59.7487 11.9896 60.631 11.8166C61.2631 11.6929 61.3665 12.0123 61.3665 14.0921C61.3665 15.4227 61.5237 16.3321 61.7158 16.1133C62.1487 15.6201 63.0478 12.5261 63.0478 11.5295C63.0478 10.9135 62.9419 10.8808 62.3997 11.3296C61.9083 11.7361 61.633 11.7483 61.2648 11.3811C60.5103 10.6289 59.7441 10.7991 58.5579 11.9817ZM76.498 11.765C76.498 12.8508 73.7037 22.9966 73.1304 23.9918C72.7458 24.6598 72.9635 24.7252 75.5682 24.7252H78.4281L79.3166 22.0013C79.805 20.5031 80.0278 19.2773 79.8122 19.2773C79.5962 19.2773 79.2385 19.7513 79.0178 20.3308C78.4445 21.8336 76.8498 23.8871 76.2559 23.8871C75.878 23.8871 75.9125 23.2291 76.3929 21.2679C77.1902 18.0146 77.7497 17.3085 77.7875 19.5078C77.8203 21.412 78.0632 20.9921 79.2141 17.0403C80.0257 14.2535 79.8042 13.4061 78.856 15.6699C78.149 17.3563 77.1095 17.8369 77.7392 16.1862C77.9477 15.6389 78.3323 14.401 78.5929 13.4354C79.2317 11.0702 80.0203 11.4654 80.2808 14.2811L80.491 16.5533L81.1749 13.9526C81.5511 12.5223 81.7562 11.2491 81.6305 11.1238C81.5044 10.9985 80.2985 10.8959 78.9497 10.8959C76.7489 10.8959 76.498 10.9847 76.498 11.765ZM95.1164 11.4532C95.3938 12.1732 92.3062 23.2836 91.5899 24.1444C91.1978 24.615 91.3205 24.7252 92.2368 24.7252C93.1279 24.7252 93.3175 24.5677 93.1308 23.9822C92.8896 23.2245 94.6852 16.0647 95.2408 15.5689C95.409 15.4189 95.4333 15.6113 95.2951 15.996C95.1572 16.3811 95.005 18.4555 94.9575 20.6057C94.8852 23.8498 94.9815 24.5375 95.5224 24.6435C96.4173 24.8191 96.4551 24.7311 98.2961 18.1701C99.1922 14.9759 100.065 12.0324 100.236 11.6292C100.476 11.061 100.341 10.8959 99.6323 10.8959C98.9581 10.8959 98.7761 11.0882 98.9388 11.6292C99.0598 12.0324 98.7955 13.5884 98.3508 15.0866L97.5421 17.8105L97.598 14.458L97.6539 11.1054L96.2664 10.97C95.1824 10.864 94.9306 10.97 95.1164 11.4532ZM113.322 11.4922C113.523 12.0139 112.008 18.419 110.985 21.3727C110.27 23.4399 110.07 24.1 110.096 24.3062C110.134 24.5941 112.566 24.6607 114.204 24.4185C115.421 24.2387 115.617 24.0019 116.201 21.9979C117.113 18.87 116.974 18.3331 115.823 20.5345C114.863 22.3696 113.239 24.1997 112.885 23.846C112.655 23.6172 114.035 18.5896 114.438 18.1885C114.608 18.0188 114.762 18.6189 114.78 19.5216C114.817 21.3383 114.78 21.4087 116.2 16.8215C117.032 14.1344 116.794 13.5641 115.752 15.7516C114.741 17.8763 114.545 16.9552 115.391 14.0531C116.242 11.1343 116.986 11.2244 117.269 14.2811L117.479 16.5533L118.023 14.458C118.323 13.3055 118.666 12.0324 118.787 11.6292C118.982 10.9797 118.669 10.8959 116.05 10.8959C113.664 10.8959 113.136 11.0111 113.322 11.4922ZM122.859 11.8388C121.659 13.1521 121.246 14.0619 120.468 17.1111C119.668 20.2466 119.588 23.5175 120.295 24.2223C121.059 24.9842 122.185 24.8271 123.117 23.8292C124.099 22.7786 125.392 19.2773 124.798 19.2773C124.576 19.2773 124.285 19.8154 124.153 20.4733C123.87 21.8877 122.103 24.2307 121.655 23.7878C121.383 23.5183 122.835 17.0583 124.059 13.096C124.698 11.0262 125.255 11.465 125.255 14.0389C125.255 15.3066 125.397 16.3434 125.57 16.3425C125.744 16.3417 126.19 15.1159 126.562 13.6186C127.234 10.9168 127.15 10.4311 126.18 11.3987C125.787 11.7897 125.675 11.7897 125.675 11.3987C125.675 10.5455 123.768 10.8435 122.859 11.8388ZM130.405 11.8388C130.429 13.0998 127.317 23.6398 126.869 23.8171C125.991 24.1645 126.651 24.6385 127.961 24.6016C129.395 24.5609 129.413 24.5366 130.261 21.4284C130.73 19.706 131.309 18.1022 131.547 17.865C132.15 17.2637 132.1 18.2166 131.407 20.5345C130.137 24.7801 130.135 24.7282 131.612 24.6087C132.672 24.5232 132.966 24.2927 133.073 23.4609C133.33 21.4741 136.126 12.0973 136.65 11.4687C137.106 10.9206 136.961 10.854 135.562 10.9709C134.523 11.0572 133.913 11.3296 133.852 11.734C133.589 13.4669 132.293 17.1819 131.95 17.1819C131.415 17.1819 131.447 16.9426 132.4 13.8294C132.859 12.3312 133.236 11.0585 133.238 11.0006C133.24 10.9428 132.599 10.8959 131.814 10.8959C130.61 10.8959 130.39 11.0425 130.405 11.8388ZM140.023 11.9662C138.331 14.1106 136.612 20.936 137.187 23.2224C137.499 24.4604 139.043 25.0232 140.295 24.3552C141.427 23.7509 142.667 20.9611 143.533 17.07C144.255 13.8206 144.139 11.8224 143.19 11.2206C142.209 10.5987 140.85 10.9185 140.023 11.9662ZM65.6483 13.9341C64.571 17.4967 65.0107 17.883 66.4768 14.6625C67.1383 13.21 67.7772 12.1191 67.8974 12.2386C68.0172 12.358 67.9382 12.9196 67.7221 13.4861C67.5061 14.0527 66.8088 16.4833 66.1729 18.8876C65.5369 21.2914 64.7333 23.5883 64.3873 23.9918C63.801 24.6754 63.8931 24.7252 65.7395 24.7252C66.8677 24.7252 67.6158 24.5559 67.4771 24.3317C67.343 24.1155 67.6335 22.4652 68.1231 20.6648C68.6124 18.8645 69.2883 16.3543 69.6245 15.0866C70.548 11.6091 71.1793 11.3887 70.8237 14.6675C70.4887 17.7586 71.0544 17.7297 71.8098 14.6168C72.0682 13.5515 72.3978 12.3731 72.5424 11.9976C72.771 11.4038 72.3906 11.3149 69.6228 11.3149H66.4406L65.6483 13.9341ZM84.3188 17.1748C83.4189 20.3971 82.4152 23.4144 82.0882 23.8795C81.5179 24.6913 81.5721 24.7252 83.4341 24.7252C84.6101 24.7252 85.273 24.5614 85.1166 24.3095C84.83 23.8469 86.0863 18.8754 86.6483 18.2506C87.177 17.6622 87.0955 18.4308 86.3801 20.7822C85.5046 23.6591 85.5722 24.2471 86.8126 24.5572C87.8958 24.8283 89.5279 23.8322 89.5279 22.9002C89.5279 22.6315 89.3328 22.6567 89.0235 22.9651C88.116 23.8699 87.9357 23.4957 88.5082 21.8965C89.2538 19.8137 89.2404 19.0707 88.446 18.4136C87.8579 17.9266 87.9025 17.8047 88.8511 17.3093C90.2512 16.5776 91.1276 13.8562 90.4446 12.3614C90.0318 11.4583 89.6918 11.3149 87.9605 11.3154L85.9551 11.3158L84.3188 17.1748ZM88.0496 14.8397C87.6738 16.128 87.2115 17.1819 87.0223 17.1819C86.8328 17.1819 86.9542 16.1921 87.2918 14.9818C88.1719 11.8291 88.3346 11.4448 88.5485 12.011C88.6498 12.2788 88.4249 13.5515 88.0496 14.8397ZM141.364 15.82C140.81 18.067 140.141 20.8019 139.879 21.8965C139.616 22.9911 139.245 23.8871 139.053 23.8871C138.59 23.8871 138.544 24.1591 139.913 18.782C140.577 16.1732 141.243 13.5205 141.392 12.8865C141.541 12.2524 141.823 11.734 142.017 11.734C142.212 11.734 141.918 13.5729 141.364 15.82ZM49.9452 18.7669C49.6976 19.7391 49.329 20.5345 49.126 20.5345C48.6296 20.5345 48.6498 20.3996 49.44 18.4303C50.297 16.2948 50.5345 16.4527 49.9452 18.7669ZM21.6821 21.9522C23.0494 23.4232 24.373 24.649 24.6235 24.6762C24.874 24.703 23.8497 23.4994 22.3471 22.0013C20.8444 20.5031 19.5204 19.2773 19.4053 19.2773C19.2897 19.2773 20.3144 20.4809 21.6821 21.9522Z" fill="black"/>
</svg>
