<svg width="35" height="57" viewBox="0 0 35 57" fill="none" xmlns="http://www.w3.org/2000/svg">
<path d="M23.7411 49.6719H19.7121V17.6769H25.2421V24.8659L24.9261 25.182L22.714 28.9741V30.7913H29.034V28.9741L26.9011 25.2612L26.5061 24.8662V17.6772H34.3271L25.9531 0.45459H9.04709L0.673096 17.6766H15.2881V49.7506H11.2592L7.3881 52.5156H3.35916V56.6235H31.5622V52.5156H27.5332L23.7411 49.6719ZM27.77 29.3689V29.606H23.8989V29.3689L25.795 26.0511L27.77 29.3689ZM2.64802 16.4129L9.83702 1.63993H25.163L32.352 16.4129H2.64802ZM16.552 17.6771H18.527V49.7511H16.552V17.6771ZM30.377 55.2811H4.62302V53.6222H7.78301L11.6541 50.8572H23.3461L27.2171 53.6222H30.3771L30.377 55.2811Z" fill="black"/>
</svg>
