<svg width="131" height="45" viewBox="0 0 131 45" fill="none" xmlns="http://www.w3.org/2000/svg">
<path d="M38.9791 34.1934C39.6179 34.2738 39.992 34.9662 40.6562 35.075C40.834 35.1408 41.0337 35.131 41.1976 35.0486C41.3621 34.9669 41.4746 34.821 41.5023 34.6528C41.3316 34.6799 41.1559 34.6837 40.9823 34.6645C40.2765 34.5757 39.7691 33.9922 39.8486 33.3608C39.9281 32.7294 40.5642 32.2898 41.27 32.3786C41.743 32.5101 42.1145 32.8497 42.2527 33.2765C42.9519 33.1067 43.4713 32.8753 42.8252 32.2776C42.3237 31.6819 41.4703 31.4197 40.6873 31.6218C40.5493 31.6938 40.4066 31.7575 40.2592 31.8128C39.8853 32.0554 39.5751 32.3681 39.3507 32.7306C39.4594 32.373 39.6481 32.0417 39.9057 31.7554C40.0231 31.4151 40.2955 31.1384 40.6564 30.9927C41.0173 30.847 41.4339 30.845 41.8048 30.9882C42.0603 31.122 42.3067 31.2697 42.5422 31.4295C43.336 31.7517 43.962 32.3416 44.2828 33.0675C44.2671 33.5832 44.12 34.0849 43.8532 34.536C43.5103 35.0967 43.0365 35.5819 42.4624 35.96C42.2726 36.1214 42.0189 36.2093 41.7543 36.2065C41.6437 36.2107 41.5332 36.1968 41.4277 36.1654C40.4718 35.6648 39.6373 34.9935 38.979 34.1935L38.9791 34.1934Z" fill="#555555"/>
<path d="M4.44703 7.00241L35.7326 5.8956C36.2278 6.12119 36.6131 6.50657 36.8087 6.97241C37.511 6.89299 38.2697 6.82066 38.8975 6.75777L38.8974 6.75841C40.1144 6.65239 41.3379 6.60423 42.5642 6.61342C43.4282 6.61913 45.2061 6.58435 45.2061 6.58435C45.6292 6.68619 45.983 6.95359 46.1675 7.31176C47.9708 7.19076 49.1576 6.92677 51.7294 6.54095C55.1098 6.21479 58.4395 5.60616 61.677 4.72234C64.4632 3.783 66.8664 2.21488 69.7355 1.64694L69.7354 1.64758C72.656 1.02643 75.702 0.940003 78.6931 1.39417C81.0483 0.990814 83.453 0.826293 85.8636 0.903546C89.8446 1.23672 94.3551 3.09428 98.2753 3.91026C106.513 5.60449 114.612 7.85284 122.505 10.6356C124.506 11.3519 130.729 13.4638 129.979 15.6398C130.128 16.0802 130.139 16.5456 130.013 16.9851C129.887 17.4241 129.627 17.8203 129.262 18.1301C128.779 18.633 128.143 18.9981 127.428 19.1821C126.712 19.3661 125.948 19.3619 125.223 19.1697C121.891 18.8183 118.591 18.2086 115.359 17.3478C109.184 15.5483 102.813 14.4044 96.3788 13.9402L96.0095 13.8937C96.5636 14.3535 97.1769 14.7513 97.8361 15.0779C96.1441 16.3746 92.574 11.0615 91.3083 14.0115C91.2939 14.1257 91.3786 14.2523 91.4196 14.3871C90.7397 13.5519 90.4498 12.5177 90.614 11.512C89.1171 11.2588 89.3707 12.8003 89.2706 13.8199C88.2122 12.6028 89.5567 11.5468 88.6574 10.4404L88.4919 10.2647L88.556 10.4406L88.5568 10.4401C88.5095 10.3784 88.4699 10.3131 88.4372 10.2449C87.9484 10.0026 87.4303 9.76961 86.9652 9.56921C85.2025 8.79277 83.503 8.08845 81.779 7.23986C80.5146 6.62916 78.1322 4.93639 76.6998 5.77525L76.6998 5.77461C76.8567 5.35118 77.2516 5.0387 77.7406 4.95123C77.9127 4.95344 78.0845 4.97506 78.2517 5.01555C78.9669 5.22541 79.6615 5.4897 80.3292 5.80567C80.3329 5.46534 80.2831 5.12476 80.1828 4.79401C80.0343 4.44878 79.9339 4.08953 79.885 3.72443L79.9563 3.7334L79.9556 3.73331C80.5117 4.40713 81.0105 5.11651 81.4475 5.85634C82.3516 6.77481 83.4422 7.52949 84.6577 8.07899C84.9553 6.66321 85.0507 5.21491 84.941 3.76724C87.2697 3.71171 85.3321 6.61603 84.9436 8.21798L85.4998 8.49464L85.4991 8.49455C86.2447 8.83069 87.0212 9.10529 87.8182 9.31508C88.0595 9.39405 88.2887 9.50127 88.4994 9.6334C90.1483 9.47936 91.6632 9.24433 93.1126 10.2139C93.2803 9.79641 93.2512 9.3308 93.0301 8.92396C92.8098 8.5172 92.4176 8.20351 91.9425 8.05431C92.2866 7.95572 92.9748 7.75854 93.2523 7.72868C93.8107 9.16084 94.7789 10.4444 96.0574 11.4489C96.8064 12.0064 97.637 12.4666 98.5241 12.8173C99.6741 12.962 100.353 12.1443 101.585 12.4412C102.424 16.5456 105.638 10.9389 106.163 10.4373C106.329 11.6323 104.892 13.0899 106.377 13.5476C106.5 12.5698 106.392 11.1374 107.809 11.4446C107.511 13.8192 108.519 13.8301 110.652 14.7566L110.652 14.7561C112.403 15.5899 114.265 16.2104 116.188 16.6007C117.043 15.4184 117.094 12.2644 118.809 12.0415C118.818 13.1136 117.281 15.4741 117.483 16.1572C117.795 17.2286 120.381 17.309 121.491 17.5388C123.809 18.0242 126.818 18.0672 128.349 16.3248C128.381 15.4424 127.956 14.585 127.2 13.9999L127.044 13.8643L126.847 13.7105L126.308 13.1782L126.066 13.0447C124.698 12.4009 123.292 11.8274 121.855 11.3278C118.73 10.1474 115.372 9.338 112.131 8.38848C105.461 6.38815 98.2395 5.22147 91.4072 3.48438C88.1231 2.453 84.6833 1.92878 81.2347 1.93343C80.4831 1.96713 79.736 2.04546 78.9987 2.16777C78.9987 2.16777 77.262 2.22005 78.1723 1.85711L78.173 1.8572C75.8448 1.94906 73.5352 2.21496 71.2669 2.65254C68.0529 3.41883 64.9758 4.56258 62.1143 6.05483C58.7139 7.63932 56.0782 7.26866 52.3265 7.4031C49.9477 7.51646 47.5362 7.88421 45.1114 8.13366C44.7319 8.74352 44.1852 9.30707 43.9477 9.81884L43.9484 9.81893C43.4634 10.9397 43.2009 12.1332 43.1728 13.3462C42.8418 15.4706 42.7931 17.6296 43.0261 19.7777C43.3015 21.1574 43.7404 22.5097 44.3353 23.813C44.3977 23.3174 44.6129 22.8676 44.6673 22.3199L44.6674 22.3192C44.682 22.8763 44.8182 23.4286 45.0691 23.9442C45.2301 24.6097 45.2739 25.1828 45.3786 25.8406C45.3611 25.9803 45.4393 26.2739 45.4975 26.6169L46.3797 28.9982L46.692 29.0375C45.858 27.6426 46.4663 24.1842 46.2645 23.0367C45.9486 21.1906 44.1169 18.677 45.5802 17.0166C47.2306 20.6302 47.812 25.8634 48.1748 29.9726C50.8729 31.3041 53.8073 32.1852 56.8307 32.5709C56.7085 31.1366 58.0854 29.4775 58.4562 28.1313L58.4569 28.1314C57.5124 27.9536 56.5562 28.2952 56.0259 28.9994C56.219 28.6447 56.3584 28.2677 56.4416 27.8778C54.4133 27.8415 51.6041 29.5393 49.5391 28.2991C49.686 28.1796 49.7863 28.0212 49.8265 27.8455C51.5715 27.8195 53.2469 27.2989 54.6138 26.3577C51.9028 24.9844 50.6752 23.2821 48.873 21.4428C50.7856 22.9734 54.7345 26.7728 57.5101 26.1417C54.5172 26.0877 54.2188 23.5343 53.1489 21.723C55.0248 23.6618 56.0327 24.5887 58.2867 24.7816L58.2875 24.7817C61.7199 24.4841 65.1084 23.9088 68.4094 23.0629L68.5092 23.0754C70.3149 22.6191 72.0293 21.9265 73.5984 21.0193C74.2627 20.2697 74.7705 19.4168 75.0982 18.4991C74.0796 19.1925 72.8197 19.5477 71.5248 19.5072C72.4473 18.8238 73.975 18.6027 74.073 17.2479C72.8088 16.5213 69.8004 16.8262 69.7476 15.181C71.0807 16.0453 74.3206 17.1113 74.3974 14.6699C73.9868 14.4919 73.5622 14.3433 73.1265 14.2262C73.0552 13.9756 72.9607 13.7311 72.8443 13.4942C76.5273 13.6739 78.708 13.4197 81.5111 15.5522C83.6963 17.2072 86.5866 19.1064 89.6228 18.4694C89.0197 19.9414 97.9002 21.4464 99.6779 21.5281C101.112 21.5925 103.316 21.6121 104.157 20.3113C104.783 19.3451 103.716 18.3077 103.551 17.4485L103.55 17.4484C103.415 17.6128 103.297 17.7877 103.196 17.9714C103.121 18.2619 103.084 18.5604 103.084 18.8605C103.087 18.9438 103.048 19.023 102.976 19.0743C102.905 19.1263 102.81 19.1448 102.719 19.1243L102.137 19.167C101.898 19.2082 101.654 19.2254 101.41 19.2173C101.627 19.1203 101.854 19.0407 102.089 18.9801C102.299 18.98 102.498 18.9085 102.648 18.7796C102.755 18.5774 102.821 18.3583 102.844 18.1338C102.845 18.0347 102.857 17.9371 102.881 17.8416C102.893 17.7402 103.156 17.141 103.3 16.9141L103.3 16.9135C101.523 16.9134 99.7625 16.5052 98.1866 15.7283C98.6159 16.6726 98.1455 17.8903 99.0584 18.8825C97.3747 18.2838 96.3355 16.7983 98.053 15.4146C99.3781 16.3427 102.916 16.4134 104.022 16.5655L104.101 16.5107C105.024 16.5109 105.167 17.78 105.314 18.3278C106.024 20.5974 103.557 21.9766 100.642 22.5777C102.284 26.4864 97.4435 28.6257 91.86 28.9934L91.8344 29.1969L91.7817 29.6159C91.8073 29.4125 91.7259 29.1443 91.9949 29.5268C93.358 35.1938 88.2963 36.0017 83.6394 34.848C85.7174 37.3545 82.2849 39.4247 78.6279 39.3772C75.9638 39.5143 73.2899 38.9808 70.9055 37.8378C69.1206 36.9958 67.6819 35.6529 66.8147 34.0207C65.4401 33.4862 63.1766 34.1693 61.7333 34.0648C59.6348 33.9705 57.5446 33.7074 55.4874 33.2788C53.7529 32.8538 52.4674 31.8407 50.6502 31.612L48.9328 31.3959C48.8641 31.9419 48.9087 32.5021 48.9271 33.0467C48.9492 33.9008 50.3827 37.2935 48.561 36.8705L48.5609 36.8712C48.561 37.2619 48.4678 37.646 48.2895 37.998C48.0024 39.0193 46.1001 39.0125 45.1109 39.0811C43.8173 39.1632 42.5317 39.0662 41.2223 39.0433C41.2918 40.8966 40.2573 43.5012 38.4537 43.8547L7.0969 44.9526C7.0969 44.9526 1.58651 40.3892 0.30475 25.0171C-0.975812 9.6472 4.44675 7.00156 4.44675 7.00156L4.44703 7.00241ZM66.6536 28.3114C66.3049 28.9588 66.3321 29.7268 66.726 30.3717C66.9242 30.6325 67.2502 30.7934 67.5976 30.8008C67.945 30.8083 68.2696 30.6625 68.4658 30.4099C68.9288 29.2398 68.928 27.9516 68.464 26.7587C67.9837 27.3812 67.3684 27.9089 66.6537 28.3113L66.6536 28.3114ZM73.3713 23.2874C73.4996 23.1079 73.5974 22.9116 73.6604 22.7044C73.3134 22.6134 72.9548 22.5683 72.5961 22.5705C72.3565 22.5805 72.1177 22.6023 71.8811 22.6353C71.5306 22.7849 71.1358 22.9413 70.7004 23.0802L70.6541 23.4482C70.6732 23.6249 70.6508 23.8022 70.5885 23.9693C70.7376 25.5359 72.426 24.6132 73.3713 23.2874L73.3713 23.2874ZM95.3457 24.6721C89.4248 23.1398 81.6756 17.4563 79.3489 24.9423L79.4907 24.9601C83.0869 26.4065 95.1417 28.0136 95.3869 24.6902L95.3457 24.6721ZM91.3395 31.1859C86.5175 30.8888 81.4967 30.4507 79.0433 26.8008L79.0433 26.8001C78.8913 28.0373 78.0316 29.0965 76.7735 29.5979C75.9987 29.8049 75.1888 29.8986 74.3732 29.8763C75.4309 30.4092 76.5071 31.254 77.3486 31.6696L78.0704 32.0054L79.1193 32.3829C80.2206 32.6433 81.356 32.7473 82.4835 32.6903C86.4799 32.6769 90.4754 35.7602 91.3804 31.2041L91.3395 31.1859ZM68.2544 34.4986C70.4967 35.9289 72.639 37.6951 75.5394 37.5696C77.0898 37.5069 83.2652 37.2519 83.4108 35.9802C80.7399 34.9735 76.6219 33.6681 74.7197 31.3646L74.719 31.3645C74.0834 30.9767 73.5156 30.5049 73.0353 29.9656C72.7428 29.9995 72.4441 29.9619 72.1691 29.8566C70.0127 29.6883 68.315 31.9516 67.7584 33.7391L67.7583 33.7397C67.8917 34.0144 68.068 34.2711 68.2823 34.5021L68.2544 34.4986ZM60.5721 33.0933C60.8559 33.129 62.2845 32.7801 62.5287 32.7849C63.4108 32.7669 64.5019 33.0332 65.6752 32.9871C65.2473 32.1461 65.5329 31.021 64.8761 30.6293C63.8028 29.9908 61.6389 31.602 61.108 32.2705C61.5704 31.3873 62.1585 30.564 62.8582 29.8201C62.5946 29.8776 62.3188 29.8824 62.0489 29.8349C61.9968 27.9579 60.1944 27.2665 58.9287 28.7328C57.9027 29.8936 59.1598 32.1678 56.7419 32.5861L57.8499 32.7248C58.7512 32.94 59.674 33.0645 60.6006 33.0969L60.5721 33.0933ZM48.6137 36.4515C49.2109 36.0621 48.8866 35.5438 48.743 34.7391C48.5996 33.9339 48.4663 33.2724 48.3918 32.4888L48.3917 32.4894C48.3573 32.084 48.3504 31.6782 48.3716 31.274C48.0535 31.1718 47.7823 30.9731 47.6057 30.7131L47.5546 31.1194C47.537 31.2591 47.4138 31.5533 47.3725 31.767C47.3311 31.9808 47.5905 32.4398 47.6925 32.7746L47.6924 32.7753C48.1441 33.9795 48.4664 35.2168 48.6549 36.4695L48.6137 36.4515ZM47.1744 37.9218C47.4166 37.8331 47.6249 37.685 47.7756 37.4947C47.5966 35.66 47.0938 33.8545 46.2862 32.1468C44.4387 28.1474 42.427 23.5081 42.1508 19.1776L42.1501 19.1775C41.9961 16.7409 41.9851 14.302 42.1179 11.8718C42.0555 10.088 42.954 8.40962 44.5312 7.36346C43.3924 7.27976 42.2517 7.34936 41.1457 7.56977C38.9181 7.83952 36.6741 8.00481 34.4213 8.06535L34.0093 8.0135C32.9235 10.2248 31.7381 14.6038 32.186 23.1872L32.1867 23.1873C32.2822 28.269 33.2766 33.3274 35.1312 38.1737C36.3013 38.1584 37.4739 38.2327 38.636 38.3951C40.798 38.5376 42.965 38.5253 45.1149 38.3591C45.8377 38.3075 46.5462 38.1615 47.2173 37.9272L47.1744 37.9218Z" fill="#555555"/>
</svg>
