<svg width="143" height="35" viewBox="0 0 143 35" fill="none" xmlns="http://www.w3.org/2000/svg">
<path fill-rule="evenodd" clip-rule="evenodd" d="M122.85 0.583623C122.553 0.962244 122.31 1.35281 122.31 1.45115C122.31 1.54974 121.997 1.77539 121.614 1.95276L120.917 2.27522L121.487 2.65994C122.1 3.07312 122.183 3.40549 121.819 3.98257C121.619 4.29944 121.532 4.29944 121.149 3.98257C120.893 3.77039 120.672 3.72414 120.622 3.87178C120.57 4.02374 119.238 4.1236 117.308 4.12004C114.616 4.11521 113.777 4.01484 112.256 3.51654C110.511 2.94505 109.433 2.93565 109.778 3.49519C109.867 3.63927 109.789 3.72592 109.604 3.68755C109.408 3.64664 109.237 3.89109 109.192 4.27861C109.087 5.18628 110.206 5.94886 111.148 5.61115C111.844 5.36161 116.182 5.78191 117.927 6.26827C118.457 6.41616 119.176 6.54601 119.525 6.55694C119.924 6.56939 120.43 6.90557 120.896 7.4669L121.634 8.35755L120.657 8.17357C120.12 8.07244 119.304 7.76675 118.843 7.49434L118.007 6.99883L116.909 7.64477C113.519 9.638 111.864 13.721 112.429 18.6944C112.715 21.208 113.122 22.2064 114.452 23.6543C116.974 26.3997 120.397 26.5756 121.553 24.0195C121.824 23.42 122.048 22.6504 122.051 22.3086C122.057 21.7122 122.023 21.7246 121.207 22.6186C120.391 23.5123 119.394 24.0734 118.622 24.0734C118.324 24.0734 118.259 23.4536 118.259 20.6429V17.2124H118.981C119.868 17.2124 121.28 16.291 121.791 15.3788C122.279 14.5049 122.065 14.3108 121.145 14.7923C120.741 15.0035 119.984 15.177 119.461 15.1781L118.512 15.1796V12.4136V9.64765L119.891 9.47486C121.383 9.28784 122.683 8.48917 122.457 7.89888C122.32 7.54059 123.503 6.88957 123.782 7.16959C123.856 7.24405 123.958 8.13088 124.009 9.13994C124.06 10.149 124.268 11.4676 124.472 12.0696C124.676 12.6718 124.843 13.2857 124.843 13.4341C124.843 13.5823 125.078 14.0356 125.366 14.4417C125.827 15.0914 126.031 15.1742 127.076 15.1351L128.261 15.0909L127.122 14.9921C125.744 14.8729 125.606 14.7527 125.456 13.5462C125.317 12.4149 125.709 12.5384 125.987 13.7131C126.156 14.4289 126.213 14.2623 126.396 12.5114C126.635 10.2273 126.529 9.32595 126.24 11.1774C126.136 11.8411 125.964 12.3844 125.858 12.3844C125.625 12.3844 125.358 11.1334 125.324 9.87508C125.3 9.02407 125.282 9.00222 125.077 9.58921C124.914 10.0583 124.876 9.84535 124.932 8.7753C124.974 7.97816 124.914 7.38457 124.799 7.45623C124.684 7.52788 124.582 7.43666 124.573 7.2537C124.564 7.07074 124.522 6.5638 124.478 6.12699C124.41 5.43226 124.515 5.27852 125.318 4.89736L126.235 4.46182L125.552 5.18323L124.869 5.90464H125.806C126.32 5.90464 126.836 6.01899 126.951 6.15875C127.076 6.31122 127.12 6.26294 127.059 6.03881C127.003 5.83298 126.717 5.60429 126.424 5.5306C125.94 5.40888 125.925 5.34993 126.261 4.89279C126.628 4.39245 126.638 4.39296 127.699 4.9586C129.531 5.93463 131.888 8.24371 132.699 9.85577C133.107 10.6671 133.557 11.4033 133.7 11.4915C134.245 11.8294 133.937 12.5552 133.073 12.9686L132.186 13.3927V12.6344C132.186 12.2174 132.187 11.8185 132.189 11.7479C132.191 11.6775 132.02 11.2061 131.809 10.7004C131.256 9.37169 131.353 9.09624 132.067 9.97037C132.41 10.3896 132.691 10.6349 132.691 10.5152C132.692 10.3957 132.418 9.97088 132.083 9.57117C131.621 9.01975 131.44 8.93336 131.333 9.21262C131.246 9.44106 131.021 9.51882 130.74 9.41718C130.387 9.28962 130.422 9.40244 130.901 9.92971C131.239 10.3015 131.415 10.6056 131.293 10.6056C131.172 10.6056 131.209 10.7429 131.376 10.9106C131.74 11.2762 131.785 11.9717 131.43 11.7514C131.207 11.6132 131.281 12.6408 131.56 13.5729C131.698 14.033 131.16 14.3367 129.875 14.523C128.765 14.6841 128.698 14.6594 128.581 14.047C128.513 13.6915 128.556 13.4008 128.676 13.4008C129.037 13.4008 128.922 12.2835 128.5 11.6787C128.241 11.308 128.207 11.1139 128.4 11.1139C128.561 11.1139 128.353 10.7253 127.938 10.2501C127.395 9.62936 127.216 9.20703 127.304 8.74811C127.393 8.28131 127.282 8.0328 126.894 7.82392C126.601 7.66688 126.362 7.64452 126.362 7.77437C126.362 7.90396 126.515 8.06888 126.701 8.14079C126.922 8.22566 127.001 8.54737 126.926 9.05736C126.853 9.55744 126.92 9.84332 127.11 9.84332C127.28 9.84332 127.348 10.0359 127.268 10.2898C127.184 10.5556 127.372 11.0226 127.731 11.4429C128.268 12.069 128.303 12.2396 128.046 12.9419C127.819 13.5596 127.825 13.7584 128.071 13.843C128.245 13.9027 128.388 14.1611 128.388 14.4173C128.388 14.6734 128.528 14.93 128.7 14.9877C128.872 15.0452 128.468 15.3008 127.802 15.5562C126.913 15.8967 126.517 15.9447 126.31 15.7373C125.99 15.4159 123.89 15.6105 123.386 16.0082C122.709 16.5434 123.124 17.6564 124.146 18.0446C124.811 18.2972 124.686 18.6355 123.702 19.2456C122.581 19.9411 122.448 20.5009 122.919 22.5299C123.128 23.4272 123.245 24.2479 123.18 24.3536C123.115 24.4593 123.234 25.6117 123.445 26.9143C123.936 29.9524 123.941 31.3452 123.463 31.5294C123.205 31.6288 123.142 31.5487 123.252 31.2608C123.366 30.9638 123.316 30.9089 123.07 31.0613C122.815 31.2194 122.773 31.1508 122.901 30.7854C123.009 30.4771 122.878 30.5549 122.543 30.9978C122.018 31.6928 121.297 31.9413 121.297 31.4275C121.297 31.2796 121.403 31.2242 121.533 31.3045C121.663 31.3851 121.842 31.3317 121.932 31.1863C122.021 31.0407 121.944 30.9531 121.759 30.9914C121.571 31.0308 121.44 30.8626 121.461 30.6077C121.487 30.2746 121.414 30.2235 121.184 30.4149C121.012 30.5584 120.796 30.6006 120.704 30.5086C120.562 30.3661 120.503 30.5384 120.472 31.1884C120.468 31.2583 120.254 31.5154 119.995 31.7601C119.559 32.1723 119.525 32.1733 119.525 31.7751C119.525 31.3985 119.476 31.4062 119.126 31.8386C118.907 32.1098 118.804 32.1812 118.898 31.9972C119.007 31.7853 118.875 31.6115 118.54 31.5236C118.249 31.4471 118.077 31.2778 118.157 31.1472C118.245 31.0044 118.435 31.0186 118.631 31.1825C118.874 31.3843 119 31.349 119.115 31.0471C119.334 30.4746 119.344 30.4827 118.605 30.6243C118.239 30.6946 117.884 30.9645 117.816 31.2245C117.748 31.4842 117.618 31.6966 117.526 31.6966C117.434 31.6966 117.402 32.1532 117.455 32.7115C117.52 33.3887 117.648 33.6685 117.842 33.5521C118.019 33.4456 118.007 33.5325 117.811 33.7755C117.635 33.9942 117.558 34.352 117.642 34.5706C117.844 35.0996 118.517 34.8231 118.348 34.2801C118.233 33.9073 118.258 33.9023 118.554 34.2377C118.996 34.737 120.026 34.8793 120.049 34.4443C120.059 34.2552 120.142 34.3012 120.241 34.5507C120.396 34.9431 120.488 34.9527 121.091 34.6387C121.68 34.3325 121.788 34.3368 121.916 34.6717C122.03 34.971 122.142 34.9914 122.417 34.7622C122.612 34.5998 122.832 34.565 122.905 34.6844C123.078 34.9639 124.843 34.7632 124.843 34.4641C124.843 34.3396 124.963 34.2377 125.111 34.2377C125.258 34.2377 125.314 34.3436 125.234 34.473C124.99 34.8684 128.936 35.1281 129.337 34.7431C129.372 34.7098 129.505 34.6681 129.633 34.6506C129.761 34.6331 129.944 34.539 130.042 34.4415C130.139 34.3439 130.48 34.4359 130.799 34.6458C131.118 34.8559 131.439 34.9306 131.512 34.8122C131.645 34.5965 139.25 34.6346 139.467 34.8521C139.53 34.9156 139.874 34.8562 140.23 34.7202C140.587 34.5843 141.389 34.5497 142.013 34.6437C142.83 34.7667 143.098 34.7337 142.97 34.5261C142.872 34.3675 142.621 34.2377 142.412 34.2377C142.203 34.2377 142.104 34.1215 142.191 33.9795C142.279 33.8375 142.474 33.7978 142.625 33.8916C142.777 33.9853 142.828 33.9455 142.741 33.8029C142.653 33.6606 142.301 33.5747 141.959 33.6123C141.534 33.6593 141.377 33.576 141.464 33.3498C141.533 33.1676 141.469 32.943 141.32 32.8508C141.171 32.7585 141.046 32.8327 141.042 33.0157C141.037 33.2319 140.948 33.2004 140.788 32.926C140.653 32.6937 140.087 32.4264 139.53 32.3319C138.907 32.2264 138.517 32.0219 138.517 31.8013C138.517 31.6038 138.415 31.4425 138.291 31.4425C137.743 31.4425 137.754 30.5574 138.308 30.1387C138.962 29.6434 139.329 29.7387 139.098 30.344C139.011 30.5722 139.108 30.8781 139.317 31.0346C139.524 31.1891 139.824 31.5441 139.984 31.8237C140.659 33.0055 140.212 31.5586 139.277 29.5367C138.72 28.3322 138.264 27.2568 138.264 27.147C138.264 27.0373 138.04 26.7443 137.767 26.496C137.493 26.2478 137.143 25.6585 136.987 25.1861C136.832 24.714 136.613 24.3275 136.5 24.3275C136.254 24.3275 135.346 22.5142 135.435 22.2016C135.47 22.0804 135.324 21.7147 135.111 21.389C134.898 21.0632 134.789 20.6279 134.867 20.4221C134.946 20.216 134.88 19.8021 134.72 19.502C134.56 19.2021 134.429 17.914 134.429 16.6392C134.429 15.2192 134.3 14.0696 134.095 13.6707C133.817 13.1284 133.819 12.966 134.106 12.699C134.508 12.3247 134.254 11.4434 133.447 10.4143C133.172 10.0626 132.946 9.61386 132.946 9.41692C132.946 8.39083 128.012 4.25294 126.789 4.25294C126.189 4.25294 126.151 4.18586 126.284 3.36356C126.396 2.67646 126.341 2.47419 126.046 2.47419C125.836 2.47419 125.519 2.29911 125.342 2.08489C125.06 1.74388 125.103 1.72711 125.688 1.95047C126.281 2.17688 126.373 2.13673 126.509 1.59192C126.719 0.752605 126.525 0.527465 125.415 0.325704C124.891 0.230413 124.221 0.0944653 123.926 0.0235691C123.549 -0.0668933 123.229 0.0995475 122.85 0.583623ZM124.067 0.744727C124.516 1.02602 124.521 1.07176 124.127 1.37187C123.734 1.67197 123.737 1.69636 124.161 1.70373C124.413 1.7083 124.552 1.82113 124.47 1.95479C124.231 2.34256 123.576 1.9586 123.576 1.43056C123.576 1.16604 123.456 0.949538 123.308 0.949538C123.161 0.949538 123.11 0.83519 123.197 0.695431C123.396 0.371443 123.479 0.376017 124.067 0.744727ZM15.3815 1.31266C14.0416 1.79241 13.6744 2.16773 13.6744 3.05711C13.6744 3.48325 13.4807 4.04661 13.2439 4.3091C12.8378 4.75938 12.8411 4.83841 13.2981 5.69043C13.7752 6.57905 13.7752 6.59988 13.3007 6.94801C13.035 7.14291 12.6643 7.30224 12.4764 7.30224C11.6012 7.30224 10.1581 8.37889 9.22872 9.72541C7.16591 12.7135 6.83722 13.2606 6.83722 13.706C6.83722 13.9573 6.6635 14.1631 6.45104 14.1631C6.22516 14.1631 6.00232 14.4772 5.91394 14.9199C5.83113 15.3359 5.60601 15.8072 5.41381 15.9673C5.22186 16.1274 5.06461 16.6885 5.06461 17.2145C5.06461 18.1671 4.83746 18.7531 3.96204 20.06C3.70881 20.4381 3.57308 20.8637 3.66044 21.0058C3.74806 21.1476 3.63132 21.5521 3.40139 21.9043C3.1712 22.2565 3.04889 22.7169 3.12942 22.9273C3.21982 23.1637 3.03167 23.4704 2.63815 23.7293C2.20665 24.0129 2.05648 24.2802 2.17348 24.5557C2.26869 24.7795 2.45203 25.9919 2.58118 27.2497C2.71007 28.5075 2.87695 30.0797 2.95165 30.7437C3.04054 31.5327 2.99141 31.9507 2.8101 31.9507C2.65715 31.9507 2.5323 31.7573 2.5323 31.521C2.5323 31.1444 2.48318 31.152 2.13372 31.5845C1.74222 32.0689 1.73716 32.0681 1.84656 31.5449C1.93822 31.1071 1.84022 31.0164 1.29553 31.0367C0.415804 31.0695 0.0200052 31.7911 0.00886302 33.3824L0 34.6869L5.82379 34.6529C10.8076 34.6237 11.6501 34.564 11.6658 34.2377C11.6823 33.899 11.7033 33.899 11.8562 34.2377C12.0507 34.6684 12.9147 34.8272 12.9147 34.4323C12.9147 34.2854 13.0776 34.3111 13.2946 34.4918C13.5035 34.6658 13.6744 34.7068 13.6744 34.583C13.6744 34.459 14.2158 34.3871 14.8773 34.4227C16.1477 34.4913 18.6892 34.5032 19.4354 34.4443C19.6793 34.425 20.0303 34.2278 20.2159 34.0057C20.523 33.6385 20.5418 33.639 20.4263 34.0138C20.3136 34.38 20.7299 34.4285 24.2043 34.4532C27.1354 34.474 28.1096 34.4031 28.1124 34.1688C28.1151 33.9485 28.1711 33.9399 28.3023 34.1391C28.4046 34.2943 28.8672 34.476 29.3301 34.5426C30.0845 34.6509 30.1572 34.6084 30.0301 34.133C29.9521 33.841 29.8865 33.5165 29.8847 33.4118C29.8827 33.3071 29.7062 33.2212 29.4925 33.2212C29.1823 33.2212 29.1585 33.1186 29.3747 32.713C29.5239 32.4335 29.5884 32.2048 29.5183 32.2048C29.4481 32.2048 29.221 32.5194 29.0131 32.9036L28.6353 33.6024L28.6251 32.8274C28.6196 32.4012 28.7004 31.9413 28.8049 31.8056C28.9093 31.6699 28.7956 31.7741 28.5517 32.0371C28.1179 32.5049 28.1086 32.5049 28.1086 32.0297C28.1086 31.7627 28.1942 31.4331 28.2985 31.2974C28.4028 31.1617 28.2891 31.2659 28.0453 31.5289C27.8016 31.7919 27.6003 31.9085 27.5983 31.7883C27.596 31.6679 27.4838 31.7411 27.3489 31.9507C27.1319 32.2879 27.103 32.2871 27.0994 31.9438C27.0974 31.7301 27.2757 31.2727 27.4957 30.9274L27.8958 30.299L27.3691 30.899C27.0794 31.2288 26.831 31.6862 26.8171 31.9154C26.8032 32.1481 26.709 32.0516 26.6041 31.6966C26.4955 31.3292 26.533 30.9005 26.6927 30.6802C26.9323 30.3498 26.9103 30.3453 26.5287 30.6454C26.2866 30.8359 26.1501 31.0923 26.2258 31.2151C26.3015 31.3381 26.2347 31.6394 26.0774 31.8851C25.8067 32.3075 25.7988 32.3077 25.929 31.8872C26.0047 31.6425 25.9564 31.4425 25.8216 31.4425C25.6867 31.4425 25.5682 31.6425 25.5585 31.8872C25.5433 32.2673 25.5092 32.2582 25.323 31.8237C25.1217 31.3538 25.1017 31.3632 25.0576 31.9507C25.0133 32.5413 24.9979 32.5324 24.8391 31.8237L24.6684 31.0613L24.4957 31.8872C24.3126 32.7618 23.5659 33.0568 23.5304 32.2683C23.5183 32 23.4595 31.9502 23.3823 32.1428C23.3116 32.3184 23.1442 32.3941 23.01 32.3108C22.8626 32.2196 22.8963 32.0003 23.0949 31.7571C23.381 31.4069 23.3494 31.3736 22.853 31.5019C22.0936 31.6984 21.8588 30.8159 22.3957 29.7827C22.6112 29.368 22.7882 28.4852 22.7892 27.8215C22.79 27.1577 22.8966 26.6144 23.026 26.6144C23.1551 26.6144 23.4311 26.4439 23.6388 26.2353C23.9244 25.9487 24.0032 25.3287 23.9617 23.6942C23.9265 22.3223 24.0032 21.5323 24.1716 21.5323C24.3175 21.5323 24.7512 21.9277 25.1356 22.4112C27.4352 25.3032 31.164 25.8862 33.3479 23.6947C34.5393 22.4992 34.4859 21.8517 33.2643 22.6834C32.7366 23.043 31.9792 23.311 31.4917 23.311C30.7335 23.311 30.6404 23.2348 30.6353 22.6122C30.6138 19.8455 30.1103 6.89185 29.9789 5.71406L29.8158 4.25294H30.6183C31.511 4.25294 33.1825 3.48122 33.9432 2.71788C34.6439 2.01476 34.5599 1.62089 33.8141 2.11107C33.0473 2.61547 31.0496 2.49731 29.3747 1.84857C27.3243 1.05423 23.9761 1.7698 22.4157 3.33561C21.6535 4.10048 21.4798 5.09861 22.221 4.45547C23.2848 3.53229 25.4241 3.25277 27.4702 3.76988L28.5755 4.04915L27.6885 4.83078C25.3701 6.8733 23.6312 10.8915 23.5089 14.4882C23.4833 15.2416 23.3633 15.6637 23.1926 15.5999C22.9019 15.4914 22.8996 15.328 23.1789 14.6078C23.2757 14.3586 23.2357 14.1631 23.088 14.1631C22.9434 14.1631 22.752 14.3936 22.6628 14.6752C22.574 14.9567 22.4081 15.1293 22.2946 15.0591C22.1812 14.9887 21.9606 15.0856 21.8044 15.2746C21.5755 15.5513 21.6436 15.5945 22.1554 15.4962C22.6259 15.406 22.7907 15.4832 22.7907 15.7933C22.7907 16.3104 22.5119 16.4135 20.8282 16.5205C19.3969 16.6115 19.0125 16.2809 20.2584 16.0308C20.6763 15.947 21.0181 15.7996 21.0181 15.703C21.0181 15.4441 19.3227 14.6785 19.1447 14.8571C18.8773 15.1255 18.9804 15.9439 19.3787 16.7169C19.5912 17.1291 19.6854 17.4666 19.5881 17.4666C19.3022 17.4666 17.4866 16.5891 17.4795 16.4476C17.4759 16.3762 17.9317 15.8436 18.4924 15.2637C19.3415 14.386 19.638 14.2295 20.265 14.3286C21.2151 14.479 21.2432 14.2155 20.3119 13.8897C19.4618 13.5922 19.2939 12.6057 19.8616 11.2422C20.1655 10.5126 20.1711 10.3515 19.8928 10.3515C19.7059 10.3515 19.4843 10.5309 19.4005 10.7502C19.2923 11.0328 19.0824 11.0961 18.679 10.9677C18.1746 10.8071 18.149 10.8336 18.4529 11.201C18.6413 11.4289 18.7241 11.803 18.6365 12.0322C18.5489 12.2614 18.5955 12.592 18.7401 12.7668C19.0768 13.1739 18.6284 14.4483 18.1809 14.3555C18.007 14.3197 17.8272 14.5357 17.7813 14.8355C17.7355 15.1354 17.4914 15.5681 17.2389 15.7973C16.8011 16.195 16.7844 16.1599 16.8775 15.0365C16.9315 14.3888 17.0875 13.6488 17.2242 13.3924C17.361 13.1358 17.4729 12.343 17.4729 11.6302C17.4729 10.4186 17.5306 10.3002 18.3592 9.80952C18.8467 9.52111 19.2455 9.13029 19.2455 8.94098C19.2455 8.65257 19.3777 8.65307 20.0667 8.94377C21.2511 9.4436 21.479 9.93022 20.9497 10.8293C20.4428 11.6904 20.3754 12.1145 20.8155 11.6729C21.2453 11.2417 21.4666 11.2927 21.6476 11.8645C21.7383 12.1516 21.6173 12.6482 21.3605 13.0415C20.9221 13.7129 20.9234 13.7192 21.4749 13.5436C22.1397 13.332 22.5788 14.0742 22.0047 14.4391C21.8036 14.5667 21.7743 14.6653 21.9368 14.6676C22.479 14.6749 22.8829 13.9456 22.5557 13.55C22.3924 13.3523 22.2007 12.87 22.1298 12.4779C22.0589 12.0858 21.8712 11.6081 21.7127 11.4162C21.5539 11.2244 21.4506 10.6742 21.4828 10.1935C21.538 9.37194 21.464 9.28352 20.2496 8.71889C19.5392 8.3888 19.108 8.06786 19.2916 8.00586C19.7603 7.84806 19.6524 5.03407 19.1391 4.03822C18.9191 3.61107 18.739 2.97859 18.739 2.63224C18.739 1.89939 17.6702 0.943948 16.8689 0.960719C16.5744 0.966818 15.9049 1.12513 15.3815 1.31266ZM126.362 1.35789C126.362 1.41278 126.049 1.45598 125.666 1.45394C125.159 1.45115 125.066 1.38838 125.326 1.22321C125.649 1.0184 126.362 1.11115 126.362 1.35789ZM16.7132 2.47419C16.564 2.7537 16.3283 2.9824 16.189 2.9824C16.0259 2.9824 16.0325 2.80097 16.2067 2.47419C16.3559 2.19467 16.5916 1.96597 16.7309 1.96597C16.894 1.96597 16.8874 2.1474 16.7132 2.47419ZM56.5843 2.24066C56.5175 2.34891 56.6679 2.5029 56.9183 2.58269C58.1065 2.96106 58.7444 5.64799 58.7474 10.288C58.7492 12.7633 58.694 13.1467 58.3362 13.1467C57.7005 13.1467 56.287 14.1133 55.6876 14.958C55.0196 15.8992 55.2404 16.1803 56.2007 15.6108C56.6008 15.3737 57.3382 15.1796 57.8388 15.1796H58.7494L58.7411 17.5301C58.7365 18.823 58.6327 20.6602 58.5104 21.6131L58.2878 23.3453L59.2151 24.2174C60.2493 25.1904 61.13 25.5314 61.6016 25.1416C61.9713 24.8362 66.3375 22.2946 66.493 22.2946C66.7561 22.2946 66.5659 23.2808 66.283 23.3824C65.9926 23.4869 66.2838 23.7905 67.8505 25.0181C68.1828 25.2786 68.1076 25.3289 67.376 25.3358C65.0035 25.3579 62.8011 27.5889 62.8011 29.9704C62.8011 32.8175 64.6337 34.7774 67.4522 34.9449C68.8356 35.0269 69.1367 34.9522 70.2086 34.2616C71.8523 33.2022 72.4218 32.1929 72.4228 30.3374C72.4241 28.5233 71.9192 27.3813 70.6242 26.2691L69.65 25.4323L70.5267 24.5795C71.4591 23.6729 71.5408 23.3207 70.6966 23.85C70.2838 24.1084 70.1093 24.1059 69.7855 23.8363C68.7599 22.9822 69.943 22.3378 71.6771 22.8064C72.8913 23.1344 74.3365 24.3488 74.5558 25.2252C74.7245 25.9001 74.9377 25.8691 76.0957 25.0019C76.5989 24.625 76.5981 24.6182 76.0104 23.9905L75.4188 23.3586L75.6085 15.775L75.7979 8.19161L76.2651 9.20805C76.6857 10.1228 76.726 10.8519 76.6672 16.5015C76.626 20.4803 76.5044 22.8763 76.335 23.046C76.1474 23.2338 76.4168 23.693 77.2365 24.5828C77.8795 25.2809 78.5077 25.8521 78.6326 25.8521C78.7577 25.8521 79.2917 25.429 79.8192 24.9119L80.7787 23.972L81.6146 24.7849C82.0745 25.2321 82.5652 25.598 82.7053 25.598C83.1082 25.598 85.0854 24.0599 85.0854 23.7463C85.0854 23.5509 84.9917 23.5575 84.7815 23.7684C84.4224 24.1288 83.8192 24.1732 83.8192 23.8393C83.8192 23.3667 85.27 23.2877 86.3062 23.7036C87.2009 24.0629 87.6757 24.6232 87.7319 25.3863C87.7671 25.8643 88.1039 25.7741 88.7289 25.1195C89.4807 24.332 89.5187 24.054 89.6043 18.6975L89.6435 16.2438L90.9049 16.0697C92.4331 15.8588 93.3506 15.1811 93.9748 13.8021C94.5458 12.5399 94.6025 10.1045 94.0842 9.09853C93.1779 7.3401 91.131 6.51247 89.058 7.06617C87.7729 7.40947 87.2616 7.84349 86.3958 9.32595C85.7397 10.4496 85.7329 10.5152 85.7141 15.8062C85.7007 19.548 85.601 21.3226 85.3814 21.7229C85.0112 22.3975 85.1145 22.4239 86.1066 21.9091C87.5407 21.1651 87.724 20.415 87.8772 14.6714C87.9902 10.4377 88.0973 9.31045 88.4483 8.65231C89.2042 7.23541 89.3581 7.44301 89.2811 9.77598C89.2406 11.001 89.1918 12.7788 89.1723 13.7266C89.1409 15.2617 89.0753 15.4731 88.5713 15.6601L88.0059 15.87L88.5713 16.0502C89.1231 16.2257 89.1371 16.3223 89.1371 19.9901V23.7501L87.9547 23.1494C86.5792 22.4506 85.3753 22.3853 84.2864 22.9502L83.5128 23.3517L83.6027 17.2849C83.683 11.8645 83.7435 11.1405 84.1694 10.4882L84.646 9.75819L83.8506 9.10208C83.413 8.74099 83.056 8.36746 83.0573 8.27166C83.0585 8.17586 82.9468 7.80029 82.8093 7.43717L82.5589 6.77649L80.7202 8.07447L78.8812 9.37245L78.2947 8.08311C77.9721 7.37415 77.6034 6.79402 77.4755 6.79402C77.3477 6.79402 76.6599 7.15384 75.9476 7.5937C74.6452 8.39795 74.4482 8.38118 74.1195 7.43895C74.0724 7.30452 73.3013 7.12284 72.4059 7.03542C71.5105 6.94801 70.5783 6.78868 70.3347 6.68094C69.4849 6.30613 69.8855 7.03695 70.8987 7.70957C72.2167 8.58497 72.279 8.98748 72.0506 15.1313C71.8951 19.3175 71.7984 20.168 71.4482 20.4353C71.0653 20.7278 71.0683 20.7545 71.4869 20.7618C72.3894 20.7778 73.3904 20.0102 73.9326 18.886C74.4092 17.898 74.5001 17.1558 74.6305 13.1739C74.7407 9.81104 74.8663 8.56439 75.1035 8.47291C75.3628 8.37305 75.3988 9.78716 75.2854 15.6393C75.2076 19.6491 75.1195 22.9599 75.0894 22.9965C75.059 23.033 74.4884 22.8206 73.8209 22.5243C72.8776 22.1058 72.2484 22.0087 70.9961 22.0888L69.3851 22.1917L69.3542 17.3514C69.3372 14.6894 69.2858 11.2282 69.24 9.6601C69.1924 8.0328 69.26 6.74447 69.3975 6.65934C69.5299 6.57727 69.6383 6.35111 69.6383 6.15723C69.6383 5.79385 67.2005 2.40913 66.8373 2.2681C66.6218 2.1845 63.5221 4.34976 62.0548 5.60912L61.1817 6.35848L60.8257 5.07396C60.3622 3.40244 59.3736 2.45005 57.8631 2.22008C57.2265 2.12301 56.6509 2.13241 56.5843 2.24066ZM124.378 2.78725C124.49 2.96436 124.583 3.20195 124.585 3.31503C124.588 3.42811 124.713 3.44412 124.864 3.35035C125.463 2.97884 124.937 4.35281 124.298 4.82977C123.513 5.41574 122.857 5.21754 123.366 4.54796C123.542 4.31571 123.59 4.20771 123.472 4.30757C123.1 4.62191 122.309 4.00595 122.33 3.4182C122.341 3.10869 122.408 2.99841 122.478 3.17298C122.548 3.34781 122.764 3.49062 122.956 3.49062C123.154 3.49062 123.247 3.33434 123.17 3.13156C123.09 2.92319 123.226 2.71406 123.495 2.63249C123.748 2.5555 123.643 2.52958 123.26 2.57507C122.817 2.62767 122.563 2.53822 122.563 2.3296C122.563 1.91769 124.068 2.29707 124.378 2.78725ZM111.285 3.47486C111.366 3.60573 112.362 4.00696 113.5 4.36627C114.995 4.83841 115.617 4.93802 115.748 4.72635C115.858 4.54694 116.233 4.49434 116.714 4.59091C117.193 4.68696 117.499 4.64452 117.499 4.48164C117.499 4.1513 119.012 4.25625 119.51 4.62089C119.792 4.82723 119.827 4.80842 119.665 4.53754C119.524 4.303 119.561 4.2227 119.776 4.29462C119.953 4.35382 120.129 4.7947 120.166 5.2742C120.229 6.07845 120.207 6.10844 119.879 5.65917C119.569 5.23278 119.525 5.22567 119.525 5.602C119.525 6.11327 118.513 6.18645 117.675 5.73592C117.372 5.57329 116.496 5.40888 115.729 5.37051C113.086 5.23863 112.403 5.12199 112.183 4.76497C112.005 4.47579 111.86 4.52636 111.425 5.02873C110.939 5.58955 110.913 5.59616 111.154 5.09556C111.559 4.25574 111.48 3.85043 110.852 3.54652C110.419 3.33739 110.385 3.26675 110.71 3.25379C110.946 3.24413 111.204 3.34374 111.285 3.47486ZM17.657 3.99883C18.1065 4.35357 18.1814 4.50705 17.9049 4.50705C17.6871 4.50705 17.3301 4.3274 17.111 4.10785C16.3407 3.3346 16.7195 3.25887 17.657 3.99883ZM65.8454 4.93802C66.5671 6.07998 66.5996 6.2543 66.5996 8.99485C66.5996 11.5659 66.5494 11.8851 66.1098 12.1214C65.4215 12.4909 64.9277 12.4492 64.4623 11.9821C64.1247 11.6434 64.0771 11.0209 64.1602 8.04347C64.2483 4.87551 64.4669 3.74473 64.99 3.74473C65.0457 3.74473 65.4307 4.28166 65.8454 4.93802ZM110.788 4.25294C111.079 4.72507 110.662 5.01959 110.154 4.70119C109.803 4.48138 109.754 4.3434 109.975 4.20212C110.39 3.93759 110.602 3.95081 110.788 4.25294ZM125.597 4.38609C125.421 4.59904 125.225 4.72101 125.161 4.65723C124.985 4.48088 125.342 3.99883 125.648 3.99883C125.816 3.99883 125.797 4.14469 125.597 4.38609ZM29.7151 6.73049C30.0184 11.326 29.9711 11.8546 29.2316 12.1366C28.3104 12.4881 27.0197 12.4436 26.4717 12.0413C26.1065 11.7733 26.0371 11.4948 26.1546 10.7683C26.2372 10.2567 26.4828 9.6596 26.7003 9.44132C26.9176 9.22329 27.0956 8.64698 27.0956 8.16087C27.0956 7.26463 27.5249 6.21948 28.4129 4.95174C29.2894 3.70127 29.5375 4.04051 29.7151 6.73049ZM123.26 5.45487C123.713 5.93183 124.083 6.38999 124.083 6.47334C124.083 6.55643 124.008 6.54931 123.916 6.45733C123.825 6.36534 123.598 6.41642 123.413 6.57066C122.964 6.9442 122.311 6.66824 122.306 6.1031C122.303 5.71838 122.266 5.70771 122.059 6.0317C121.925 6.24134 121.877 6.61183 121.952 6.85526C122.028 7.0987 122.014 7.4204 121.922 7.57057C121.641 8.0267 120.791 7.04254 120.791 6.26141C120.791 5.87212 120.677 5.48257 120.537 5.39592C120.368 5.29097 120.369 5.07676 120.542 4.75303C120.922 4.04025 122.241 4.38076 123.26 5.45487ZM63.7877 12.0668C63.7219 21.3694 63.577 23.5496 63.0001 23.9128C62.6535 24.1313 62.4182 24.0439 61.8287 23.477L61.091 22.768L61.1614 14.7552C61.2002 10.3482 61.3286 6.64689 61.4468 6.53026C61.6993 6.28072 63.6525 4.80385 63.7634 4.77844C63.8052 4.76904 63.8161 8.04881 63.7877 12.0668ZM16.6096 5.71228C16.4339 5.88838 15.9535 5.53034 15.9535 5.22338C15.9535 5.05465 16.0989 5.07396 16.3394 5.27446C16.5516 5.45131 16.6732 5.64825 16.6096 5.71228ZM18.0528 5.55143C17.9026 5.70212 17.5684 5.77073 17.3098 5.7039C16.9229 5.60403 16.9406 5.5771 17.4096 5.55296C17.7228 5.5367 17.9793 5.39007 17.9793 5.22694C17.9793 5.06405 18.0573 5.00866 18.1523 5.1042C18.2475 5.19975 18.2027 5.401 18.0528 5.55143ZM15.7003 6.0317C15.7003 6.17146 15.6501 6.28581 15.5886 6.28581C15.5271 6.28581 15.4065 6.17146 15.3204 6.0317C15.2343 5.89194 15.2847 5.77759 15.4321 5.77759C15.5795 5.77759 15.7003 5.89194 15.7003 6.0317ZM17.7261 6.28581C17.7261 6.42556 17.6122 6.53991 17.4729 6.53991C17.3336 6.53991 17.2197 6.42556 17.2197 6.28581C17.2197 6.14605 17.3336 6.0317 17.4729 6.0317C17.6122 6.0317 17.7261 6.14605 17.7261 6.28581ZM36.9716 6.37754C36.2674 6.60751 35.9387 6.95386 35.3715 8.06456L34.6576 9.46215L34.7039 16.069C34.7635 24.517 34.7657 24.4721 34.2947 24.9447C33.9329 25.3076 33.9437 25.3439 34.4132 25.3439C34.7442 25.3439 35.2795 24.8644 35.9022 24.0098L36.8746 22.6758L36.8513 19.5596L36.8278 16.4433L37.6376 15.6558L38.4474 14.868L38.5956 16.2308C38.7923 18.0396 38.9058 24.3282 38.742 24.3277C38.6708 24.3277 38.4705 24.0988 38.2965 23.8193C37.9706 23.2953 37.4781 23.1309 37.4781 23.5456C37.4781 23.6747 37.7832 24.144 38.156 24.5887C38.8116 25.3703 38.8886 25.394 40.4692 25.2928C41.8764 25.2029 42.1889 25.0898 42.7106 24.4812C43.2953 23.7992 43.3155 23.6399 43.2806 20.0076C43.2608 17.9361 43.3216 16.116 43.4161 15.9627C43.5105 15.8095 43.4042 15.6136 43.1801 15.5272C42.956 15.4408 42.4799 14.7842 42.1223 14.0679C40.8997 11.6193 40.9691 11.6216 38.7779 13.9606L36.845 16.024L36.6328 12.9973C36.3026 8.28868 36.3233 8.03356 37.0906 7.37135C37.9739 6.60903 39.3358 6.59429 39.8574 7.34162C40.117 7.71364 40.1654 8.02797 40.0081 8.32273C39.705 8.89117 40.2649 9.67586 40.8863 9.55338C41.6817 9.39659 41.963 8.664 41.5272 7.8844C40.7807 6.54957 38.6267 5.83705 36.9716 6.37754ZM48.8319 6.50002C48.0036 6.82833 46.2819 9.35924 45.6448 11.186C45.1512 12.6004 44.9785 13.6877 44.8889 15.9419C44.6941 20.8426 45.6222 23.774 47.8441 25.2766C49.4652 26.373 52.1178 25.7197 53.0426 23.9964C53.5914 22.9738 53.4372 22.5068 52.7712 23.1751C52.192 23.7565 51.3022 24.0734 50.2497 24.0734H49.3799V20.9178C49.3799 19.1823 49.3219 17.6099 49.2513 17.4239C49.1624 17.1906 49.3634 17.0768 49.8975 17.0577C50.994 17.0183 51.8291 16.5025 52.1829 15.6456C52.5595 14.7334 52.327 14.446 51.6843 15.0297C51.3749 15.3107 50.8942 15.44 50.3533 15.3879L49.5065 15.3066L49.4361 12.128L49.3657 8.94911L50.4668 9.03703C51.3668 9.10894 51.7152 9.00069 52.3733 8.44521C52.8914 8.00764 53.1784 7.53373 53.1784 7.11547V6.46571L52.5574 7.13808C51.7106 8.0549 50.7038 8.03076 49.8864 7.07405C49.4597 6.57473 49.1158 6.3877 48.8319 6.50002ZM14.8904 7.06185C15.1234 7.43615 15.3734 7.53932 15.7742 7.42624C16.1946 7.30808 16.2424 7.33171 15.9667 7.52229C15.6679 7.72863 15.7266 7.83332 16.2832 8.08794C16.8925 8.36644 17.2723 9.3351 16.7722 9.3351C16.4757 9.3351 13.9277 7.04127 13.9277 6.7742C13.9277 6.344 14.5615 6.53331 14.8904 7.06185ZM15.9535 6.79402C15.9535 6.93378 15.9034 7.04813 15.8418 7.04813C15.7803 7.04813 15.6598 6.93378 15.5737 6.79402C15.4876 6.65426 15.538 6.53991 15.6853 6.53991C15.8327 6.53991 15.9535 6.65426 15.9535 6.79402ZM16.8398 6.79402C16.9259 6.93378 16.8755 7.04813 16.7281 7.04813C16.5808 7.04813 16.46 6.93378 16.46 6.79402C16.46 6.65426 16.5101 6.53991 16.5716 6.53991C16.6332 6.53991 16.7537 6.65426 16.8398 6.79402ZM127.565 6.71499C127.321 6.77903 127.122 6.94115 127.122 7.07583C127.122 7.21609 127.357 7.19373 127.674 7.02323C128.142 6.77191 128.294 6.80952 128.665 7.26844C128.905 7.56651 129.226 7.81045 129.378 7.81045C129.53 7.81045 129.655 7.95351 129.655 8.12809C129.656 8.30291 129.998 8.64062 130.415 8.87847C130.832 9.11657 131.173 9.27411 131.173 9.22837C131.173 8.79639 128.439 6.44005 128.088 6.56939C128.044 6.58565 127.808 6.65121 127.565 6.71499ZM98.3632 7.61987C97.6041 8.52246 96.7484 10.2425 96.7395 10.8839C96.7365 11.1067 96.52 11.4833 96.2586 11.7207C95.9973 11.9583 95.5937 12.7577 95.3617 13.4976C95.0221 14.5817 94.7823 14.9128 94.1277 15.2019C93.62 15.4261 93.285 15.7752 93.2343 16.1325C93.1419 16.7861 93.2525 16.8272 93.9403 16.3963C94.2108 16.2268 94.4979 16.1546 94.5787 16.2354C94.8378 16.4956 95.2389 19.5307 95.0804 20.0318C94.8466 20.7705 95.3042 20.6083 95.7922 19.7794C96.149 19.1731 96.1997 18.6456 96.0784 16.7937C95.9976 15.5564 96.0434 14.0869 96.1807 13.5279C96.3688 12.7602 96.4362 13.8979 96.4554 18.1781C96.4759 22.797 96.4093 23.9832 96.0943 24.5943C95.4126 25.9169 93.9484 25.2445 93.9484 23.6086C93.9484 21.9348 91.874 21.1031 91.0079 22.4295C90.4858 23.2292 90.6466 23.4206 91.5091 23.0262C92.0679 22.7705 92.2523 22.7934 92.6668 23.17C92.938 23.4162 93.2328 23.9499 93.3217 24.3559C93.6121 25.6831 95.2997 26.0109 96.9755 25.0659C98.776 24.0505 98.8973 23.5829 98.8051 18.0065C98.7137 12.4672 99.0652 8.89422 99.8269 7.61987L100.32 6.79402H99.6892C99.2886 6.79402 98.8044 7.09539 98.3632 7.61987ZM103.731 7.56117C102.202 8.5339 101.587 9.85678 101.374 12.6278C101.288 13.7517 101.12 14.6714 101.001 14.6714C100.883 14.6714 100.786 14.9001 100.786 15.1796C100.786 15.4591 100.913 15.6878 101.068 15.6878C101.264 15.6878 101.32 16.4539 101.251 18.1753C101.172 20.1568 101.039 20.8548 100.597 21.6057L100.043 22.5487L100.604 22.5477C101.507 22.5462 102.813 21.592 103.207 20.6454C103.407 20.1639 103.571 19.1945 103.571 18.4911C103.571 17.2348 103.585 17.2124 104.344 17.2124H105.117L105.059 20.4841L105.001 23.7557L104.168 23.4063C102.636 22.7642 100.436 23.1385 99.2123 24.2495C98.6995 24.7152 98.5739 25.306 99.0763 24.8896C100.08 24.0576 103.015 24.251 104.475 25.2453L105.411 25.8826L106.137 25.1846C107.112 24.2474 107.092 23.786 106.085 23.988L105.308 24.1443L105.413 20.802C105.472 18.964 105.569 17.4099 105.63 17.3489C105.691 17.2877 106.011 17.3751 106.342 17.5428C107.205 17.9809 107.665 19.5373 107.58 21.7325L107.508 23.5847L108.975 24.7521L110.442 25.9197L111.311 25.0738C112.256 24.1552 112.441 23.5067 111.738 23.5784C110.329 23.7222 110.221 23.6289 110.041 22.104C109.782 19.9182 109.428 18.7185 108.718 17.6236L108.078 16.6374L108.715 16.0989C109.76 15.2159 110.235 13.9558 110.353 11.7491L110.462 9.71626L109.441 8.55499C107.77 6.65502 105.717 6.29775 103.731 7.56117ZM19.3329 7.44022C19.2503 7.65595 19.1285 7.77793 19.0622 7.71135C18.9958 7.64477 19.0166 7.46817 19.1085 7.31926C19.3582 6.91371 19.504 6.99248 19.3329 7.44022ZM13.9277 7.55634C13.9277 7.6961 13.8069 7.81045 13.6595 7.81045C13.5121 7.81045 13.4736 7.94411 13.5744 8.10776C13.699 8.30977 13.6175 8.35119 13.3202 8.23659C12.8975 8.07396 11.2285 8.74404 11.465 8.98138C11.5293 9.04592 12.0522 8.99256 12.6271 8.86297C13.7428 8.6114 15.9705 9.11936 16.8069 9.81587C17.6127 10.487 17.0781 14.2564 16.0004 15.5033C15.5162 16.0634 15.2779 15.8309 15.091 14.6157C15.0112 14.0961 14.9312 13.5815 14.9132 13.4722C14.8953 13.3632 14.9049 13.2166 14.9343 13.1467C15.0996 12.7556 15.0474 10.6056 14.8727 10.6056C14.7585 10.6056 14.6836 10.4628 14.7063 10.288C14.8426 9.23447 14.6955 9.08099 13.5478 9.08099C12.9211 9.08099 12.4083 9.19534 12.4083 9.3351C12.4083 9.47486 12.7274 9.58921 13.1173 9.58921C13.8256 9.58921 14.4341 9.98333 14.4341 10.4417C14.4341 10.5751 14.1885 10.4666 13.8884 10.2003L13.3427 9.71626L13.7897 10.4128C14.0353 10.796 14.3554 11.0356 14.501 10.9454C14.6587 10.8476 14.6896 10.9045 14.5772 11.0869C14.4316 11.3237 14.3027 11.3207 14.0062 11.0737C13.7957 10.8984 13.4354 10.7286 13.2057 10.6964C12.9472 10.66 13.0535 10.8333 13.4845 11.1512C14.109 11.6114 14.5159 12.3681 13.9505 12.0175C13.6658 11.8409 12.9147 12.1105 12.9147 12.3892C12.9147 12.5018 13.1996 12.5623 13.5478 12.5239C14.053 12.4683 14.1809 12.5676 14.1809 13.0159C14.1809 13.3429 13.9429 13.6984 13.6111 13.8671C13.09 14.1321 13.0847 14.1548 13.5478 14.1309C14.4541 14.0839 14.5607 14.1543 14.5607 14.7984C14.5607 15.2296 14.421 15.4337 14.1254 15.4337C13.8436 15.4337 13.7415 15.5674 13.8355 15.8133C13.9155 16.0222 14.0945 16.1226 14.2338 16.0362C14.3728 15.95 14.2908 16.1792 14.0515 16.5459C13.8054 16.9228 13.735 17.2124 13.8897 17.2124C14.0401 17.2124 14.3002 16.9555 14.4676 16.6415C14.6681 16.2654 14.8099 16.1836 14.8823 16.4021C14.9429 16.5843 14.7922 16.9558 14.5476 17.2272C14.3007 17.5009 14.23 17.7207 14.3891 17.7207C14.5468 17.7207 14.8623 17.4348 15.0905 17.0854C15.5078 16.4463 16.3777 16.1729 16.1014 16.7678C16.0201 16.9426 15.8836 17.2854 15.7975 17.5301C15.7117 17.7748 15.5109 17.9748 15.3518 17.9748C15.1926 17.9748 14.9196 18.2042 14.7451 18.4845C14.4318 18.9882 14.4159 18.9864 13.4372 18.3364C12.3721 17.6289 12.0862 17.1802 12.3166 16.5772C12.4832 16.1416 12.0193 16.054 11.7615 16.4722C11.4242 17.0201 11.1171 16.2954 11.386 15.5856C11.7241 14.6935 11.7192 14.3433 11.3723 14.5585C11.1857 14.6744 11.1239 14.4104 11.1824 13.7477C11.2462 13.0222 11.1788 12.7846 10.9249 12.8382C10.6686 12.8924 10.605 12.6543 10.6762 11.9067C10.7286 11.3545 10.6719 10.9644 10.5498 11.0399C10.4265 11.1164 10.41 10.8038 10.5129 10.3343C10.6843 9.55058 10.6678 9.5206 10.2796 9.9104C9.85572 10.3355 9.85142 11.4721 10.2698 12.4921C10.429 12.8802 10.3852 12.948 10.0575 12.8217C9.71391 12.6896 9.68251 12.7633 9.87066 13.2598C9.995 13.5881 10.0282 13.9258 9.9441 14.0099C9.86028 14.0943 9.94739 14.1631 10.1376 14.1631C10.3713 14.1631 10.4004 14.2468 10.2272 14.4206C9.79393 14.8553 8.37888 14.4 7.85039 13.6554L7.35685 12.9597L8.62249 11.3771C9.31862 10.5065 10.055 9.47079 10.2586 9.0754C10.7438 8.13419 13.9277 6.81587 13.9277 7.55634ZM91.0249 7.46004C91.9515 7.8168 92.5389 10.1396 91.8719 10.8089C91.5443 11.1377 90.6896 11.2081 90.0441 10.9596C89.7324 10.8397 89.6435 10.4166 89.6435 9.0538C89.6435 7.49663 89.6975 7.30224 90.1292 7.30224C90.3964 7.30224 90.7995 7.37339 91.0249 7.46004ZM107.478 7.87398C107.683 8.18831 107.927 8.92599 108.02 9.51323C108.179 10.5131 108.148 10.5912 107.527 10.7477C107.162 10.8397 106.575 10.8422 106.223 10.7538C105.629 10.6039 105.592 10.5073 105.702 9.39202C105.766 8.73185 105.827 7.99138 105.835 7.74693C105.858 7.08269 107.02 7.17264 107.478 7.87398ZM118.005 7.93751C117.826 8.15401 117.628 8.27852 117.564 8.21448C117.424 8.07447 118.089 7.31215 118.231 7.44886C118.286 7.5012 118.184 7.72101 118.005 7.93751ZM17.4729 7.81045C17.4729 7.95021 17.3658 8.06456 17.2346 8.06456C17.1034 8.06456 16.9259 7.95021 16.8398 7.81045C16.7537 7.67069 16.8611 7.55634 17.0781 7.55634C17.2951 7.55634 17.4729 7.67069 17.4729 7.81045ZM18.3592 7.81045C18.4453 7.95021 18.4017 8.06456 18.2625 8.06456C18.1232 8.06456 17.9388 7.95021 17.8527 7.81045C17.7666 7.67069 17.8102 7.55634 17.9495 7.55634C18.0887 7.55634 18.2731 7.67069 18.3592 7.81045ZM105.344 11.8762C105.344 16.46 105.372 16.3665 104.107 16.027C103.508 15.8659 103.504 15.8443 103.637 13.1716C103.768 10.5131 104.544 7.55634 105.109 7.55634C105.244 7.55634 105.344 9.38872 105.344 11.8762ZM48.8203 11.1367L48.7468 13.5279L48.0461 13.6087C47.6607 13.6532 47.4113 13.7965 47.4918 13.9273C47.5723 14.0579 47.9162 14.095 48.2558 14.0094C48.8686 13.8552 48.8734 13.8684 48.8719 15.7239L48.8707 17.5936L47.8522 17.6322L46.8339 17.6709L46.98 15.9805C47.2515 12.8398 47.585 10.8826 48.1495 9.12114C48.6055 7.69788 48.8985 8.57887 48.8203 11.1367ZM81.4151 12.733C81.2036 17.7471 81.0502 21.8568 81.0415 22.7304C81.0365 23.2643 80.8686 23.6358 80.5576 23.803C80.1 24.0487 80.0851 23.9209 80.176 20.572C80.2279 18.6545 80.3274 15.656 80.3968 13.909C80.4662 12.1621 80.5277 10.2181 80.5336 9.58921L80.5442 8.44572L81.0446 9.04847C81.5001 9.59759 81.5333 9.92641 81.4151 12.733ZM118.258 11.2938C118.111 13.4735 117.709 13.9815 116.233 13.8569C115.412 13.7876 115.349 13.7218 115.382 12.9734C115.401 12.5287 115.783 11.3687 116.23 10.3952L117.043 8.62563L117.714 9.01187C118.366 9.38745 118.382 9.45097 118.258 11.2938ZM125.642 9.08099C125.642 9.43039 125.7 9.57345 125.77 9.39863C125.84 9.22405 125.84 8.93818 125.77 8.76336C125.7 8.58879 125.642 8.73159 125.642 9.08099ZM18.2326 8.92294C18.2326 8.97554 18.0616 9.16104 17.8527 9.3351C17.5415 9.59429 17.4729 9.57676 17.4729 9.23905C17.4729 9.01238 17.6438 8.82688 17.8527 8.82688C18.0616 8.82688 18.2326 8.87008 18.2326 8.92294ZM18.9923 8.93895C18.9923 9.00069 18.8783 9.12165 18.739 9.20805C18.5998 9.29444 18.4858 9.24387 18.4858 9.09598C18.4858 8.94809 18.5998 8.82688 18.739 8.82688C18.8783 8.82688 18.9923 8.8772 18.9923 8.93895ZM79.9995 14.7984C79.8947 18.0129 79.7994 21.4289 79.7883 22.3891C79.7696 23.9689 79.7283 24.1031 79.3573 23.7941C78.9927 23.4902 78.959 22.6801 79.0524 16.4918C79.1497 10.0392 79.1922 9.50586 79.6338 9.18187C79.8959 8.98951 80.1284 8.85966 80.1504 8.89295C80.1725 8.92649 80.1046 11.584 79.9995 14.7984ZM124.664 10.4786C124.758 11.2961 124.732 11.5679 124.591 11.2409C124.381 10.7553 124.238 8.88177 124.427 9.10208C124.477 9.16053 124.584 9.77979 124.664 10.4786ZM129.553 9.29343C129.478 9.41489 129.58 9.73125 129.781 9.99654C130.132 10.4628 130.144 10.4603 130.152 9.92183C130.161 9.32748 129.779 8.927 129.553 9.29343ZM128.564 9.53381C128.037 9.64664 128.103 10.0692 128.707 10.4514C129.245 10.7919 129.545 10.4854 129.251 9.89617C129.119 9.63317 128.825 9.47791 128.564 9.53381ZM92.3085 11.848C92.1589 12.5318 92.0598 12.6024 91.429 12.4759C91.0381 12.3974 90.4764 12.4632 90.1809 12.622C89.681 12.8903 89.6435 12.8487 89.6435 12.0253C89.6435 11.1507 89.6526 11.1433 90.4093 11.4081C91.0074 11.6175 91.2984 11.5928 91.7387 11.2955C92.4453 10.8188 92.5184 10.8897 92.3085 11.848ZM107.525 11.1029C108.086 10.889 108.163 10.9126 108.032 11.2569C107.946 11.4805 107.876 11.8076 107.876 11.9837C107.876 12.1913 107.475 12.3099 106.737 12.3211C105.645 12.3376 105.597 12.3074 105.597 11.6053C105.597 10.9284 105.645 10.8907 106.23 11.1139C106.636 11.2689 107.1 11.2648 107.525 11.1029ZM125.349 12.1303C125.349 12.27 125.299 12.3844 125.237 12.3844C125.176 12.3844 125.055 12.27 124.969 12.1303C124.883 11.9905 124.933 11.8762 125.081 11.8762C125.228 11.8762 125.349 11.9905 125.349 12.1303ZM28.6991 12.6715C29.8163 12.4622 29.8348 12.47 29.9835 13.2158C30.0665 13.6321 30.1344 14.3611 30.1344 14.836C30.1344 15.699 30.1342 15.6992 29.5003 15.2825C28.7898 14.8154 27.1316 14.7524 26.3658 15.1636C26.0893 15.312 25.7983 15.4337 25.7196 15.4337C25.5335 15.4337 25.5411 14.2841 25.7348 13.1083L25.8877 12.1806L26.7267 12.5323C27.3253 12.7833 27.8903 12.8232 28.6991 12.6715ZM66.5492 15.2952C66.5071 15.3265 65.9885 15.3013 65.3967 15.239L64.3205 15.1262V13.8064V12.4865L65.1769 12.5867C65.712 12.6494 66.1156 12.5587 66.2531 12.3453C66.3932 12.1272 66.5006 12.5895 66.5492 13.6209C66.591 14.5105 66.591 15.2639 66.5492 15.2952ZM127.18 12.4319C127.306 12.8118 127.881 13.0209 127.881 12.6868C127.881 12.5503 127.701 12.3694 127.48 12.2843C127.234 12.1895 127.118 12.2462 127.18 12.4319ZM91.6466 12.873C91.9434 13.0616 91.9494 13.2306 91.6825 13.877C91.3179 14.7606 91.0246 15.0431 90.2133 15.2927C89.682 15.4561 89.6435 15.392 89.6435 14.3461C89.6435 13.4339 89.7499 13.1729 90.2133 12.9485C90.9287 12.6024 91.1981 12.5882 91.6466 12.873ZM107.876 13.0278C107.876 14.1212 106.575 15.9419 105.794 15.9419C105.554 15.9419 105.528 13.0461 105.766 12.808C105.859 12.7147 106.371 12.6385 106.905 12.6385C107.608 12.6385 107.876 12.7457 107.876 13.0278ZM40.3591 13.9431C40.4464 14.3812 40.5847 16.5825 40.6668 18.8347C40.8258 23.2094 40.649 24.3275 39.7979 24.3275C39.3707 24.3275 39.3029 24.0502 39.1605 21.7229C38.8306 16.3203 38.8868 14.4704 39.4026 13.7812C40.02 12.9559 40.1671 12.9808 40.3591 13.9431ZM133.918 14.048C134.08 14.404 134.212 14.9588 134.212 15.2807C134.212 16.182 133.694 17.4666 133.33 17.4666C133.151 17.4666 132.677 17.6373 132.278 17.8462C131.88 18.0548 131.715 18.2263 131.914 18.2274C132.164 18.2284 132.092 18.4235 131.68 18.8641C131.046 19.5406 130.389 19.7606 130.92 19.1183C131.344 18.606 131.102 18.6382 129.973 19.2453C129.454 19.5248 128.856 19.7553 128.645 19.7573C128.434 19.7596 128.09 19.878 127.881 20.0208C127.609 20.2074 127.788 20.2333 128.514 20.1133C129.071 20.0214 129.636 19.8455 129.768 19.7228C130.252 19.2733 130.478 19.5147 130.035 20.0069C129.783 20.2859 128.967 20.7069 128.223 20.9425C127.478 21.1783 126.868 21.4685 126.868 21.5877C126.868 21.7069 127.089 21.686 127.358 21.5412C127.628 21.3966 127.902 21.2782 127.969 21.2782C128.161 21.2782 128.003 22.0054 127.764 22.2237C127.645 22.3325 127.629 22.2788 127.729 22.104C127.98 21.6662 127.77 21.7036 126.596 22.3043C126.04 22.5891 125.475 22.7538 125.34 22.6704C125.206 22.5871 125.096 22.6399 125.096 22.7878C125.096 22.9357 125.395 23.0569 125.76 23.0569C126.321 23.0569 126.375 23.1159 126.109 23.4381C125.928 23.6569 125.375 23.8193 124.812 23.8193C123.999 23.8193 123.83 23.7318 123.83 23.311C123.83 23.0315 123.972 22.7937 124.146 22.7827C124.399 22.7667 124.399 22.737 124.146 22.6346C123.69 22.4499 123.757 22.0969 124.273 21.9615C124.606 21.8741 124.575 21.838 124.146 21.8159C123.531 21.7841 123.338 21.2782 123.941 21.2782C124.142 21.2782 124.361 21.1885 124.429 21.079C124.496 20.9694 124.258 20.8838 123.899 20.8884C123.529 20.8932 123.199 20.7316 123.139 20.5159C123.046 20.1875 123.067 20.1858 123.286 20.5026C123.492 20.7994 123.574 20.7415 123.708 20.2036C123.914 19.381 124.721 18.5882 124.959 18.9747C125.051 19.1236 125.413 19.2453 125.763 19.2453C126.515 19.2453 128.005 17.8724 127.732 17.4302C127.623 17.2523 127.66 17.202 127.825 17.3044C127.976 17.3982 128.171 17.3586 128.259 17.2165C128.346 17.0745 128.652 16.9583 128.938 16.9583C130.18 16.9583 131.573 15.7831 132.031 14.3476C132.152 13.9693 132.915 13.4773 133.475 13.4168C133.557 13.4082 133.756 13.692 133.918 14.048ZM118.005 16.1261V18.2162L117.356 17.9684C116.998 17.8322 116.258 17.7207 115.71 17.7207C114.727 17.7207 114.713 17.708 114.716 16.7678C114.718 16.2438 114.785 15.4146 114.866 14.9255L115.014 14.0361H116.51H118.006L118.005 16.1261ZM7.62147 15.0261C7.88407 15.361 8.66959 15.841 9.36724 16.0928C10.6972 16.5726 10.9335 16.843 10.1925 17.0374C9.84053 17.1296 9.86028 17.1596 10.2882 17.183C10.5845 17.1992 10.9585 17.3718 11.1196 17.5662C11.2804 17.7608 11.7509 18.0609 12.1652 18.2329C12.7585 18.4797 12.9071 18.6888 12.8669 19.2207C12.8385 19.5917 12.9016 20.0348 13.0067 20.2056C13.1262 20.3995 13.049 20.5159 12.801 20.5159C12.5734 20.5159 12.2287 20.076 11.9932 19.4849C11.7015 18.7534 11.4711 18.497 11.1996 18.6014C10.8811 18.7241 10.8714 18.6832 11.1421 18.3559C11.4156 18.0251 11.4014 17.9885 11.0512 18.1232C10.5205 18.3275 10.5288 18.4599 11.113 19.102C11.6726 19.7167 12.1112 20.9298 11.6767 20.6604C11.523 20.5649 11.1973 20.4427 10.9532 20.3883C10.7089 20.3339 10.1366 20.1764 9.68125 20.0379C9.22594 19.8994 8.9132 19.8834 8.98638 20.0023C9.05957 20.1212 8.97625 20.2668 8.80127 20.3258C8.62629 20.385 8.93903 20.5202 9.49614 20.6261L10.5091 20.8187L9.2429 21.3023C8.54652 21.5684 7.77721 21.7861 7.5336 21.7861C7.28999 21.7864 7.09045 21.914 7.09045 22.0702C7.09045 22.2313 7.31532 22.2949 7.61134 22.2171C8.04259 22.104 8.08007 22.1437 7.82861 22.4478C7.66148 22.6498 7.46573 22.7558 7.39356 22.6836C7.32139 22.6112 7.10336 22.78 6.90888 23.0585C6.7144 23.3372 6.41939 23.5677 6.25302 23.5707C5.89925 23.5773 4.57663 24.5676 4.91013 24.576C5.03422 24.579 5.64374 24.327 6.26441 24.0159C7.29404 23.4998 7.41965 23.4864 7.69415 23.863C7.85976 24.0901 7.95219 24.7257 7.90002 25.2753C7.81595 26.1596 7.69997 26.3128 6.88964 26.6068C6.2201 26.8497 5.94838 26.8612 5.87823 26.6495C5.82531 26.4904 5.6245 26.3603 5.43204 26.3603C4.91824 26.3603 3.29199 25.5406 3.29199 25.2819C3.29199 25.1597 3.20159 25.1157 3.09144 25.1843C2.98103 25.2527 2.87214 25.0603 2.84935 24.7569C2.80453 24.1603 3.93672 22.8028 4.47888 22.8028C4.66172 22.8028 4.81138 22.6834 4.81138 22.5375C4.81138 22.2161 3.99901 22.3208 3.73894 22.6758C3.63006 22.8244 3.55459 22.7718 3.55713 22.5487C3.56346 21.9648 4.09853 21.3913 4.93799 21.0683L5.69768 20.7761L4.87468 20.9201C4.22844 21.0335 4.05168 20.9768 4.05168 20.6569C4.05168 20.0999 5.26618 19.6481 5.72858 20.0333C5.92052 20.1931 6.07575 20.2241 6.07373 20.1022C6.06816 19.7855 5.67084 19.198 5.4794 19.2237C4.8486 19.3083 4.77668 19.2044 5.11348 18.6954C5.52776 18.0696 6.23883 17.8772 6.52068 18.315C6.62501 18.4771 6.93851 18.7816 7.21706 18.9912C7.69744 19.3528 7.70402 19.347 7.34368 18.8814C6.68553 18.0309 5.81062 17.2124 5.55967 17.2124C5.22642 17.2124 5.25655 16.8674 5.62171 16.5009C6.06284 16.0583 6.22592 16.1104 7.10741 16.9749C8.24138 18.0873 8.38496 17.6503 7.26391 16.4981C6.37685 15.5867 6.12665 14.9608 6.49966 14.5867C6.80607 14.2793 7.1378 14.4091 7.62147 15.0261ZM131.68 14.6864C131.68 14.8342 131.558 14.88 131.41 14.788C131.25 14.6889 131.172 14.7989 131.22 15.0563C131.264 15.2962 131.015 15.7028 130.667 15.9599C129.895 16.5294 128.478 16.92 128.743 16.49C128.857 16.3048 128.781 16.2557 128.529 16.3525C128.314 16.4356 128.2 16.6056 128.278 16.7309C128.355 16.8559 128.069 16.9583 127.643 16.9583C126.49 16.9583 126.682 16.3497 128.008 15.8011C128.635 15.5417 129.147 15.2454 129.147 15.1425C129.147 15.0396 129.632 14.8464 130.224 14.7135C131.695 14.383 131.68 14.3832 131.68 14.6864ZM10.5602 15.2731C10.6567 15.3702 10.3627 15.421 9.90688 15.3859C9.45081 15.3511 9.02285 15.2335 8.95574 15.1247C8.80786 14.8846 10.3115 15.0238 10.5602 15.2731ZM29.3114 15.685L30.1344 16.1886V19.6227C30.1344 21.8512 30.041 23.0569 29.8685 23.0569C29.3912 23.0569 28.2483 22.3571 27.6148 21.6766C27.023 21.0411 27.0133 20.9786 27.4008 20.3184C27.6335 19.9223 27.8115 19.04 27.8171 18.254C27.8257 17.0546 27.7325 16.7929 27.0784 16.1798C26.5768 15.7097 26.4352 15.4355 26.6494 15.3488C27.3605 15.0614 28.5345 15.2096 29.3114 15.685ZM130.634 15.6243C130.32 16.0273 130.329 16.0362 130.73 15.7203C131.152 15.3882 131.286 15.1796 131.078 15.1796C131.025 15.1796 130.826 15.3796 130.634 15.6243ZM20.2584 15.5336C20.2584 15.5884 20.0875 15.6992 19.8786 15.7798C19.6697 15.8601 19.4987 15.8151 19.4987 15.6799C19.4987 15.5445 19.6697 15.4337 19.8786 15.4337C20.0875 15.4337 20.2584 15.4787 20.2584 15.5336ZM66.2957 15.7386C66.4973 15.9409 66.5988 17.032 66.5975 18.9785L66.5953 21.9134L65.3314 22.5845L64.0673 23.2559L64.0695 20.6787C64.0706 19.2616 64.1435 17.5016 64.2314 16.7678C64.3863 15.4736 64.4149 15.4337 65.1913 15.4337C65.6317 15.4337 66.1286 15.5709 66.2957 15.7386ZM129.368 15.8784C129.053 16.2814 129.062 16.2903 129.464 15.9744C129.708 15.7826 129.907 15.5823 129.907 15.5297C129.907 15.3206 129.699 15.455 129.368 15.8784ZM132.942 15.949C132.791 16.2324 132.559 16.3973 132.427 16.3152C132.294 16.2331 132.186 16.2872 132.186 16.4351C132.186 16.583 132.08 16.7042 131.949 16.7042C131.499 16.7042 130.344 17.2272 130.484 17.368C130.741 17.6259 132.898 16.5068 133.186 15.9658C133.342 15.6731 133.413 15.4337 133.343 15.4337C133.274 15.4337 133.093 15.6657 132.942 15.949ZM16.46 15.9419C16.46 16.0817 16.346 16.196 16.2067 16.196C16.0675 16.196 15.9535 16.0817 15.9535 15.9419C15.9535 15.8021 16.0675 15.6878 16.2067 15.6878C16.346 15.6878 16.46 15.8021 16.46 15.9419ZM27.0944 17.5611C27.0972 18.0614 25.9505 16.9797 25.886 16.4209C25.8183 15.8357 25.8378 15.841 26.4545 16.5772C26.8057 16.9965 27.0936 17.4391 27.0944 17.5611ZM125.012 16.1109C124.744 16.3795 123.551 16.442 123.713 16.1792C123.794 16.0486 124.157 15.9419 124.52 15.9419C124.883 15.9419 125.104 16.0179 125.012 16.1109ZM23.5504 16.8313C23.5504 17.3044 23.4165 17.4666 23.026 17.4666C22.5476 17.4666 22.5367 17.431 22.9016 17.0648C23.1217 16.844 23.2372 16.5581 23.1579 16.4295C23.0789 16.3012 23.1349 16.196 23.2822 16.196C23.4296 16.196 23.5504 16.4819 23.5504 16.8313ZM124.589 16.7271C124.589 17.1525 125.666 17.9567 126.248 17.9664C126.534 17.971 126.918 17.832 127.103 17.6571C127.373 17.4012 127.417 17.4107 127.327 17.7052C127.147 18.3003 125.998 19.0303 125.528 18.8492C125.292 18.7582 125.162 18.5816 125.239 18.4563C125.316 18.3313 125.195 18.2289 124.969 18.2289C124.744 18.2289 124.63 18.1145 124.716 17.9748C124.802 17.835 124.695 17.7207 124.478 17.7207C124.261 17.7207 124.083 17.5995 124.083 17.4516C124.083 17.3037 123.977 17.2483 123.847 17.3286C123.717 17.4091 123.544 17.3657 123.462 17.2323C123.38 17.0989 123.514 16.8717 123.761 16.7276C124.346 16.3858 124.589 16.3858 124.589 16.7271ZM126.615 17.4732C126.615 17.6094 126.501 17.7207 126.362 17.7207C126.223 17.7207 126.109 17.5873 126.109 17.4241C126.109 17.2612 126.034 17.203 125.942 17.295C125.748 17.4894 125.096 17.0048 125.096 16.6666C125.096 16.5403 125.438 16.6145 125.855 16.8313C126.273 17.048 126.615 17.337 126.615 17.4732ZM22.221 16.8862C21.0523 17.0638 21.5155 17.6762 22.8748 17.7506C23.2817 17.773 23.2311 17.8223 22.6785 17.9412C21.8026 18.13 21.757 18.5409 22.5859 18.7752C23.0191 18.8977 23.0518 18.947 22.7125 18.9658C22.4605 18.9798 22.3179 19.0944 22.3954 19.2204C22.4732 19.3462 22.0199 19.2933 21.3883 19.1028C20.7568 18.9119 20.3035 18.8586 20.3807 18.9843C20.4582 19.1099 19.9778 19.2862 19.3136 19.3759C17.5554 19.6138 17.382 19.7662 18.9923 19.6587C19.7583 19.6077 20.5646 19.489 20.7844 19.3952C21.0865 19.2661 21.2655 19.4743 21.5213 20.2516C21.7069 20.8162 21.9614 21.2782 22.0865 21.2782C22.2118 21.2782 22.2491 21.3839 22.1693 21.5132C22.0029 21.7836 22.5264 23.0569 22.8039 23.0569C23.0761 23.0569 23.3415 21.8098 23.1392 21.4815C23.0422 21.3237 23.0799 21.2705 23.2253 21.3608C23.7153 21.6644 23.8297 23.106 23.4147 23.742C23.1984 24.0729 22.9232 24.2827 22.8029 24.208C22.6826 24.1333 22.3174 24.1875 21.991 24.3282C21.4858 24.546 21.5552 24.5734 22.4598 24.514C23.3299 24.4566 23.5448 24.5325 23.6497 24.935C23.9042 25.9118 23.0637 26.5153 22.031 26.0973C21.9614 26.0691 21.8188 26.0595 21.7145 26.0762C21.6102 26.0928 21.5246 26.0005 21.5246 25.8717C21.5246 25.7426 21.1827 25.8082 20.7649 26.0173C19.8115 26.4945 19.1189 26.3751 19.1189 25.7332C19.1189 25.2999 19.2772 25.2484 20.4225 25.3093C21.1397 25.3477 21.7846 25.2844 21.8555 25.1691C21.9267 25.0537 21.5334 24.9485 20.9819 24.9353C20.4304 24.9218 19.8424 24.763 19.6755 24.5821C19.4352 24.3214 19.4511 24.2911 19.752 24.436C19.9609 24.5369 19.9105 24.4393 19.6403 24.2192C19.3698 23.9992 18.9604 23.8193 18.7299 23.8193C18.4997 23.8193 17.9804 23.5336 17.5757 23.1842C16.7178 22.444 16.7856 22.4176 18.2326 22.9299C19.479 23.3713 19.7811 23.4071 19.2455 23.0501C19.0366 22.9108 18.3883 22.6722 17.8051 22.5195C17.2217 22.367 16.5559 22.0331 16.3258 21.7778C15.93 21.3392 15.9398 21.3216 16.5 21.4596C16.8261 21.5399 17.245 21.7254 17.4306 21.8718C17.6165 22.0181 17.9583 22.1548 18.1903 22.1754C18.4225 22.1963 19.0113 22.2872 19.4987 22.3777L20.385 22.5424L19.6253 22.1759C19.2075 21.9742 18.7363 21.8042 18.578 21.7978C18.42 21.7915 17.9642 21.6156 17.5651 21.4068C17.1662 21.1981 16.5266 21.0266 16.1434 21.0256C15.6939 21.0246 15.447 20.8889 15.447 20.6429C15.447 20.384 15.1829 20.2589 14.624 20.2534L13.8011 20.2447L14.3825 19.7584C14.8157 19.3957 15.267 19.2928 16.1551 19.3538C16.8102 19.3988 17.033 19.3856 16.6499 19.3243C16.2191 19.2555 15.9535 19.0545 15.9535 18.7973C15.9535 18.4738 16.0211 18.4492 16.2574 18.6863C16.4245 18.854 16.6808 18.9876 16.8272 18.9831C17.13 18.9739 16.2191 18.2289 15.9051 18.2289C15.7925 18.2289 15.7003 18.4004 15.7003 18.61C15.7003 18.8197 15.5724 18.9912 15.4162 18.9912C15.0424 18.9912 15.714 17.9679 16.3242 17.6076C16.6469 17.4173 16.8079 17.4206 16.8808 17.6193C17.0502 18.0815 20.03 17.7692 20.7649 17.2122C21.1131 16.9484 21.7398 16.7434 22.1576 16.7563C22.9153 16.7802 22.9153 16.7807 22.221 16.8862ZM18.2326 17.2124C18.5456 17.4155 18.5233 17.4551 18.106 17.4373C17.8274 17.4256 17.3146 17.3243 16.9664 17.2124C16.346 17.013 16.3485 17.0087 17.093 16.9876C17.5109 16.9759 18.0237 17.077 18.2326 17.2124ZM134.594 20.2653C134.752 20.5219 134.592 20.5616 133.871 20.4444C132.694 20.2526 132.7 20.3962 133.896 20.9595C134.511 21.25 134.873 21.608 134.926 21.9785C135 22.5014 134.949 22.5276 134.321 22.288C133.378 21.9282 133.257 22.1515 134.186 22.5378C135.279 22.9921 135.439 23.5913 134.387 23.2884C133.411 23.0076 133.452 23.0086 133.452 23.2683C133.452 23.3847 133.994 23.585 134.655 23.713C135.317 23.8414 135.822 24.0424 135.778 24.16C135.734 24.2777 135.905 24.5295 136.158 24.7196C136.534 25.0029 136.365 24.9991 135.225 24.6995C133.573 24.2655 133.642 24.2733 133.805 24.5381C133.877 24.654 134.582 24.9045 135.373 25.0949L136.81 25.441L136.096 26.0125C135.703 26.327 135.289 26.527 135.176 26.4571C135.064 26.3875 134.972 26.4516 134.972 26.5994C134.972 26.7473 134.801 26.8685 134.592 26.8685C134.383 26.8685 134.212 26.7473 134.212 26.5994C134.212 26.4516 134.344 26.4119 134.505 26.5115C134.686 26.6241 134.728 26.5814 134.616 26.3997C134.517 26.2384 134.289 26.1062 134.109 26.1062C133.578 26.1062 131.933 24.3473 131.933 23.7799C131.933 23.3908 132.047 23.2971 132.376 23.4142C132.709 23.5324 132.684 23.4599 132.276 23.1238C131.978 22.8773 131.663 22.4367 131.576 22.1442C131.489 21.8519 131.13 21.3414 130.778 21.0101L130.139 20.4076L130.472 21.1605C130.655 21.5747 130.986 22.2565 131.207 22.6758C131.428 23.095 131.69 23.7753 131.788 24.1875C131.976 24.9681 132.315 25.3449 134.301 26.9778C135.429 27.9053 137.704 31.0486 137.567 31.491C137.532 31.6041 137.618 31.6966 137.757 31.6966C137.897 31.6966 138.001 31.8966 137.99 32.1413C137.979 32.4068 137.919 32.4582 137.843 32.2683C137.64 31.7634 137.264 31.8973 136.951 32.586C136.793 32.9354 136.488 33.2212 136.273 33.2212C135.97 33.2212 135.951 33.1534 136.187 32.9163C136.555 32.5476 136.592 32.1121 136.238 32.3319C136.099 32.4183 135.975 32.3392 135.964 32.1563C135.953 31.9733 135.781 32.1954 135.584 32.6495C135.386 33.1038 135.16 33.4754 135.083 33.4754C135.005 33.4754 135.012 33.361 135.098 33.2212C135.358 32.7994 134.947 32.3491 134.668 32.7494C134.473 33.0276 134.449 33.0205 134.541 32.713C134.604 32.5034 134.783 32.3606 134.94 32.3954C135.097 32.4305 135.225 32.2874 135.225 32.0778C135.225 31.8681 135.362 31.6966 135.529 31.6966C135.763 31.6966 135.761 31.6249 135.524 31.3868C135.281 31.1432 135.084 31.2186 134.602 31.7406C134.265 32.1057 134.064 32.4798 134.156 32.572C134.248 32.6645 134.118 32.6607 133.867 32.5641C133.615 32.4673 133.516 32.3184 133.646 32.233C133.776 32.1476 134.012 31.8318 134.169 31.5314C134.4 31.0916 134.38 30.9559 134.068 30.8354C133.854 30.7533 133.738 30.7821 133.811 30.8992C133.883 31.0166 133.661 31.4948 133.317 31.9621C132.974 32.4294 132.693 32.698 132.693 32.559C132.693 32.42 132.829 32.1692 132.997 32.0015C133.164 31.8338 133.217 31.6966 133.114 31.6966C133.012 31.6966 133.05 31.4679 133.199 31.1884C133.615 30.4078 133.23 30.5828 132.308 31.5924C131.511 32.4658 131.468 32.4813 131.301 31.9555C131.199 31.6308 131.266 31.2247 131.467 30.9627C131.654 30.719 131.427 30.9274 130.963 31.4257C130.5 31.924 130.158 32.1756 130.204 31.9845C130.25 31.7934 130.077 31.6018 129.821 31.5589C129.179 31.4511 129.036 31.2598 129.301 30.8649C129.425 30.6802 129.287 30.8021 128.993 31.1358L128.459 31.7426L128.314 31.1858C128.227 30.8542 128.052 30.7013 127.881 30.8075C127.723 30.9056 127.664 31.1708 127.751 31.397C127.837 31.6232 127.83 31.7299 127.735 31.6343C127.639 31.5385 127.36 31.5688 127.113 31.7012C126.734 31.905 126.686 31.8547 126.802 31.3746C126.878 31.0626 127.112 30.6072 127.323 30.3625C127.535 30.1163 127.586 29.9178 127.435 29.9178C127.286 29.9178 127.013 30.2609 126.828 30.6802C126.643 31.0994 126.339 31.4425 126.152 31.4425C125.883 31.4425 125.846 31.0313 125.974 29.4732C126.063 28.3899 126.253 26.9661 126.398 26.3087C126.542 25.6516 126.587 24.996 126.499 24.8519C126.41 24.7081 126.41 24.2002 126.499 23.7237C126.63 23.0244 126.804 22.8285 127.398 22.7091C127.804 22.6277 128.641 22.0537 129.259 21.4334C129.877 20.8132 130.608 20.2343 130.882 20.1469C131.156 20.0595 131.519 19.8209 131.688 19.6166C132.032 19.2003 132.557 19.1033 132.312 19.5012C132.13 19.7965 132.882 20.1568 133.139 19.8981C133.234 19.8033 133.143 19.6196 132.939 19.4895C132.664 19.3149 132.653 19.2522 132.898 19.2491C133.08 19.2471 133.171 19.1515 133.101 19.0367C133.03 18.9221 133.218 18.436 133.519 17.9567L134.065 17.0854L134.228 18.5104C134.318 19.2941 134.482 20.0836 134.594 20.2653ZM10.3824 17.5664C10.3824 17.6213 10.5592 17.7344 10.7755 17.8177C11.0008 17.9044 11.1024 17.8617 11.0137 17.7179C10.8651 17.4762 10.3824 17.3606 10.3824 17.5664ZM48.566 17.9356C48.8063 18.0889 48.8724 18.869 48.8193 20.9176L48.7468 23.6922L48.1907 22.7952C47.8851 22.3017 47.5083 21.1041 47.3538 20.1339C47.1018 18.5508 47.1186 18.3361 47.5151 18.0452C48.0299 17.6676 48.1284 17.6571 48.566 17.9356ZM26.8424 18.208C26.8424 18.6187 26.5413 19.2453 26.3441 19.2453C26.239 19.2453 26.2073 18.9594 26.2739 18.61C26.3871 18.0159 26.8424 17.694 26.8424 18.208ZM117.36 18.2698C117.991 18.5579 118.005 18.623 118.005 21.192C118.005 24.1318 117.88 24.2975 116.569 23.0953C115.498 22.1137 115.008 21.0828 114.81 19.3942L114.644 17.9748H115.679C116.249 17.9748 117.006 18.1074 117.36 18.2698ZM128.469 18.3117C128.027 18.4759 127.571 18.7119 127.456 18.8364C127.196 19.119 128.432 18.8329 129.499 18.3628C130.509 17.9189 129.645 17.8759 128.469 18.3117ZM23.6753 18.4802C23.7639 18.624 23.6623 18.6667 23.437 18.5801C22.9984 18.4111 22.9181 18.2289 23.2822 18.2289C23.4134 18.2289 23.5902 18.342 23.6753 18.4802ZM17.4053 18.7686C17.5772 18.9424 17.7816 19.0204 17.8593 18.9422C17.9373 18.8639 17.7968 18.7218 17.5471 18.6263C17.1862 18.4886 17.1571 18.5175 17.4053 18.7686ZM13.623 20.0419C13.5433 20.5504 13.5078 20.5148 13.3911 19.8092C13.3078 19.304 13.3447 19.0669 13.4853 19.208C13.6129 19.336 13.6749 19.7113 13.623 20.0419ZM126.568 19.673C126.75 19.7464 126.969 19.7373 127.053 19.6529C127.137 19.5685 126.988 19.5086 126.721 19.5195C126.426 19.5317 126.366 19.5919 126.568 19.673ZM23.8069 20.1327C23.9444 20.0473 24.0569 20.0989 24.0569 20.2467C24.0569 20.6449 22.7102 20.5733 22.1427 20.1449C21.698 19.8092 21.7421 19.7982 22.6041 20.0308C23.1283 20.172 23.6697 20.2178 23.8069 20.1327ZM124.336 20.0076C124.336 20.311 125.025 20.311 125.729 20.0076C126.135 19.8326 126.047 19.7858 125.286 19.7713C124.764 19.7617 124.336 19.8679 124.336 20.0076ZM16.9664 20.77C17.1753 20.9054 17.4602 21.0162 17.5995 21.0162C17.7388 21.0162 17.6818 20.9054 17.4729 20.77C17.264 20.6345 16.9791 20.5237 16.8398 20.5237C16.7005 20.5237 16.7575 20.6345 16.9664 20.77ZM16.3967 22.5241C17.1277 23.3062 17.7907 24.1463 17.8697 24.391C17.9487 24.6357 18.1196 24.8357 18.2495 24.8357C18.3795 24.8357 18.4858 25.1719 18.4858 25.583C18.4858 25.9942 18.5891 26.3944 18.7152 26.4726C18.8413 26.5509 18.8902 26.8238 18.8236 27.0795C18.757 27.3348 18.8819 28.2374 19.1007 29.0851C19.6134 31.0712 19.6134 31.8661 19.1004 31.8661C18.8234 31.8661 18.7423 31.7047 18.834 31.3365C18.9657 30.809 18.9647 30.809 18.5359 31.3154C18.0508 31.889 16.4088 32.126 16.6127 31.5932C16.68 31.4171 16.564 31.273 16.3554 31.273C16.1467 31.273 16.0335 31.367 16.1042 31.4816C16.3209 31.8336 15.2543 32.7908 14.8282 32.6266C14.2341 32.3979 14.3531 31.6877 15.1305 30.8212L15.8269 30.0449L15.0039 30.7912C14.5514 31.2016 14.1809 31.445 14.1809 31.332C14.1809 30.9996 13.3847 31.7594 13.1419 32.323C12.9375 32.7982 12.9244 32.7903 12.9803 32.2282C13.0274 31.7553 12.912 31.6061 12.4716 31.5718C12.1583 31.5474 11.9018 31.6008 11.9018 31.6905C11.9018 31.7802 11.723 32.0755 11.5048 32.3469C11.1269 32.8162 11.115 32.8032 11.2591 32.0778C11.3597 31.5723 11.3323 31.4336 11.1781 31.6656C11.0502 31.8582 10.8188 31.9372 10.664 31.8412C10.5091 31.7451 10.3807 31.8163 10.3786 31.9992C10.3756 32.263 10.3295 32.2602 10.1561 31.9855C9.97145 31.693 9.91599 31.693 9.80001 31.9855C9.69872 32.2409 9.65744 32.2231 9.64276 31.9182C9.61819 31.4102 10.2209 30.8692 10.524 31.1271C10.6458 31.2306 10.5939 31.1165 10.4088 30.8735C10.0725 30.4324 9.48398 30.5036 9.76025 30.9518C9.84027 31.0819 9.78735 31.1884 9.6425 31.1884C9.49765 31.1884 9.30469 31.4859 9.21378 31.8496L9.04842 32.5108L8.55614 31.7304C8.01575 30.8743 8.14996 30.1918 8.75898 30.699C9.09654 30.98 9.1958 30.9117 9.05298 30.4959C9.01804 30.3945 8.73746 30.298 8.42953 30.2815C8.12135 30.265 7.93776 30.3628 8.02157 30.4987C8.10539 30.6347 8.0155 30.6883 7.82203 30.6179C7.62856 30.5473 7.50169 30.3524 7.53993 30.1849C7.57817 30.0172 7.48726 29.956 7.3376 30.0487C7.14692 30.1669 7.15452 30.3242 7.36242 30.5757C7.59286 30.8545 7.58171 30.9388 7.31126 30.9543C7.05474 30.9691 7.04664 31.008 7.28037 31.1025C7.45459 31.1731 7.59691 31.3424 7.59691 31.4786C7.59691 31.615 7.49258 31.662 7.3652 31.583C7.23783 31.504 7.07601 31.583 7.00536 31.7586C6.93496 31.9342 6.86811 31.77 6.85722 31.394C6.84633 31.0179 6.74378 30.6522 6.62982 30.5816C6.51561 30.5107 6.47586 30.8181 6.54119 31.2646C6.64805 31.9952 6.61817 32.0414 6.24213 31.7281C5.88026 31.427 5.8243 31.4412 5.8243 31.8348C5.8243 32.0849 5.75542 32.2206 5.67135 32.1362C5.58727 32.0518 5.71136 30.9086 5.94686 29.5956C6.36621 27.2578 6.3928 27.2022 7.22542 26.9001C7.96359 26.6322 8.09527 26.4505 8.22365 25.523C8.30494 24.9353 8.27379 24.1115 8.15427 23.6922C7.95016 22.9756 8.01069 22.8811 9.15858 22.1195C10.4075 21.2906 11.2262 21.1064 13.6744 21.1033C15.0391 21.1016 15.094 21.1303 16.3967 22.5241ZM128.894 21.4052C128.721 21.6149 128.482 21.7864 128.365 21.7864C128.247 21.7864 128.216 21.6149 128.296 21.4052C128.376 21.1956 128.615 21.0241 128.826 21.0241C129.138 21.0241 129.151 21.095 128.894 21.4052ZM133.132 21.5638C133.303 21.7376 133.508 21.8156 133.586 21.7373C133.664 21.6591 133.523 21.517 133.273 21.4215C132.912 21.2838 132.883 21.3127 133.132 21.5638ZM19.752 23.4084C19.752 23.462 20.0333 23.5598 20.3774 23.6259C20.7213 23.6919 20.9427 23.648 20.869 23.5286C20.7393 23.3179 19.752 23.2119 19.752 23.4084ZM126.109 25.3589C126.109 26.0658 126.005 26.5804 125.879 26.5021C125.753 26.4236 125.706 26.5771 125.775 26.8429C125.874 27.2215 125.726 27.3648 125.094 27.5043C124.079 27.7279 123.821 27.4695 123.666 26.0734C123.556 25.0822 123.581 25.0105 123.904 25.4074C124.103 25.6521 124.361 25.8521 124.478 25.8521C124.595 25.8521 124.554 25.7149 124.387 25.5472C124.22 25.3795 124.083 25.0461 124.083 24.806C124.083 24.5661 123.941 24.3122 123.766 24.2416C123.592 24.1712 124.048 24.1044 124.779 24.0934L126.109 24.0734V25.3589ZM30.7761 25.5886C30.2289 26.1952 30.4307 26.8685 31.1597 26.8685C31.9865 26.8685 37.0686 30.4586 36.6913 30.776C36.6366 30.822 35.7941 31.2999 34.8192 31.8381C33.8442 32.3763 32.5457 33.1328 31.9334 33.5193C31.321 33.9056 30.7239 34.1622 30.6067 34.0895C30.4894 34.0166 30.4611 34.134 30.5436 34.35C30.675 34.6938 30.7771 34.6831 31.3638 34.2649C32.1076 33.7345 37.1646 30.9343 37.3786 30.9343C37.6118 30.9343 36.8615 31.6018 36.273 31.9179C35.9643 32.0839 35.6381 32.5128 35.5485 32.8716C35.4277 33.3541 35.3292 33.4347 35.1694 33.1819C34.9959 32.9074 34.9529 32.9056 34.9496 33.1727C34.9476 33.3557 34.8318 33.4347 34.6925 33.3483C34.5533 33.2619 34.4375 33.3981 34.4355 33.6509C34.4322 34.0407 34.3942 34.0527 34.1861 33.7295C34.0078 33.4525 33.9394 33.4393 33.9367 33.6809C33.9346 33.8639 33.8189 33.9429 33.6796 33.8565C33.5403 33.7701 33.4264 33.8207 33.4264 33.9686C33.4264 34.1165 33.3408 34.2242 33.2365 34.2077C32.7034 34.1231 32.1602 34.2666 32.1602 34.4918C32.1602 34.6315 32.6444 34.7454 33.2365 34.7449C34.3828 34.7439 35.358 34.2572 37.1236 32.8055C37.6954 32.3354 38.2742 31.9507 38.4097 31.9507C38.5452 31.9507 38.9288 32.2422 39.2623 32.5984C39.5958 32.9547 40.4419 33.6243 41.1423 34.0865C42.2322 34.8056 42.6627 34.9342 44.1254 34.9769C45.0925 35.0051 45.8347 34.92 45.8347 34.781C45.8347 34.2672 43.354 32.3621 41.5789 31.5124L39.7288 30.6271L41.199 29.5545C42.0076 28.9647 43.1821 28.1526 43.8088 27.7495C44.4356 27.3465 44.9932 26.9862 45.0479 26.9488C45.1023 26.9115 44.9904 26.678 44.799 26.43C44.5212 26.0706 44.5683 26.08 45.0314 26.4772C45.5212 26.8973 45.6475 26.9181 45.8372 26.6101C45.9856 26.3695 45.9238 26.0912 45.6559 25.7944C45.158 25.2423 44.6718 25.2153 44.4756 25.7286C44.3946 25.9403 43.0436 26.9595 41.473 27.9937L38.6176 29.8739L36.7184 28.8559C34.5976 27.719 32.1906 25.8933 32.1721 25.4074C32.1537 24.9178 31.2785 25.0313 30.7761 25.5886ZM125.12 25.2168C125.111 25.3566 125.2 25.6234 125.318 25.8099C125.489 26.0811 125.563 26.0658 125.691 25.7332C125.778 25.5045 125.747 25.3813 125.621 25.4593C125.495 25.5373 125.335 25.4575 125.264 25.2819C125.194 25.1063 125.128 25.0771 125.12 25.2168ZM89.2781 25.9088C88.738 26.6823 88.7722 26.7827 89.6349 26.9557C90.5227 27.1338 93.2688 28.7675 94.6823 29.9585L95.6818 30.8006L93.739 31.8308C91.1199 33.2195 89.1371 34.4849 89.1371 34.7677C89.1371 34.8956 90.077 34.9992 91.2262 34.9982C93.4817 34.9964 93.6243 34.9388 95.7666 33.1577C96.3969 32.6337 97.0001 32.2048 97.1067 32.2048C97.2133 32.2048 98.2893 32.8337 99.4977 33.6024C101.499 34.8755 101.823 35 103.139 35C103.936 35 104.584 34.8857 104.584 34.7454C104.584 34.4059 101.725 32.3062 100.216 31.538C99.5542 31.2013 99.0151 30.8418 99.0173 30.7394C99.031 30.1587 103.295 27.1227 104.097 27.1227C104.728 27.1227 104.72 26.4968 104.081 25.8554C103.579 25.3518 103.575 25.353 102.466 26.4663C101.078 27.8593 97.5977 29.9415 97.0237 29.7224C95.9834 29.3255 91.7182 26.7326 91.0241 26.0752C90.0963 25.1958 89.7955 25.1673 89.2781 25.9088ZM69.5294 25.9703L70.4173 26.3425L69.8961 27.3679C69.6095 27.9317 69.4481 28.3932 69.5375 28.3932C69.6272 28.3932 69.5439 28.5866 69.3527 28.8231C69.0531 29.1939 69.0574 29.2221 69.3851 29.0285C69.7004 28.842 69.7115 28.8702 69.4507 29.1936C69.2777 29.4081 69.2207 29.6769 69.3241 29.7913C69.4271 29.9056 69.3772 29.9219 69.2126 29.8274C69.0483 29.7329 68.8422 29.7717 68.7546 29.9138C68.6672 30.0558 68.7305 30.1719 68.8953 30.1719C69.0946 30.1719 69.1433 30.4322 69.0407 30.947C68.9308 31.4979 68.9708 31.6694 69.1787 31.5406C69.3737 31.4196 69.4173 31.5002 69.3094 31.782C69.2205 32.0145 69.2582 32.2048 69.3929 32.2048C69.5279 32.2048 69.6383 32.3624 69.6383 32.555C69.6383 32.7473 69.8093 33.0472 70.0182 33.2212C70.5996 33.7053 70.4879 33.8923 69.3423 34.3523C68.6107 34.646 67.9695 34.7233 67.2532 34.6044C65.7231 34.3502 65.3808 34.1043 65.5223 33.3602C65.5897 33.0075 65.729 32.7712 65.832 32.8353C65.9353 32.8993 66.0242 32.6406 66.0298 32.2605C66.0351 31.8806 66.0599 30.9051 66.0845 30.0929C66.1098 29.2554 65.9984 28.4577 65.827 28.2506C65.6606 28.0494 65.6087 27.885 65.7115 27.885C65.814 27.885 65.7095 27.5958 65.4785 27.2426C64.9695 26.463 65.1096 26.1865 66.1688 25.8791C67.3896 25.5248 68.5416 25.5561 69.5294 25.9703ZM3.6845 26.3451C3.81669 26.4765 4.2525 26.6429 4.6526 26.7151C5.55815 26.8782 5.52118 26.8187 5.38621 27.9012C5.28289 28.7314 5.21376 28.798 4.55536 28.7012C4.00813 28.6206 3.85974 28.4791 3.9314 28.1063C3.98812 27.811 3.9195 27.683 3.75819 27.7831C3.58726 27.889 3.54953 27.7638 3.65335 27.4355C3.75338 27.1186 3.65994 26.7659 3.40924 26.5141C3.18564 26.2897 3.10182 26.1062 3.22337 26.1062C3.34467 26.1062 3.55206 26.2137 3.6845 26.3451ZM137.251 26.926C137.251 27.2205 137.326 27.3859 137.418 27.2937C137.51 27.2014 137.752 27.3653 137.957 27.6581C138.295 28.1434 138.272 28.2463 137.689 28.8313C137.02 29.5029 136.197 29.4363 136.76 28.7561C136.993 28.474 136.928 28.3543 136.445 28.1698C136.111 28.0423 135.696 27.7671 135.523 27.5582C135.261 27.2418 135.348 27.0957 136.04 26.6795C136.987 26.1103 137.251 26.1642 137.251 26.926ZM103.415 26.7547C103.501 26.9809 103.458 27.0828 103.315 26.9938C103.177 26.9084 103.065 26.7311 103.065 26.5994C103.065 26.234 103.246 26.3146 103.415 26.7547ZM20.6294 26.8685C21.0085 26.8685 21.261 27.0551 21.3514 27.4024C21.5218 28.0565 22.031 27.8042 22.031 27.0652C22.031 26.3758 22.2721 26.6157 22.424 27.4563C22.5676 28.2511 22.5101 28.287 20.7337 28.5027C19.3845 28.6669 19.3045 28.6453 19.2047 28.0898C19.0379 27.1615 19.2422 26.5588 19.6681 26.7229C19.8763 26.803 20.3088 26.8685 20.6294 26.8685ZM3.27427 27.8364C3.25831 28.4471 3.23299 28.4659 3.03876 28.012C2.73641 27.3061 2.73641 26.8081 3.03876 26.9956C3.17804 27.082 3.28389 27.4604 3.27427 27.8364ZM64.872 27.5673C65.1931 28.3533 65.3124 28.7977 65.3998 29.5367C65.4329 29.8162 65.574 30.129 65.7133 30.2317C65.8677 30.3455 65.8363 30.4197 65.633 30.4222C65.4152 30.4248 65.3549 30.6024 65.4595 30.9328C65.7183 31.7507 64.947 31.2888 64.0404 30.0823C63.2686 29.0554 63.2524 29.048 63.4081 29.7908C63.5365 30.4037 63.5145 30.4649 63.2957 30.1033C63.146 29.8558 63.1004 29.3984 63.1944 29.0869C63.3853 28.4539 64.3 26.8685 64.4739 26.8685C64.5357 26.8685 64.7148 27.1829 64.872 27.5673ZM71.7138 28.4143C72.2737 29.8779 72.2785 30.9167 71.7275 31.3698C71.4839 31.5703 71.4269 31.6618 71.6009 31.5734C71.967 31.3871 72.0078 31.6681 71.688 32.1748C71.5138 32.451 71.4297 32.4106 71.2957 31.9865C71.2018 31.6897 71.2068 31.3139 71.3071 31.1513C71.4259 30.9584 71.3783 30.9246 71.1696 31.054C70.9308 31.2021 70.8956 31.0997 71.0301 30.6484C71.2073 30.0543 71.2033 30.0528 70.7852 30.5531C70.5517 30.8326 70.4327 30.9185 70.5208 30.7437C70.609 30.5691 70.553 30.4261 70.3965 30.4261C70.2116 30.4261 70.1537 30.0474 70.2311 29.3461C70.5064 26.8561 70.9992 26.5463 71.7138 28.4143ZM67.106 28.0972C67.106 28.2687 67.2529 28.4656 67.4324 28.5347C67.612 28.6041 67.7799 28.8577 67.8054 29.0986C67.8308 29.3395 68.0093 29.9768 68.202 30.5147C68.4773 31.2839 68.5887 31.397 68.7237 31.0441C68.8181 30.7971 68.7804 30.4799 68.6398 30.3389C68.4768 30.1753 68.4717 29.9765 68.6257 29.7903C68.7905 29.5911 68.5874 29.2262 67.9868 28.6417C67.5023 28.1706 67.106 27.9256 67.106 28.0972ZM125.768 29.092C125.701 29.3367 125.574 29.9656 125.486 30.4896C125.344 31.3347 124.843 31.8676 124.843 31.1734C124.843 31.0255 124.728 30.9754 124.588 31.0623C124.267 31.2608 123.927 30.4347 124.236 30.2098C124.568 29.9684 124.68 29.0691 124.353 29.2722C124.204 29.3641 124.083 29.2612 124.083 29.0435C124.083 28.7586 124.337 28.6473 124.986 28.6473C125.724 28.6473 125.867 28.7289 125.768 29.092ZM38.98 30.4634C43.1672 32.9074 43.5551 33.1814 43.4006 33.5851C43.2527 33.9719 42.5427 33.8463 42.5427 33.4332C42.5427 33.3 42.4287 33.2619 42.2895 33.3483C42.1502 33.4347 42.0362 33.3651 42.0362 33.1938C42.0362 33.0225 41.9696 32.9491 41.8886 33.0307C41.8073 33.1122 41.5136 32.9509 41.2358 32.6721C40.9582 32.3936 40.5629 32.2302 40.3576 32.3092C40.1522 32.3883 40.0451 32.354 40.1198 32.233C40.2624 32.0015 38.2489 30.5282 37.9212 30.6245C37.8169 30.655 37.7313 30.5658 37.7313 30.4261C37.7313 30.2863 37.6224 30.1719 37.4895 30.1719C37.3565 30.1719 36.963 29.8861 36.6148 29.5367C36.2666 29.1873 36.0542 28.9014 36.1428 28.9014C36.2312 28.9014 37.508 29.6043 38.98 30.4634ZM95.3539 29.1189C95.486 29.2384 96.734 29.9379 98.1267 30.6731C99.5195 31.4082 100.887 32.2096 101.165 32.4541C101.444 32.6983 102.213 33.2106 102.875 33.592C103.536 33.9737 104.14 34.3876 104.217 34.5121C104.439 34.8735 102.767 34.4778 101.842 33.95C101.379 33.6858 100.896 33.5338 100.769 33.6126C100.642 33.6913 100.595 33.607 100.664 33.425C100.741 33.2233 100.271 32.8022 99.4582 32.3451C98.1457 31.6066 94.7081 29.1837 94.7081 28.9972C94.7081 28.8224 95.1095 28.8981 95.3539 29.1189ZM132.999 29.2922C132.729 29.5992 132.741 29.6637 133.063 29.6637C133.277 29.6637 133.452 29.7849 133.452 29.9328C133.452 30.0807 133.566 30.1313 133.706 30.0449C133.845 29.9585 133.961 30.0375 133.963 30.2205C133.965 30.4621 134.034 30.4489 134.212 30.1719C134.534 29.6726 134.529 29.4096 134.197 29.4096C134.05 29.4096 133.999 29.5227 134.084 29.6609C134.176 29.8111 134.06 29.8434 133.795 29.7412C133.522 29.6363 133.468 29.5313 133.655 29.4688C133.822 29.4129 133.959 29.2625 133.959 29.1344C133.959 28.7779 133.365 28.8755 132.999 29.2922ZM40.4057 29.6467C40.1621 29.9166 39.7992 30.0746 39.5994 29.9976C39.3011 29.8828 39.3168 29.7961 39.6865 29.5148C39.9342 29.326 40.297 29.168 40.4928 29.1636C40.767 29.1573 40.747 29.2681 40.4057 29.6467ZM99.1971 29.6637C98.8431 29.9433 98.3435 30.1714 98.0867 30.1707C97.7345 30.1697 97.8064 30.0497 98.38 29.681C99.3896 29.032 100.014 29.0188 99.1971 29.6637ZM22.2843 29.5217C22.2843 29.5834 22.1703 29.7044 22.031 29.7908C21.8918 29.8772 21.7778 29.8266 21.7778 29.6787C21.7778 29.5308 21.8918 29.4096 22.031 29.4096C22.1703 29.4096 22.2843 29.4599 22.2843 29.5217ZM21.2232 30.6166C21.1559 31.4331 21.049 31.5807 20.4762 31.6473C19.8641 31.7185 19.7996 31.6384 19.7099 30.6944C19.6132 29.6759 19.6218 29.6637 20.457 29.6637C21.2784 29.6637 21.2997 29.6902 21.2232 30.6166ZM134.611 30.0873C134.521 30.3204 134.566 30.6291 134.71 30.7734C134.89 30.9541 134.972 30.9472 134.972 30.7518C134.972 30.5955 135.041 30.2868 135.125 30.0657C135.21 29.8447 135.165 29.6637 135.026 29.6637C134.887 29.6637 134.7 29.8543 134.611 30.0873ZM4.93799 31.2079C4.93799 32.1911 4.72173 32.5067 4.47255 31.8872C4.39633 31.6974 4.33682 31.7487 4.32492 32.0142C4.30491 32.4604 3.79845 32.6637 3.79845 32.2257C3.79845 32.0973 3.72882 31.8102 3.64373 31.5873C3.52573 31.2791 3.59688 31.2242 3.94254 31.3574C4.37177 31.5225 4.37329 31.4994 3.97065 30.9226C3.3943 30.0967 3.43026 29.989 4.24161 30.1084C4.86557 30.2004 4.93799 30.3145 4.93799 31.2079ZM12.5108 30.7437L12.0284 31.3154L12.5982 30.8314C13.1335 30.3765 13.2832 30.1719 13.0806 30.1719C13.0325 30.1719 12.7762 30.4291 12.5108 30.7437ZM16.4276 30.6166C16.1128 31.0197 16.1217 31.0286 16.5233 30.7127C16.9452 30.3806 17.0791 30.1719 16.8707 30.1719C16.8183 30.1719 16.6187 30.3719 16.4276 30.6166ZM24.5309 30.6166C24.2162 31.0197 24.225 31.0286 24.6266 30.7127C25.0485 30.3806 25.1825 30.1719 24.9741 30.1719C24.9217 30.1719 24.7221 30.3719 24.5309 30.6166ZM126.196 30.564C126.113 30.7798 126.103 31.013 126.172 31.0824C126.241 31.1518 126.358 30.9752 126.433 30.6903C126.591 30.0848 126.415 29.9913 126.196 30.564ZM130.027 30.6878C129.777 30.9648 129.648 31.2672 129.74 31.3594C129.832 31.4516 129.909 31.3652 129.911 31.1673C129.914 30.9018 129.966 30.888 130.11 31.1147C130.251 31.3373 130.388 31.288 130.607 30.9358C131.026 30.2622 130.582 30.0721 130.027 30.6878ZM11.1239 30.8291C10.9307 31.0629 10.9661 31.132 11.2571 31.0893C11.8302 31.0049 12.2764 30.5107 11.7795 30.5107C11.5638 30.5107 11.2687 30.654 11.1239 30.8291ZM17.5754 30.9978L17.093 31.5695L17.7261 31.0641C18.0743 30.7861 18.4068 30.5287 18.4648 30.4924C18.5228 30.4558 18.4549 30.4261 18.3141 30.4261C18.1731 30.4261 17.8408 30.6832 17.5754 30.9978ZM25.2906 30.8707C24.9758 31.2738 24.9847 31.2827 25.3863 30.9668C25.6302 30.7749 25.8295 30.5747 25.8295 30.5221C25.8295 30.313 25.6216 30.4474 25.2906 30.8707ZM119.668 30.8598C119.53 31.2219 119.559 31.2511 119.809 31.0021C119.983 30.8296 120.06 30.6245 119.982 30.5465C119.904 30.4682 119.763 30.6093 119.668 30.8598ZM64.5821 31.2041C64.7267 31.475 65.008 31.6966 65.2078 31.6966C65.7647 31.6966 65.3901 32.3464 64.808 32.3906C64.4228 32.4195 64.3316 32.3159 64.4405 31.9718C64.6203 31.4031 63.9568 30.7508 63.671 31.2153C63.5514 31.4092 63.5897 31.4547 63.7748 31.3396C63.9629 31.2229 64.07 31.3675 64.0754 31.7451C64.0857 32.5011 64.7186 33.3917 64.908 32.9171C64.9933 32.7031 65.0473 32.7435 65.0602 33.0307C65.0961 33.8306 64.4263 33.4977 63.8611 32.4348C63.5565 31.8628 63.3076 31.258 63.3076 31.0913C63.3076 30.5884 64.3005 30.6761 64.5821 31.2041ZM8.04968 31.7314C7.98638 31.9217 7.87166 31.8064 7.78202 31.4628C7.67186 31.0402 7.70478 30.9409 7.89268 31.1294C8.04006 31.2773 8.11046 31.5479 8.04968 31.7314ZM136.66 31.1038C136.567 31.1968 136.491 31.4445 136.491 31.6542C136.491 32.1149 136.821 31.8343 136.898 31.3081C136.959 30.8939 136.91 30.8525 136.66 31.1038ZM23.8036 31.8237C23.8036 32.1731 23.8475 32.4589 23.9006 32.4589C23.9541 32.4589 24.0523 32.1731 24.1189 31.8237C24.1855 31.4743 24.1417 31.1884 24.0217 31.1884C23.9019 31.1884 23.8036 31.4743 23.8036 31.8237ZM96.2275 31.5398C96.2275 31.7332 95.9882 31.9543 95.6955 32.031C95.4027 32.108 95.2386 32.2925 95.3306 32.4419C95.4225 32.5911 95.3691 32.713 95.2115 32.713C95.0543 32.713 94.385 33.1704 93.7243 33.7295C92.815 34.4989 92.3118 34.7423 91.6532 34.7309C90.8818 34.7177 90.8367 34.6816 91.2563 34.4133C92.4977 33.6192 92.6547 33.296 91.4683 33.9767C89.5346 35.0864 89.2918 34.923 91.1161 33.7399C93.173 32.4058 94.2017 31.8849 94.2017 32.1771C94.2017 32.3087 94.0593 32.4742 93.8851 32.5448C93.6625 32.635 93.657 32.679 93.8671 32.693C94.148 32.7118 94.3782 32.5136 95.1611 31.5784C95.5678 31.0928 96.2275 31.069 96.2275 31.5398ZM132.78 31.5805C132.697 31.7962 132.576 31.9182 132.509 31.8516C132.443 31.785 132.464 31.6084 132.556 31.4595C132.805 31.054 132.951 31.1327 132.78 31.5805ZM1.30338 32.4945C1.12991 33.0995 1.05192 33.1877 1.03571 32.7974C1.01014 32.1794 1.2702 31.3617 1.4386 31.5307C1.49887 31.5914 1.43809 32.0252 1.30338 32.4945ZM15.1938 31.7962C15.1938 32.0374 15.0799 32.1642 14.9406 32.0778C14.8013 31.9914 14.6874 32.0419 14.6874 32.1898C14.6874 32.3377 14.8049 32.4589 14.9484 32.4589C15.2647 32.4589 15.5729 31.7383 15.3518 31.5162C15.265 31.429 15.1938 31.5551 15.1938 31.7962ZM14.1591 32.8401C14.167 32.9798 14.051 32.9227 13.9018 32.713C13.6838 32.4068 13.6549 32.4442 13.7552 32.9034C13.8238 33.2177 13.794 33.5282 13.6886 33.5938C13.5159 33.7007 13.4997 32.9651 13.6527 31.9507C13.6944 31.6737 13.7696 31.7085 13.9277 32.0778C14.0474 32.3573 14.1515 32.7003 14.1591 32.8401ZM125.171 32.1194C125.051 32.4345 125.101 32.4889 125.369 32.3329C125.568 32.2173 125.64 32.2211 125.532 32.3408C125.423 32.4604 125.195 32.5857 125.025 32.619C124.855 32.6526 124.346 32.7936 123.893 32.9328C123.23 33.1364 123.07 33.1148 123.07 32.8223C123.07 32.603 123.324 32.4589 123.711 32.4589C124.064 32.4589 124.418 32.2874 124.498 32.0778C124.578 31.8681 124.799 31.6966 124.988 31.6966C125.206 31.6966 125.274 31.8526 125.171 32.1194ZM129.32 32.2526C129.24 32.4551 129.18 32.3949 129.167 32.0989C129.157 31.831 129.216 31.6811 129.3 31.7655C129.384 31.8498 129.394 32.0691 129.32 32.2526ZM71.0151 32.4411C71.4396 32.912 71.4363 32.9262 70.9278 32.7928C70.6363 32.7163 70.398 32.4955 70.398 32.3021C70.398 31.8371 70.4889 31.8577 71.0151 32.4411ZM17.8991 32.7608C17.8183 32.9633 17.7583 32.9031 17.7461 32.6071C17.7352 32.3392 17.795 32.1893 17.8791 32.2737C17.9631 32.358 17.9723 32.5773 17.8991 32.7608ZM27.9521 32.5992C28.0384 32.8253 27.9959 32.9272 27.8525 32.8383C27.7148 32.7529 27.6021 32.5756 27.6021 32.4439C27.6021 32.0785 27.7837 32.1591 27.9521 32.5992ZM67.3593 32.713C67.5084 32.9925 67.6872 33.2212 67.7568 33.2212C67.8265 33.2212 67.7616 32.9925 67.6125 32.713C67.4633 32.4335 67.2846 32.2048 67.2149 32.2048C67.1453 32.2048 67.2101 32.4335 67.3593 32.713ZM66.5932 32.6261C66.7361 32.6973 66.8528 32.9107 66.8528 33.1003C66.8528 33.2901 66.9652 33.515 67.1027 33.6004C67.2613 33.6987 67.2754 33.5463 67.1417 33.1836C67.0257 32.8693 66.7966 32.5862 66.6322 32.5545C66.4681 32.523 66.4504 32.5552 66.5932 32.6261ZM121.994 32.7745C121.952 32.9013 121.809 33.0053 121.677 33.0053C121.545 33.0053 121.402 32.9013 121.36 32.7745C121.318 32.6475 121.46 32.5435 121.677 32.5435C121.894 32.5435 122.036 32.6475 121.994 32.7745ZM137.282 33.035C137.032 33.284 137.003 33.2548 137.14 32.8927C137.236 32.6421 137.377 32.5011 137.455 32.5794C137.533 32.6574 137.455 32.8624 137.282 33.035ZM139.682 33.2848C139.659 33.7046 139.5 33.8512 139.084 33.8364C138.772 33.8253 138.517 33.9109 138.517 34.027C138.517 34.303 137.936 34.182 137.698 33.8565C137.583 33.6992 137.51 33.7234 137.508 33.92C137.506 34.0949 137.337 34.2377 137.132 34.2377C136.906 34.2377 136.817 34.0888 136.906 33.8565C136.986 33.6469 137.296 33.4713 137.594 33.4665C137.893 33.4614 138.422 33.2939 138.77 33.0942C139.627 32.6027 139.719 32.6218 139.682 33.2848ZM68.283 33.3521C67.9974 33.5618 67.9331 33.7411 68.1055 33.8481C68.2542 33.9404 68.4413 33.8443 68.5216 33.6347C68.6016 33.4248 68.8287 33.3155 69.0263 33.3915C69.2235 33.4675 69.3851 33.4726 69.3851 33.4027C69.3851 33.0868 68.6882 33.0548 68.283 33.3521ZM140.463 33.5231C140.382 33.7256 140.322 33.6654 140.31 33.3694C140.299 33.1016 140.358 32.9516 140.443 33.036C140.527 33.1204 140.536 33.3397 140.463 33.5231ZM66.1708 33.5813C66.223 34.1012 66.8528 34.4786 66.8528 33.9897C66.8528 33.8301 66.7474 33.7648 66.6188 33.8446C66.4899 33.9244 66.3256 33.7882 66.2534 33.5419C66.1427 33.1643 66.1298 33.1704 66.1708 33.5813ZM119.698 34.0313C119.617 34.2339 119.557 34.1736 119.545 33.8776C119.534 33.6098 119.594 33.4599 119.678 33.5442C119.762 33.6286 119.771 33.8479 119.698 34.0313ZM124.087 33.854C124.205 33.781 124.383 33.855 124.484 34.0186C124.599 34.2044 124.558 34.2481 124.375 34.1348C124.211 34.0334 124.081 34.0999 124.079 34.2862C124.076 34.5279 124.008 34.5147 123.83 34.2377C123.695 34.028 123.591 33.7422 123.6 33.6024C123.609 33.4626 123.674 33.4919 123.745 33.6675C123.815 33.843 123.969 33.9269 124.087 33.854ZM126.603 34.0054C126.448 34.2969 126.257 34.4712 126.179 34.3927C126.101 34.3142 126.181 34.0756 126.357 33.8626C126.812 33.3122 126.935 33.3834 126.603 34.0054ZM136.676 33.6288C136.592 33.7132 136.373 33.7223 136.191 33.6489C135.988 33.5678 136.048 33.5076 136.343 33.4954C136.61 33.4845 136.76 33.5445 136.676 33.6288ZM44.8218 34.2389C45.6982 34.7218 45.7002 34.7266 45 34.6801C44.6106 34.6542 44.1087 34.4298 43.8846 34.1813C43.3616 33.6014 43.7022 33.6222 44.8218 34.2389ZM127.462 34.1215C127.38 34.3373 127.258 34.4593 127.191 34.3927C127.125 34.3261 127.146 34.1495 127.238 34.0006C127.488 33.595 127.633 33.6738 127.462 34.1215Z" fill="black"/>
</svg>
